<!-- Generated by IcoMoon.io -->
<svg version="1.1" xmlns="http://www.w3.org/2000/svg" width="32" height="32" viewBox="0 0 32 32">
<title>activity</title>
<path d="M29.333 14.667h-5.333c-0.585 0-1.083 0.377-1.265 0.912l-2.735 8.205-6.735-20.205c-0.233-0.699-0.988-1.076-1.687-0.844-0.413 0.137-0.713 0.457-0.844 0.844l-3.696 11.088h-4.372c-0.736 0-1.333 0.597-1.333 1.333s0.597 1.333 1.333 1.333h5.333c0.564-0.004 1.080-0.356 1.265-0.912l2.735-8.205 6.735 20.205c0.131 0.387 0.431 0.705 0.843 0.843 0.699 0.233 1.453-0.145 1.687-0.843l3.697-11.088h4.372c0.736 0 1.333-0.597 1.333-1.333s-0.597-1.333-1.333-1.333z"></path>
</svg>
