<!-- Generated by IcoMoon.io -->
<svg version="1.1" xmlns="http://www.w3.org/2000/svg" width="32" height="32" viewBox="0 0 32 32">
<title>alert-octagon</title>
<path d="M10.48 1.333c-0.341 0-0.683 0.131-0.943 0.391l-7.813 7.813c-0.241 0.241-0.391 0.575-0.391 0.943v11.040c0 0.341 0.131 0.683 0.391 0.943l7.813 7.813c0.241 0.241 0.575 0.391 0.943 0.391h11.040c0.341 0 0.683-0.131 0.943-0.391l7.813-7.813c0.241-0.241 0.391-0.575 0.391-0.943v-11.040c0-0.341-0.131-0.683-0.391-0.943l-7.813-7.813c-0.241-0.241-0.575-0.391-0.943-0.391zM11.032 4h9.936l7.032 7.032v9.936l-7.032 7.032h-9.936l-7.032-7.032v-9.936zM14.667 10.667v5.333c0 0.736 0.597 1.333 1.333 1.333s1.333-0.597 1.333-1.333v-5.333c0-0.736-0.597-1.333-1.333-1.333s-1.333 0.597-1.333 1.333zM17.333 21.333c0-0.736-0.597-1.333-1.333-1.333s-1.333 0.597-1.333 1.333 0.597 1.333 1.333 1.333 1.333-0.597 1.333-1.333z"></path>
</svg>
