<!-- Generated by IcoMoon.io -->
<svg version="1.1" xmlns="http://www.w3.org/2000/svg" width="32" height="32" viewBox="0 0 32 32">
<title>alert-triangle</title>
<path d="M14.864 5.832c0.097-0.164 0.247-0.323 0.445-0.443 0.156-0.095 0.321-0.153 0.488-0.179 0.173-0.027 0.351-0.019 0.521 0.023s0.331 0.116 0.473 0.22c0.136 0.1 0.255 0.227 0.347 0.377l11.288 18.844c0.103 0.175 0.171 0.397 0.173 0.643 0.003 0.183-0.032 0.355-0.095 0.511-0.065 0.163-0.163 0.311-0.285 0.436s-0.269 0.225-0.431 0.295c-0.155 0.065-0.325 0.104-0.493 0.105l-22.585 0.003c-0.203-0.001-0.428-0.055-0.641-0.179-0.159-0.092-0.289-0.208-0.391-0.341-0.107-0.139-0.185-0.299-0.231-0.468s-0.057-0.347-0.035-0.52c0.021-0.167 0.076-0.333 0.157-0.473zM12.576 4.461l-11.293 18.853c-0.28 0.485-0.447 0.988-0.513 1.495-0.069 0.527-0.032 1.056 0.103 1.559s0.367 0.98 0.691 1.401c0.312 0.407 0.707 0.759 1.173 1.028 0.619 0.357 1.301 0.533 1.967 0.536h22.591c0.553-0.007 1.071-0.119 1.541-0.32 0.488-0.208 0.925-0.511 1.289-0.883s0.656-0.815 0.853-1.308c0.191-0.475 0.292-0.993 0.287-1.533-0.008-0.715-0.204-1.392-0.541-1.965l-11.299-18.863c-0.284-0.468-0.644-0.855-1.057-1.157-0.428-0.315-0.911-0.536-1.416-0.66s-1.036-0.149-1.56-0.069c-0.507 0.077-1.004 0.255-1.465 0.535-0.572 0.347-1.033 0.82-1.349 1.352zM14.667 12v5.333c0 0.736 0.597 1.333 1.333 1.333s1.333-0.597 1.333-1.333v-5.333c0-0.736-0.597-1.333-1.333-1.333s-1.333 0.597-1.333 1.333zM17.333 22.667c0-0.736-0.597-1.333-1.333-1.333s-1.333 0.597-1.333 1.333 0.597 1.333 1.333 1.333 1.333-0.597 1.333-1.333z"></path>
</svg>
