<!-- Generated by IcoMoon.io -->
<svg version="1.1" xmlns="http://www.w3.org/2000/svg" width="32" height="32" viewBox="0 0 32 32">
<title>anchor</title>
<path d="M18.667 6.667c0 0.364-0.072 0.707-0.201 1.020-0.135 0.325-0.333 0.619-0.58 0.867s-0.541 0.445-0.867 0.58c-0.312 0.128-0.655 0.2-1.019 0.2s-0.707-0.072-1.020-0.201c-0.325-0.135-0.619-0.333-0.867-0.58s-0.445-0.541-0.58-0.867c-0.128-0.312-0.2-0.655-0.2-1.019s0.072-0.707 0.201-1.020c0.135-0.325 0.333-0.619 0.58-0.867s0.541-0.445 0.867-0.58c0.312-0.128 0.655-0.2 1.019-0.2s0.707 0.072 1.020 0.201c0.325 0.135 0.619 0.333 0.867 0.58s0.445 0.541 0.58 0.867c0.128 0.312 0.2 0.655 0.2 1.019zM6.667 14.667h-4c-0.736 0-1.333 0.597-1.333 1.333 0 1.984 0.395 3.88 1.111 5.609 0.744 1.796 1.833 3.411 3.184 4.761s2.965 2.441 4.761 3.184c1.731 0.717 3.627 1.112 5.611 1.112s3.88-0.395 5.609-1.111c1.796-0.744 3.411-1.833 4.761-3.184s2.441-2.965 3.184-4.761c0.717-1.731 1.112-3.627 1.112-5.611 0-0.736-0.597-1.333-1.333-1.333h-4c-0.736 0-1.333 0.597-1.333 1.333s0.597 1.333 1.333 1.333h2.593c-0.127 1.143-0.412 2.235-0.835 3.256-0.608 1.468-1.499 2.789-2.607 3.896s-2.429 1.999-3.896 2.607c-1.021 0.423-2.113 0.709-3.256 0.835v-16.095c0.243-0.063 0.479-0.141 0.707-0.236 0.653-0.271 1.24-0.667 1.731-1.157s0.887-1.077 1.157-1.731c0.261-0.632 0.405-1.321 0.405-2.041s-0.144-1.409-0.404-2.040c-0.271-0.653-0.667-1.24-1.157-1.731s-1.079-0.888-1.732-1.159c-0.631-0.26-1.32-0.404-2.040-0.404s-1.409 0.144-2.040 0.404c-0.653 0.271-1.24 0.667-1.731 1.157s-0.888 1.079-1.159 1.732c-0.26 0.631-0.404 1.32-0.404 2.040s0.144 1.409 0.404 2.040c0.271 0.653 0.667 1.24 1.157 1.731s1.079 0.888 1.732 1.159c0.228 0.095 0.464 0.173 0.707 0.236v16.095c-1.143-0.127-2.235-0.412-3.256-0.835-1.468-0.608-2.789-1.499-3.896-2.607-1.108-1.108-1.999-2.429-2.607-3.896-0.423-1.021-0.709-2.113-0.835-3.256h2.593c0.736 0 1.333-0.597 1.333-1.333s-0.597-1.333-1.333-1.333z"></path>
</svg>
