<!-- Generated by IcoMoon.io -->
<svg version="1.1" xmlns="http://www.w3.org/2000/svg" width="32" height="32" viewBox="0 0 32 32">
<title>aperture</title>
<path d="M15.229 9.333l2.964-5.133c0.832 0.153 1.633 0.393 2.395 0.708 1.468 0.608 2.789 1.499 3.896 2.607 0.556 0.555 1.057 1.164 1.496 1.819h-6.925zM9.84 13.333l-2.963-5.129c0.204-0.239 0.416-0.468 0.637-0.689 1.108-1.108 2.429-1.999 3.896-2.607 1.183-0.491 2.463-0.796 3.804-0.883l-3.456 5.987zM10.611 20h-5.928c-0.441-1.249-0.683-2.596-0.683-4 0-1.628 0.324-3.177 0.908-4.589 0.101-0.244 0.211-0.484 0.327-0.72l3.467 6.005zM23.297 15.304l-1.908-3.304h5.928c0.441 1.249 0.683 2.596 0.683 4 0 1.628-0.324 3.177-0.908 4.589-0.101 0.244-0.211 0.484-0.327 0.72l-3.435-5.949zM16.784 27.975l5.376-9.308 2.963 5.131c-0.204 0.237-0.416 0.468-0.637 0.688-1.108 1.108-2.429 1.999-3.896 2.607-1.183 0.491-2.463 0.796-3.804 0.883zM14.265 30.565c0.061 0.012 0.124 0.019 0.187 0.021 0.509 0.052 1.025 0.080 1.548 0.080 1.984 0 3.88-0.395 5.609-1.111 1.796-0.744 3.411-1.833 4.761-3.184 0.488-0.488 0.941-1.009 1.357-1.563 0.055-0.061 0.104-0.128 0.147-0.199 0.672-0.924 1.237-1.931 1.681-3.001 0.716-1.729 1.111-3.625 1.111-5.609s-0.395-3.88-1.111-5.609c-0.024-0.057-0.048-0.115-0.072-0.172-0.021-0.057-0.045-0.115-0.073-0.168-0.737-1.66-1.773-3.156-3.039-4.421-1.351-1.351-2.965-2.441-4.761-3.184-1.219-0.505-2.519-0.849-3.875-1.009-0.061-0.012-0.124-0.019-0.187-0.021-0.509-0.053-1.027-0.081-1.549-0.081-1.984 0-3.88 0.395-5.609 1.111-1.796 0.744-3.411 1.833-4.761 3.185-0.488 0.488-0.941 1.009-1.357 1.561-0.055 0.063-0.104 0.128-0.147 0.199-0.671 0.924-1.237 1.931-1.681 3.001-0.716 1.729-1.111 3.625-1.111 5.609s0.395 3.88 1.111 5.609c0.024 0.057 0.048 0.115 0.072 0.172 0.021 0.057 0.045 0.115 0.073 0.168 0.737 1.66 1.773 3.156 3.039 4.421 1.351 1.351 2.965 2.441 4.761 3.184 1.219 0.504 2.519 0.849 3.875 1.009zM16.771 22.667l-2.964 5.133c-0.832-0.153-1.633-0.393-2.395-0.708-1.468-0.608-2.789-1.499-3.896-2.607-0.556-0.555-1.057-1.164-1.496-1.819h6.925zM20.62 16l-2.309 4h-4.621l-2.309-4 2.309-4h4.621z"></path>
</svg>
