<!-- Generated by IcoMoon.io -->
<svg version="1.1" xmlns="http://www.w3.org/2000/svg" width="32" height="32" viewBox="0 0 32 32">
<title>arrow-down</title>
<path d="M24.391 15.057l-7.057 7.057v-15.448c0-0.736-0.597-1.333-1.333-1.333s-1.333 0.597-1.333 1.333v15.448l-7.057-7.057c-0.521-0.521-1.365-0.521-1.885 0s-0.521 1.365 0 1.885l9.333 9.333c0.128 0.128 0.276 0.224 0.433 0.289 0.16 0.065 0.329 0.1 0.499 0.101 0.177 0.001 0.355-0.032 0.52-0.101 0.157-0.065 0.305-0.161 0.433-0.289l9.333-9.333c0.521-0.521 0.521-1.365 0-1.885s-1.365-0.521-1.885 0z"></path>
</svg>
