<!-- Generated by IcoMoon.io -->
<svg version="1.1" xmlns="http://www.w3.org/2000/svg" width="32" height="32" viewBox="0 0 32 32">
<title>arrow-up</title>
<path d="M7.609 16.943l7.057-7.057v15.448c0 0.736 0.597 1.333 1.333 1.333s1.333-0.597 1.333-1.333v-15.448l7.057 7.057c0.521 0.521 1.365 0.521 1.885 0s0.521-1.365 0-1.885l-9.333-9.333c-0.003-0.003-0.004-0.004-0.007-0.007-0.127-0.124-0.271-0.219-0.425-0.283-0.327-0.135-0.696-0.135-1.023 0-0.157 0.065-0.304 0.161-0.432 0.289l-9.333 9.333c-0.521 0.521-0.521 1.365 0 1.885s1.365 0.521 1.885 0z"></path>
</svg>
