<!-- Generated by IcoMoon.io -->
<svg version="1.1" xmlns="http://www.w3.org/2000/svg" width="32" height="32" viewBox="0 0 32 32">
<title>arrow-up-left</title>
<path d="M10.667 22.667v-10.115l11.057 11.057c0.521 0.521 1.365 0.521 1.885 0s0.521-1.365 0-1.885l-11.057-11.057h10.115c0.736 0 1.333-0.597 1.333-1.333s-0.597-1.333-1.333-1.333h-13.333c-0.181 0-0.353 0.036-0.511 0.101-0.16 0.067-0.305 0.164-0.427 0.284-0.125 0.124-0.227 0.272-0.295 0.437-0.065 0.157-0.101 0.329-0.101 0.511v13.333c0 0.736 0.597 1.333 1.333 1.333s1.333-0.597 1.333-1.333z"></path>
</svg>
