<!-- Generated by IcoMoon.io -->
<svg version="1.1" xmlns="http://www.w3.org/2000/svg" width="32" height="32" viewBox="0 0 32 32">
<title>arrow-down-right</title>
<path d="M21.333 9.333v10.115l-11.057-11.057c-0.521-0.521-1.365-0.521-1.885 0s-0.521 1.365 0 1.885l11.057 11.057h-10.115c-0.736 0-1.333 0.597-1.333 1.333s0.597 1.333 1.333 1.333h13.333c0.18 0 0.352-0.036 0.509-0.1 0.327-0.135 0.588-0.397 0.724-0.724 0.064-0.153 0.099-0.321 0.1-0.499 0-0.004 0-0.007 0-0.011v-13.333c0-0.736-0.597-1.333-1.333-1.333s-1.333 0.597-1.333 1.333z"></path>
</svg>
