<!-- Generated by IcoMoon.io -->
<svg version="1.1" xmlns="http://www.w3.org/2000/svg" width="32" height="32" viewBox="0 0 32 32">
<title>arrow-down-left</title>
<path d="M22.667 21.333h-10.115l11.057-11.057c0.521-0.521 0.521-1.365 0-1.885s-1.365-0.521-1.885 0l-11.057 11.057v-10.115c0-0.736-0.597-1.333-1.333-1.333s-1.333 0.597-1.333 1.333v13.333c0 0.004 0 0.008 0 0.012 0.001 0.176 0.037 0.344 0.101 0.497 0.135 0.327 0.396 0.588 0.724 0.724 0.152 0.063 0.321 0.099 0.497 0.1 0.004 0 0.007 0 0.011 0h13.333c0.736 0 1.333-0.597 1.333-1.333s-0.597-1.333-1.333-1.333z"></path>
</svg>
