<!-- Generated by IcoMoon.io -->
<svg version="1.1" xmlns="http://www.w3.org/2000/svg" width="32" height="32" viewBox="0 0 32 32">
<title>at-sign</title>
<path d="M20 16c0 0.544-0.108 1.060-0.303 1.529-0.203 0.488-0.5 0.929-0.869 1.299s-0.811 0.667-1.299 0.869c-0.469 0.195-0.985 0.303-1.529 0.303s-1.060-0.108-1.529-0.303c-0.488-0.203-0.929-0.5-1.299-0.869s-0.667-0.811-0.869-1.299c-0.195-0.469-0.303-0.985-0.303-1.529s0.108-1.060 0.303-1.529c0.203-0.488 0.5-0.929 0.869-1.299s0.811-0.667 1.299-0.869c0.469-0.195 0.985-0.303 1.529-0.303s1.060 0.108 1.529 0.303c0.488 0.203 0.929 0.5 1.299 0.869s0.667 0.811 0.869 1.299c0.195 0.469 0.303 0.985 0.303 1.529zM20.987 20.424c0.173 0.243 0.365 0.471 0.575 0.68 0.491 0.491 1.077 0.887 1.731 1.157 0.632 0.261 1.321 0.405 2.041 0.405s1.409-0.144 2.040-0.404c0.653-0.271 1.24-0.667 1.731-1.157s0.887-1.077 1.157-1.731c0.261-0.632 0.405-1.321 0.405-2.041v-1.333c0-1.984-0.395-3.88-1.112-5.609-0.744-1.796-1.833-3.411-3.185-4.761s-2.967-2.44-4.761-3.184c-1.729-0.716-3.625-1.111-5.609-1.111s-3.879 0.395-5.609 1.111c-1.795 0.744-3.409 1.833-4.761 3.185s-2.44 2.967-3.184 4.761c-0.716 1.731-1.111 3.625-1.111 5.609s0.395 3.88 1.112 5.609c0.744 1.796 1.833 3.411 3.185 4.761s2.967 2.44 4.761 3.184c1.729 0.716 3.625 1.111 5.609 1.111 1.66 0 3.257-0.276 4.745-0.784 1.527-0.521 2.936-1.284 4.176-2.241 0.583-0.449 0.691-1.287 0.241-1.871s-1.287-0.691-1.871-0.241c-1.009 0.78-2.16 1.403-3.407 1.828-1.215 0.415-2.521 0.641-3.884 0.641-1.628 0-3.177-0.323-4.589-0.908-1.468-0.608-2.789-1.499-3.897-2.607s-1.999-2.429-2.607-3.896c-0.585-1.409-0.909-2.959-0.909-4.587s0.323-3.176 0.908-4.588c0.608-1.468 1.499-2.789 2.607-3.897s2.429-1.999 3.896-2.607c1.412-0.585 2.961-0.908 4.588-0.908s3.177 0.323 4.589 0.908c1.468 0.608 2.789 1.499 3.897 2.607 1.108 1.107 1.999 2.429 2.607 3.896 0.584 1.411 0.908 2.96 0.908 4.588v1.333c0 0.364-0.072 0.707-0.201 1.020-0.135 0.325-0.333 0.619-0.58 0.867-0.247 0.247-0.541 0.445-0.867 0.58-0.312 0.128-0.655 0.2-1.019 0.2s-0.707-0.072-1.020-0.201c-0.325-0.135-0.619-0.333-0.867-0.58-0.247-0.247-0.445-0.541-0.58-0.867-0.128-0.312-0.2-0.655-0.2-1.019v-6.667c0-0.736-0.597-1.333-1.333-1.333s-1.333 0.597-1.333 1.333c-0.443-0.333-0.929-0.612-1.451-0.828-0.787-0.327-1.649-0.505-2.549-0.505s-1.763 0.179-2.549 0.505c-0.817 0.339-1.551 0.833-2.165 1.447s-1.109 1.348-1.447 2.164c-0.327 0.788-0.505 1.651-0.505 2.551s0.179 1.763 0.505 2.549c0.339 0.817 0.833 1.551 1.447 2.164s1.348 1.109 2.164 1.447c0.788 0.328 1.651 0.507 2.551 0.507s1.763-0.179 2.549-0.505c0.817-0.339 1.551-0.833 2.164-1.447 0.093-0.093 0.185-0.191 0.273-0.289z"></path>
</svg>
