<!-- Generated by IcoMoon.io -->
<svg version="1.1" xmlns="http://www.w3.org/2000/svg" width="32" height="32" viewBox="0 0 32 32">
<title>bell-off</title>
<path d="M17.153 27.331c-0.092 0.159-0.209 0.288-0.343 0.391-0.14 0.107-0.299 0.184-0.468 0.229s-0.347 0.057-0.52 0.033c-0.167-0.023-0.333-0.077-0.491-0.169-0.216-0.125-0.377-0.296-0.479-0.476-0.365-0.64-1.179-0.863-1.819-0.497s-0.863 1.179-0.497 1.819c0.333 0.585 0.831 1.097 1.457 1.461 0.467 0.271 0.968 0.437 1.476 0.505 0.527 0.071 1.056 0.035 1.559-0.1s0.98-0.365 1.403-0.688c0.407-0.311 0.76-0.705 1.031-1.171 0.369-0.637 0.152-1.453-0.484-1.823s-1.453-0.152-1.823 0.484zM25.333 10.663c0.001-1.26-0.248-2.464-0.703-3.564-0.472-1.144-1.164-2.172-2.021-3.033s-1.884-1.556-3.027-2.031c-1.101-0.457-2.307-0.711-3.568-0.712-1.931-0.003-3.732 0.583-5.2 1.573-0.611 0.411-0.772 1.24-0.36 1.851s1.241 0.771 1.852 0.359c1.035-0.699 2.316-1.119 3.704-1.117 0.905 0.001 1.765 0.183 2.548 0.508 0.815 0.339 1.548 0.835 2.163 1.452s1.109 1.352 1.445 2.167c0.321 0.78 0.499 1.635 0.5 2.535-0.056 2.211 0.231 4.635 0.887 7.036 0.195 0.711 0.927 1.129 1.637 0.935s1.129-0.927 0.935-1.637c-0.591-2.165-0.843-4.333-0.792-6.276 0-0.001 0-0.003 0-0.004 0-0.004 0-0.008 0-0.013 0-0.007 0-0.013 0-0.020 0-0.003 0-0.004 0-0.007zM9.328 11.215l10.12 10.119h-12.583c0.119-0.193 0.236-0.4 0.355-0.62 0.517-0.968 1.019-2.193 1.403-3.725 0.397-1.583 0.668-3.485 0.705-5.775zM0.391 2.276l6.475 6.475c-0.141 0.657-0.207 1.312-0.199 1.933 0 2.311-0.259 4.176-0.631 5.656-0.332 1.324-0.755 2.344-1.167 3.115-0.419 0.781-0.829 1.312-1.132 1.645-0.28 0.309-0.471 0.452-0.492 0.467-0.6 0.412-0.76 1.231-0.355 1.839 0.256 0.384 0.675 0.592 1.109 0.595h18.115l7.609 7.609c0.521 0.521 1.365 0.521 1.885 0s0.521-1.365 0-1.885l-29.333-29.333c-0.521-0.521-1.365-0.521-1.885 0-0.52 0.52-0.521 1.364 0 1.885z"></path>
</svg>
