<!-- Generated by IcoMoon.io -->
<svg version="1.1" xmlns="http://www.w3.org/2000/svg" width="32" height="32" viewBox="0 0 32 32">
<title>bluetooth</title>
<path d="M17.333 12.781v-8.229l4.115 4.115zM17.333 19.219l4.115 4.115-4.115 4.115zM7.724 9.609l6.391 6.391-6.391 6.391c-0.521 0.521-0.521 1.365 0 1.885s1.365 0.521 1.885 0l5.057-5.057v11.448c0 0.341 0.131 0.683 0.391 0.943 0.521 0.521 1.365 0.521 1.885 0l7.333-7.333c0.521-0.521 0.521-1.365 0-1.885l-6.391-6.391 6.391-6.391c0.521-0.521 0.521-1.365 0-1.885l-7.333-7.333c-0.241-0.241-0.575-0.391-0.943-0.391-0.736 0-1.333 0.597-1.333 1.333v11.448l-5.057-5.057c-0.521-0.521-1.365-0.521-1.885 0s-0.521 1.365 0 1.885z"></path>
</svg>
