<!-- Generated by IcoMoon.io -->
<svg version="1.1" xmlns="http://www.w3.org/2000/svg" width="32" height="32" viewBox="0 0 32 32">
<title>bold</title>
<path d="M9.333 14.667v-8h9.333c0.544 0 1.060 0.108 1.529 0.303 0.488 0.203 0.929 0.5 1.299 0.869s0.667 0.811 0.869 1.299c0.195 0.469 0.303 0.985 0.303 1.529s-0.108 1.060-0.303 1.529c-0.203 0.488-0.5 0.929-0.869 1.299s-0.811 0.667-1.299 0.869c-0.469 0.195-0.985 0.303-1.529 0.303zM6.667 16v10.667c0 0.736 0.597 1.333 1.333 1.333h12c0.9 0 1.763-0.179 2.549-0.505 0.817-0.339 1.551-0.833 2.164-1.447s1.109-1.348 1.447-2.164c0.328-0.788 0.507-1.651 0.507-2.551s-0.179-1.763-0.505-2.549c-0.339-0.817-0.833-1.551-1.447-2.164-0.433-0.433-0.927-0.808-1.467-1.109 0.045-0.043 0.089-0.085 0.133-0.129 0.613-0.613 1.109-1.348 1.447-2.164 0.327-0.788 0.505-1.651 0.505-2.551s-0.179-1.763-0.505-2.549c-0.339-0.817-0.833-1.551-1.447-2.164s-1.348-1.109-2.164-1.447c-0.788-0.328-1.651-0.507-2.551-0.507h-10.667c-0.736 0-1.333 0.597-1.333 1.333zM9.333 17.333h10.667c0.544 0 1.060 0.108 1.529 0.303 0.488 0.203 0.929 0.5 1.299 0.869s0.667 0.811 0.869 1.299c0.195 0.469 0.303 0.985 0.303 1.529s-0.108 1.060-0.303 1.529c-0.203 0.488-0.5 0.929-0.869 1.299s-0.811 0.667-1.299 0.869c-0.469 0.195-0.985 0.303-1.529 0.303h-10.667z"></path>
</svg>
