<!-- Generated by IcoMoon.io -->
<svg version="1.1" xmlns="http://www.w3.org/2000/svg" width="32" height="32" viewBox="0 0 32 32">
<title>book-open</title>
<path d="M28 5.333v17.333h-8c-0.72 0-1.409 0.144-2.040 0.404-0.216 0.089-0.425 0.193-0.627 0.309v-14.047c0-0.544 0.108-1.060 0.303-1.529 0.203-0.488 0.5-0.929 0.869-1.299s0.811-0.667 1.299-0.869c0.469-0.195 0.985-0.303 1.529-0.303zM14.667 23.38c-0.201-0.116-0.411-0.22-0.627-0.309-0.631-0.26-1.32-0.404-2.040-0.404h-8v-17.333h6.667c0.544 0 1.060 0.108 1.529 0.303 0.488 0.203 0.929 0.5 1.299 0.869s0.667 0.811 0.869 1.299c0.195 0.469 0.303 0.985 0.303 1.529zM29.333 2.667h-8c-0.9 0-1.763 0.179-2.549 0.505-0.817 0.339-1.551 0.833-2.164 1.447-0.224 0.223-0.431 0.461-0.62 0.715-0.189-0.253-0.396-0.492-0.619-0.715-0.613-0.613-1.348-1.109-2.164-1.447-0.788-0.327-1.651-0.505-2.551-0.505h-8c-0.736 0-1.333 0.597-1.333 1.333v20c0 0.736 0.597 1.333 1.333 1.333h9.333c0.364 0 0.707 0.072 1.020 0.201 0.325 0.135 0.619 0.333 0.867 0.58 0.247 0.247 0.445 0.541 0.58 0.867 0.128 0.312 0.2 0.655 0.2 1.019 0 0.736 0.597 1.333 1.333 1.333s1.333-0.597 1.333-1.333c0-0.364 0.072-0.707 0.201-1.020 0.135-0.325 0.333-0.619 0.58-0.867 0.247-0.247 0.541-0.445 0.867-0.58 0.312-0.128 0.655-0.2 1.019-0.2h9.333c0.736 0 1.333-0.597 1.333-1.333v-20c0-0.736-0.597-1.333-1.333-1.333z"></path>
</svg>
