<!-- Generated by IcoMoon.io -->
<svg version="1.1" xmlns="http://www.w3.org/2000/svg" width="32" height="32" viewBox="0 0 32 32">
<title>book</title>
<path d="M8.667 1.333c-0.629 0-1.233 0.125-1.785 0.353-0.572 0.237-1.085 0.584-1.515 1.013s-0.776 0.943-1.013 1.515c-0.228 0.552-0.353 1.156-0.353 1.785v20c0 0.629 0.125 1.233 0.353 1.785 0.237 0.572 0.584 1.085 1.013 1.515s0.943 0.776 1.515 1.013c0.552 0.228 1.156 0.353 1.785 0.353h18c0.736 0 1.333-0.597 1.333-1.333v-26.667c0-0.736-0.597-1.333-1.333-1.333zM25.333 24v4h-16.667c-0.273 0-0.531-0.055-0.764-0.151-0.244-0.101-0.464-0.249-0.649-0.435s-0.333-0.407-0.435-0.649c-0.097-0.235-0.152-0.492-0.152-0.765s0.055-0.531 0.151-0.764c0.101-0.244 0.249-0.464 0.435-0.649s0.407-0.333 0.649-0.435c0.235-0.097 0.492-0.152 0.765-0.152zM8.667 4h16.667v17.333h-16.667c-0.629 0-1.233 0.125-1.785 0.353-0.072 0.031-0.144 0.063-0.215 0.096v-15.783c0-0.273 0.055-0.531 0.151-0.764 0.101-0.244 0.249-0.465 0.435-0.651s0.407-0.333 0.649-0.435c0.235-0.096 0.492-0.151 0.765-0.151z"></path>
</svg>
