<!-- Generated by IcoMoon.io -->
<svg version="1.1" xmlns="http://www.w3.org/2000/svg" width="32" height="32" viewBox="0 0 32 32">
<title>camera</title>
<path d="M32 25.333v-14.667c0-0.54-0.108-1.057-0.304-1.531-0.203-0.491-0.5-0.931-0.868-1.299s-0.808-0.665-1.299-0.868c-0.472-0.195-0.989-0.303-1.529-0.303h-4.62l-2.271-3.407c-0.243-0.36-0.648-0.593-1.109-0.593h-8c-0.435 0.003-0.853 0.211-1.109 0.593l-2.271 3.407h-4.62c-0.54 0-1.057 0.108-1.531 0.304-0.489 0.203-0.929 0.5-1.297 0.868s-0.665 0.808-0.868 1.297c-0.196 0.473-0.304 0.991-0.304 1.531v14.667c0 0.54 0.108 1.057 0.304 1.531 0.203 0.491 0.5 0.931 0.868 1.299s0.808 0.665 1.299 0.868c0.472 0.195 0.989 0.303 1.529 0.303h24c0.54 0 1.057-0.108 1.531-0.304 0.491-0.203 0.931-0.5 1.299-0.868s0.665-0.808 0.868-1.299c0.195-0.472 0.303-0.989 0.303-1.529zM29.333 25.333c0 0.183-0.036 0.355-0.1 0.509-0.067 0.163-0.167 0.309-0.291 0.433s-0.271 0.223-0.433 0.291c-0.155 0.064-0.327 0.1-0.509 0.1h-24c-0.183 0-0.355-0.036-0.509-0.1-0.163-0.067-0.309-0.167-0.433-0.291s-0.223-0.271-0.291-0.433c-0.064-0.155-0.1-0.327-0.1-0.509v-14.667c0-0.183 0.036-0.355 0.1-0.509 0.067-0.163 0.167-0.309 0.291-0.433s0.271-0.223 0.433-0.291c0.155-0.064 0.327-0.1 0.509-0.1h5.333c0.461 0 0.867-0.233 1.109-0.593l2.271-3.407h6.573l2.271 3.407c0.256 0.383 0.675 0.591 1.109 0.593h5.333c0.183 0 0.355 0.036 0.509 0.1 0.163 0.067 0.309 0.167 0.433 0.291s0.223 0.271 0.291 0.433c0.064 0.155 0.1 0.327 0.1 0.509zM22.667 17.333c0-0.9-0.179-1.763-0.505-2.549-0.339-0.817-0.833-1.551-1.447-2.164s-1.348-1.109-2.164-1.447c-0.788-0.328-1.651-0.507-2.551-0.507s-1.763 0.179-2.549 0.505c-0.817 0.339-1.551 0.833-2.165 1.447s-1.109 1.348-1.447 2.164c-0.327 0.788-0.505 1.651-0.505 2.551s0.179 1.763 0.505 2.549c0.339 0.817 0.833 1.551 1.447 2.164s1.348 1.109 2.164 1.447c0.788 0.328 1.651 0.507 2.551 0.507s1.763-0.179 2.549-0.505c0.817-0.339 1.551-0.833 2.164-1.447s1.109-1.348 1.447-2.164c0.328-0.788 0.507-1.651 0.507-2.551zM20 17.333c0 0.544-0.108 1.060-0.303 1.529-0.203 0.488-0.5 0.929-0.869 1.299s-0.811 0.667-1.299 0.869c-0.469 0.195-0.985 0.303-1.529 0.303s-1.060-0.108-1.529-0.303c-0.488-0.203-0.929-0.5-1.299-0.869s-0.667-0.811-0.869-1.299c-0.195-0.469-0.303-0.985-0.303-1.529s0.108-1.060 0.303-1.529c0.203-0.488 0.5-0.929 0.869-1.299s0.811-0.667 1.299-0.869c0.469-0.195 0.985-0.303 1.529-0.303s1.060 0.108 1.529 0.303c0.488 0.203 0.929 0.5 1.299 0.869s0.667 0.811 0.869 1.299c0.195 0.469 0.303 0.985 0.303 1.529z"></path>
</svg>
