<!-- Generated by IcoMoon.io -->
<svg version="1.1" xmlns="http://www.w3.org/2000/svg" width="32" height="32" viewBox="0 0 32 32">
<title>camera-off</title>
<path d="M12 5.333h7.287l2.271 3.407c0.256 0.383 0.675 0.591 1.109 0.593h5.333c0.183 0 0.355 0.036 0.509 0.1 0.163 0.067 0.309 0.167 0.433 0.291s0.223 0.271 0.291 0.433c0.064 0.155 0.1 0.327 0.1 0.509v12.453c0 0.736 0.597 1.333 1.333 1.333s1.333-0.597 1.333-1.333v-12.453c0-0.54-0.108-1.057-0.304-1.531-0.203-0.491-0.5-0.931-0.868-1.299s-0.808-0.665-1.299-0.868c-0.472-0.195-0.989-0.303-1.529-0.303h-4.62l-2.271-3.407c-0.243-0.36-0.648-0.593-1.109-0.593h-8c-0.736 0-1.333 0.597-1.333 1.333s0.597 1.333 1.333 1.333zM11.016 12.901c-0.195 0.217-0.377 0.449-0.545 0.696-0.508 0.743-0.848 1.556-1.023 2.389-0.183 0.865-0.188 1.751-0.028 2.604s0.485 1.676 0.969 2.416c0.465 0.713 1.076 1.348 1.819 1.857 0.743 0.508 1.556 0.848 2.389 1.023 0.865 0.183 1.751 0.188 2.604 0.028s1.676-0.485 2.416-0.969c0.285-0.187 0.559-0.396 0.816-0.628l4.348 4.349h-20.781c-0.183 0-0.355-0.036-0.509-0.1-0.163-0.067-0.309-0.167-0.433-0.291s-0.223-0.271-0.291-0.433c-0.064-0.155-0.1-0.327-0.1-0.509v-14.667c0-0.183 0.036-0.355 0.1-0.509 0.067-0.163 0.167-0.309 0.291-0.433s0.271-0.223 0.433-0.291c0.155-0.064 0.327-0.1 0.509-0.1h3.448zM13.884 11.997l-11.608-11.607c-0.521-0.521-1.365-0.521-1.885 0-0.52 0.52-0.521 1.364 0 1.885l4.391 4.391h-0.781c-0.54 0-1.057 0.108-1.531 0.304-0.489 0.203-0.929 0.5-1.297 0.868s-0.665 0.808-0.868 1.297c-0.196 0.473-0.304 0.991-0.304 1.531v14.667c0 0.54 0.108 1.057 0.304 1.531 0.203 0.491 0.5 0.931 0.868 1.299s0.808 0.665 1.299 0.868c0.472 0.195 0.989 0.303 1.529 0.303h23.448l2.276 2.276c0.521 0.521 1.365 0.521 1.885 0s0.521-1.365 0-1.885l-17.689-17.689zM18.543 20.428c-0.123 0.103-0.251 0.197-0.383 0.284-0.443 0.289-0.937 0.485-1.451 0.581s-1.045 0.092-1.563-0.016c-0.497-0.104-0.984-0.307-1.433-0.615s-0.813-0.688-1.092-1.113c-0.288-0.443-0.485-0.937-0.581-1.451s-0.092-1.045 0.016-1.563c0.104-0.497 0.307-0.984 0.615-1.433 0.075-0.109 0.153-0.213 0.235-0.311z"></path>
</svg>
