<!-- Generated by IcoMoon.io -->
<svg version="1.1" xmlns="http://www.w3.org/2000/svg" width="32" height="32" viewBox="0 0 32 32">
<title>cast</title>
<path d="M2.4 22.773c0.617 0.125 1.184 0.352 1.691 0.659 0.523 0.316 0.984 0.72 1.365 1.189 0.54 0.663 0.924 1.457 1.105 2.32 0.152 0.72 0.859 1.181 1.58 1.029s1.181-0.859 1.029-1.58c-0.269-1.28-0.839-2.463-1.647-3.453-0.572-0.703-1.264-1.309-2.053-1.787-0.764-0.463-1.617-0.803-2.537-0.991-0.721-0.147-1.425 0.319-1.573 1.040s0.319 1.425 1.040 1.573zM2.519 17.392c1.313 0.147 2.541 0.524 3.651 1.088 1.147 0.584 2.168 1.369 3.025 2.307 1.492 1.635 2.479 3.732 2.748 6.035 0.085 0.732 0.748 1.255 1.479 1.169s1.255-0.748 1.169-1.479c-0.335-2.867-1.565-5.483-3.427-7.523-1.069-1.171-2.347-2.153-3.784-2.885-1.391-0.708-2.929-1.18-4.565-1.363-0.732-0.081-1.391 0.445-1.472 1.177s0.445 1.391 1.177 1.472zM4 10.667v-2.667c0-0.183 0.036-0.355 0.1-0.509 0.067-0.163 0.167-0.309 0.291-0.433s0.271-0.223 0.433-0.291c0.155-0.064 0.327-0.1 0.509-0.1h21.333c0.183 0 0.355 0.036 0.509 0.1 0.163 0.067 0.309 0.167 0.433 0.291s0.223 0.271 0.291 0.433c0.064 0.155 0.1 0.327 0.1 0.509v16c0 0.183-0.036 0.355-0.1 0.509-0.067 0.163-0.167 0.309-0.291 0.433s-0.271 0.223-0.433 0.291c-0.155 0.064-0.327 0.1-0.509 0.1h-8c-0.736 0-1.333 0.597-1.333 1.333s0.597 1.333 1.333 1.333h8c0.54 0 1.057-0.108 1.531-0.304 0.491-0.203 0.931-0.5 1.299-0.868s0.665-0.808 0.868-1.299c0.195-0.472 0.303-0.989 0.303-1.529v-16c0-0.54-0.108-1.057-0.304-1.531-0.203-0.491-0.5-0.931-0.868-1.299s-0.808-0.665-1.299-0.868c-0.472-0.195-0.989-0.303-1.529-0.303h-21.333c-0.54 0-1.057 0.108-1.531 0.304-0.489 0.203-0.929 0.5-1.297 0.868s-0.665 0.808-0.868 1.297c-0.196 0.473-0.304 0.991-0.304 1.531v2.667c0 0.736 0.597 1.333 1.333 1.333s1.333-0.597 1.333-1.333zM4 26.667c0-0.736-0.597-1.333-1.333-1.333s-1.333 0.597-1.333 1.333 0.597 1.333 1.333 1.333 1.333-0.597 1.333-1.333z"></path>
</svg>
