<!-- Generated by IcoMoon.io -->
<svg version="1.1" xmlns="http://www.w3.org/2000/svg" width="32" height="32" viewBox="0 0 32 32">
<title>check-circle</title>
<path d="M28 14.773v1.227c-0.001 1.627-0.325 3.176-0.911 4.588-0.608 1.467-1.501 2.788-2.609 3.895s-2.431 1.997-3.899 2.604c-1.412 0.584-2.961 0.907-4.589 0.905s-3.176-0.325-4.588-0.911c-1.467-0.608-2.788-1.501-3.895-2.609s-1.997-2.431-2.604-3.899c-0.584-1.411-0.907-2.96-0.905-4.588s0.325-3.176 0.911-4.588c0.608-1.467 1.501-2.788 2.609-3.895s2.431-1.997 3.899-2.604c1.412-0.584 2.961-0.907 4.589-0.905 1.773 0.001 3.448 0.385 4.865 1.033 0.669 0.307 1.461 0.011 1.767-0.659s0.011-1.461-0.659-1.767c-1.769-0.808-3.821-1.273-5.972-1.275-1.984-0.001-3.88 0.392-5.609 1.108-1.797 0.741-3.413 1.831-4.765 3.181s-2.443 2.964-3.187 4.76c-0.717 1.729-1.113 3.624-1.115 5.608s0.392 3.88 1.108 5.609c0.743 1.796 1.832 3.412 3.181 4.764s2.964 2.443 4.76 3.187c1.729 0.717 3.624 1.113 5.608 1.115s3.88-0.392 5.609-1.108c1.796-0.743 3.412-1.832 4.764-3.181 1.352-1.351 2.443-2.964 3.187-4.76 0.719-1.729 1.115-3.624 1.116-5.609v-1.227c0-0.736-0.597-1.333-1.333-1.333s-1.333 0.597-1.333 1.333zM28.391 4.391l-12.391 12.403-3.057-3.056c-0.521-0.521-1.365-0.521-1.885 0s-0.521 1.365 0 1.885l4 4c0.521 0.521 1.365 0.52 1.887 0l13.333-13.347c0.52-0.521 0.52-1.365-0.001-1.885s-1.365-0.52-1.885 0.001z"></path>
</svg>
