<!-- Generated by IcoMoon.io -->
<svg version="1.1" xmlns="http://www.w3.org/2000/svg" width="32" height="32" viewBox="0 0 32 32">
<title>chevrons-right</title>
<path d="M18.276 23.609l6.667-6.667c0.521-0.521 0.521-1.365 0-1.885l-6.667-6.667c-0.521-0.521-1.365-0.521-1.885 0s-0.521 1.365 0 1.885l5.724 5.724-5.724 5.724c-0.521 0.521-0.521 1.365 0 1.885s1.365 0.521 1.885 0zM8.943 23.609l6.667-6.667c0.521-0.521 0.521-1.365 0-1.885l-6.667-6.667c-0.521-0.521-1.365-0.521-1.885 0s-0.521 1.365 0 1.885l5.724 5.724-5.724 5.724c-0.521 0.521-0.521 1.365 0 1.885s1.365 0.521 1.885 0z"></path>
</svg>
