<!-- Generated by IcoMoon.io -->
<svg version="1.1" xmlns="http://www.w3.org/2000/svg" width="32" height="32" viewBox="0 0 32 32">
<title>chrome</title>
<path d="M9.869 13.377l-2.992-5.175c0.203-0.237 0.416-0.467 0.637-0.688 1.108-1.108 2.429-1.999 3.896-2.607 1.412-0.584 2.961-0.908 4.589-0.908s3.177 0.324 4.589 0.908c1.468 0.608 2.789 1.499 3.896 2.607 0.555 0.555 1.056 1.164 1.495 1.819h-9.98c-0.9 0-1.763 0.179-2.549 0.505-0.817 0.339-1.551 0.833-2.164 1.447-0.596 0.596-1.080 1.304-1.417 2.092zM14.265 30.565c0.061 0.012 0.124 0.019 0.187 0.021 0.509 0.052 1.025 0.080 1.548 0.080 1.984 0 3.88-0.395 5.609-1.111 1.796-0.744 3.411-1.833 4.761-3.184s2.441-2.965 3.184-4.761c0.717-1.731 1.112-3.627 1.112-5.611s-0.395-3.88-1.111-5.609c-0.024-0.057-0.048-0.115-0.072-0.172-0.021-0.057-0.045-0.115-0.073-0.168-0.737-1.66-1.773-3.156-3.039-4.421-1.351-1.351-2.965-2.441-4.761-3.184-1.731-0.717-3.627-1.112-5.611-1.112s-3.88 0.395-5.609 1.111c-1.796 0.744-3.411 1.833-4.761 3.185-0.488 0.488-0.941 1.009-1.357 1.561-0.055 0.063-0.104 0.128-0.147 0.199-0.671 0.924-1.237 1.931-1.681 3.001-0.716 1.729-1.111 3.625-1.111 5.609s0.395 3.88 1.111 5.609c0.744 1.796 1.833 3.411 3.184 4.761s2.965 2.441 4.761 3.184c1.219 0.504 2.519 0.849 3.875 1.009zM16.793 22.62l-2.988 5.18c-0.832-0.153-1.633-0.393-2.395-0.708-1.468-0.608-2.789-1.499-3.896-2.607-1.108-1.108-1.999-2.429-2.607-3.896-0.584-1.412-0.908-2.961-0.908-4.589s0.324-3.177 0.908-4.589c0.101-0.244 0.211-0.485 0.327-0.721l4.859 8.404c0.315 0.601 0.719 1.147 1.193 1.621 0.613 0.613 1.348 1.109 2.164 1.447 0.787 0.327 1.649 0.505 2.549 0.505 0.268 0 0.533-0.016 0.793-0.047zM19.516 17.908c-0.020 0.029-0.040 0.060-0.059 0.092l-0.101 0.175c-0.153 0.236-0.331 0.455-0.529 0.653-0.369 0.369-0.811 0.667-1.299 0.869-0.468 0.195-0.984 0.303-1.528 0.303s-1.060-0.108-1.529-0.303c-0.488-0.203-0.929-0.5-1.299-0.869-0.221-0.221-0.417-0.468-0.581-0.736-0.015-0.032-0.032-0.063-0.049-0.093l-0.108-0.188c-0.047-0.092-0.091-0.187-0.131-0.283-0.195-0.468-0.303-0.984-0.303-1.528s0.108-1.060 0.303-1.529c0.203-0.488 0.5-0.929 0.869-1.299s0.811-0.667 1.299-0.869c0.469-0.195 0.985-0.303 1.529-0.303s1.060 0.108 1.529 0.303c0.488 0.203 0.929 0.5 1.299 0.869s0.667 0.811 0.869 1.299c0.195 0.469 0.303 0.985 0.303 1.529s-0.108 1.060-0.303 1.529c-0.053 0.129-0.115 0.256-0.181 0.379zM16.784 27.975l4.853-8.413c0.203-0.32 0.379-0.657 0.525-1.012 0.325-0.787 0.504-1.649 0.504-2.549s-0.179-1.763-0.505-2.549c-0.216-0.521-0.495-1.008-0.828-1.451h5.984c0.441 1.249 0.683 2.596 0.683 4 0 1.628-0.324 3.177-0.908 4.589-0.608 1.468-1.499 2.789-2.607 3.896s-2.429 1.999-3.896 2.607c-1.184 0.491-2.464 0.797-3.805 0.883z"></path>
</svg>
