<!-- Generated by IcoMoon.io -->
<svg version="1.1" xmlns="http://www.w3.org/2000/svg" width="32" height="32" viewBox="0 0 32 32">
<title>cloud-off</title>
<path d="M31.375 23.12c0.421-0.996 0.627-2.032 0.635-3.053 0.008-1.061-0.196-2.103-0.587-3.069-0.391-0.965-0.971-1.856-1.715-2.612-0.717-0.728-1.585-1.329-2.581-1.752-1.033-0.437-2.116-0.644-3.141-0.633h-0.675c-0.348-1-0.82-1.931-1.396-2.777-0.788-1.16-1.768-2.16-2.885-2.968-1.731-1.251-3.792-2.041-5.983-2.249-0.733-0.069-1.384 0.468-1.453 1.201s0.468 1.384 1.201 1.453c1.715 0.163 3.324 0.781 4.673 1.756 0.871 0.629 1.631 1.407 2.243 2.305 0.591 0.871 1.044 1.857 1.319 2.94 0.149 0.583 0.671 1.005 1.291 1.005h1.695c0.653-0.007 1.373 0.125 2.073 0.423 0.668 0.283 1.245 0.684 1.72 1.167 0.495 0.503 0.881 1.096 1.143 1.743s0.397 1.341 0.392 2.047c-0.005 0.679-0.141 1.368-0.424 2.035-0.287 0.679 0.029 1.46 0.708 1.748s1.46-0.029 1.748-0.708zM6.472 8.357l16.976 16.976h-11.461c-1.28 0.013-2.539-0.229-3.7-0.703-0.971-0.396-1.873-0.952-2.667-1.657-0.767-0.681-1.433-1.503-1.96-2.456-0.613-1.108-0.976-2.284-1.109-3.465-0.139-1.227-0.029-2.463 0.308-3.633s0.901-2.275 1.672-3.24c0.545-0.684 1.195-1.3 1.941-1.821zM0.391 2.276l4.172 4.173c-0.801 0.608-1.509 1.304-2.117 2.067-0.992 1.244-1.716 2.663-2.149 4.165s-0.573 3.089-0.395 4.671c0.172 1.523 0.64 3.036 1.425 4.456 0.675 1.22 1.532 2.279 2.523 3.159 1.023 0.909 2.185 1.625 3.431 2.133 1.491 0.607 3.1 0.916 4.733 0.9h11.987c0.652-0.001 1.289-0.080 1.889-0.225l3.835 3.835c0.521 0.521 1.365 0.521 1.885 0s0.521-1.365 0-1.885l-29.333-29.333c-0.521-0.521-1.365-0.521-1.885 0-0.52 0.52-0.521 1.364 0 1.885z"></path>
</svg>
