<!-- Generated by IcoMoon.io -->
<svg version="1.1" xmlns="http://www.w3.org/2000/svg" width="32" height="32" viewBox="0 0 32 32">
<title>cloud-drizzle</title>
<path d="M9.333 25.333v2.667c0 0.736 0.597 1.333 1.333 1.333s1.333-0.597 1.333-1.333v-2.667c0-0.736-0.597-1.333-1.333-1.333s-1.333 0.597-1.333 1.333zM9.333 17.333v2.667c0 0.736 0.597 1.333 1.333 1.333s1.333-0.597 1.333-1.333v-2.667c0-0.736-0.597-1.333-1.333-1.333s-1.333 0.597-1.333 1.333zM20 25.333v2.667c0 0.736 0.597 1.333 1.333 1.333s1.333-0.597 1.333-1.333v-2.667c0-0.736-0.597-1.333-1.333-1.333s-1.333 0.597-1.333 1.333zM20 17.333v2.667c0 0.736 0.597 1.333 1.333 1.333s1.333-0.597 1.333-1.333v-2.667c0-0.736-0.597-1.333-1.333-1.333s-1.333 0.597-1.333 1.333zM14.667 28v2.667c0 0.736 0.597 1.333 1.333 1.333s1.333-0.597 1.333-1.333v-2.667c0-0.736-0.597-1.333-1.333-1.333s-1.333 0.597-1.333 1.333zM14.667 20v2.667c0 0.736 0.597 1.333 1.333 1.333s1.333-0.597 1.333-1.333v-2.667c0-0.736-0.597-1.333-1.333-1.333s-1.333 0.597-1.333 1.333zM27.201 23.328c0.991-0.433 1.852-1.045 2.56-1.783 0.735-0.765 1.303-1.663 1.683-2.633s0.571-2.015 0.549-3.076c-0.020-1.021-0.239-2.056-0.672-3.045-0.376-0.859-0.887-1.62-1.497-2.269-0.631-0.671-1.368-1.219-2.172-1.631-1.115-0.571-2.36-0.88-3.64-0.891h-0.705c-0.415-1.179-1.001-2.257-1.723-3.216-0.957-1.271-2.151-2.327-3.497-3.121s-2.848-1.327-4.424-1.548c-1.517-0.213-3.1-0.139-4.671 0.267s-2.992 1.107-4.216 2.028c-1.271 0.957-2.328 2.151-3.121 3.497s-1.327 2.848-1.548 4.423c-0.213 1.517-0.139 3.1 0.267 4.671 0.335 1.296 0.869 2.489 1.561 3.552 0.709 1.089 1.581 2.041 2.571 2.825 0.577 0.457 1.416 0.36 1.873-0.217s0.36-1.416-0.217-1.873c-0.764-0.605-1.441-1.343-1.992-2.189-0.536-0.824-0.953-1.753-1.215-2.765-0.317-1.227-0.375-2.456-0.208-3.632 0.172-1.223 0.587-2.392 1.205-3.441s1.441-1.977 2.428-2.721c0.949-0.712 2.052-1.257 3.279-1.573s2.456-0.375 3.632-0.208c1.223 0.172 2.392 0.587 3.441 1.205s1.977 1.441 2.721 2.428c0.715 0.949 1.26 2.052 1.576 3.279 0.153 0.579 0.673 0.999 1.291 0.999h1.669c0.863 0.007 1.7 0.216 2.445 0.597 0.537 0.276 1.028 0.64 1.445 1.085 0.405 0.429 0.744 0.936 0.996 1.512 0.291 0.664 0.435 1.352 0.448 2.029 0.015 0.705-0.113 1.403-0.367 2.052s-0.633 1.248-1.121 1.756c-0.469 0.489-1.043 0.897-1.707 1.188-0.675 0.296-0.981 1.081-0.687 1.756s1.081 0.981 1.756 0.687z"></path>
</svg>
