<!-- Generated by IcoMoon.io -->
<svg version="1.1" xmlns="http://www.w3.org/2000/svg" width="32" height="32" viewBox="0 0 32 32">
<title>cloud-lightning</title>
<path d="M25.599 23.84c1.060-0.215 2.031-0.632 2.877-1.203 0.88-0.593 1.624-1.351 2.2-2.219 0.575-0.868 0.983-1.849 1.185-2.891 0.196-1.003 0.2-2.060-0.015-3.119-0.197-0.975-0.567-1.876-1.071-2.675-0.521-0.825-1.185-1.54-1.952-2.116-0.685-0.516-1.453-0.921-2.273-1.197-0.807-0.271-1.664-0.417-2.545-0.421h-0.699c-0.415-1.179-1.001-2.257-1.724-3.216-0.957-1.271-2.151-2.327-3.497-3.12s-2.849-1.327-4.424-1.548c-1.517-0.213-3.1-0.139-4.671 0.268s-2.992 1.107-4.216 2.028c-1.271 0.955-2.327 2.148-3.12 3.495s-1.327 2.849-1.548 4.424c-0.213 1.517-0.139 3.1 0.268 4.671 0.391 1.511 1.052 2.881 1.923 4.073 0.903 1.237 2.028 2.277 3.301 3.080 0.191 0.12 0.385 0.235 0.583 0.344 0.644 0.357 1.456 0.124 1.813-0.52s0.124-1.456-0.52-1.812c-0.153-0.085-0.305-0.175-0.453-0.268-0.993-0.625-1.868-1.436-2.569-2.396-0.675-0.924-1.189-1.989-1.495-3.168-0.319-1.227-0.376-2.455-0.211-3.632 0.172-1.223 0.587-2.392 1.205-3.441s1.441-1.977 2.428-2.721c0.949-0.715 2.052-1.26 3.279-1.576s2.456-0.375 3.632-0.209c1.223 0.172 2.392 0.587 3.441 1.205s1.977 1.441 2.721 2.428c0.715 0.949 1.26 2.052 1.576 3.279 0.153 0.58 0.673 1 1.291 1h1.675c0.592 0.003 1.167 0.101 1.705 0.283 0.549 0.185 1.063 0.456 1.521 0.8 0.512 0.385 0.953 0.86 1.299 1.408 0.333 0.529 0.58 1.127 0.712 1.781 0.144 0.711 0.14 1.413 0.011 2.079-0.135 0.692-0.407 1.347-0.791 1.928s-0.881 1.087-1.467 1.48c-0.563 0.379-1.208 0.657-1.919 0.801-0.721 0.147-1.188 0.851-1.041 1.572s0.851 1.188 1.572 1.041zM16.224 13.927l-5.333 8c-0.408 0.613-0.243 1.44 0.369 1.849 0.229 0.153 0.489 0.225 0.74 0.224h5.508l-3.952 5.927c-0.408 0.613-0.243 1.44 0.369 1.849s1.44 0.243 1.849-0.369l5.333-8c0.141-0.208 0.225-0.464 0.225-0.74 0-0.736-0.597-1.333-1.333-1.333h-5.508l3.952-5.927c0.408-0.613 0.243-1.44-0.369-1.849s-1.44-0.243-1.849 0.369z"></path>
</svg>
