<!-- Generated by IcoMoon.io -->
<svg version="1.1" xmlns="http://www.w3.org/2000/svg" width="32" height="32" viewBox="0 0 32 32">
<title>cloud</title>
<path d="M24 14.667c0.725 0 1.413 0.144 2.039 0.404 0.652 0.269 1.239 0.667 1.732 1.159s0.889 1.080 1.159 1.732c0.26 0.625 0.404 1.313 0.404 2.039s-0.144 1.413-0.404 2.039c-0.269 0.652-0.667 1.239-1.159 1.732s-1.080 0.889-1.732 1.159c-0.625 0.26-1.313 0.404-2.039 0.404h-11.993c-1.949-0.011-3.804-0.615-5.34-1.676-0.905-0.627-1.699-1.411-2.336-2.324-0.616-0.884-1.089-1.891-1.376-3-0.316-1.227-0.375-2.456-0.208-3.632 0.172-1.223 0.587-2.392 1.205-3.441s1.441-1.977 2.428-2.721c0.949-0.715 2.052-1.259 3.279-1.576s2.456-0.375 3.632-0.208c1.223 0.172 2.392 0.587 3.441 1.205s1.977 1.441 2.721 2.428c0.715 0.949 1.26 2.052 1.576 3.279 0.153 0.58 0.673 1 1.291 1zM24 12h-0.693c-0.415-1.179-1.001-2.257-1.723-3.216-0.957-1.271-2.151-2.327-3.497-3.121s-2.848-1.327-4.424-1.549c-1.517-0.213-3.1-0.139-4.671 0.267s-2.992 1.107-4.216 2.029c-1.271 0.956-2.327 2.149-3.121 3.496s-1.327 2.849-1.548 4.424c-0.213 1.517-0.139 3.1 0.267 4.671 0.367 1.42 0.975 2.719 1.771 3.86 0.823 1.179 1.844 2.188 3.007 2.991 1.971 1.363 4.348 2.136 6.843 2.149h12.007c1.081 0 2.116-0.215 3.060-0.607 0.98-0.405 1.86-1 2.597-1.737s1.331-1.617 1.737-2.597c0.391-0.943 0.605-1.977 0.605-3.059s-0.215-2.116-0.607-3.060c-0.405-0.98-1-1.86-1.737-2.597s-1.617-1.331-2.597-1.737c-0.943-0.391-1.977-0.605-3.059-0.605z"></path>
</svg>
