<!-- Generated by IcoMoon.io -->
<svg version="1.1" xmlns="http://www.w3.org/2000/svg" width="32" height="32" viewBox="0 0 32 32">
<title>code</title>
<path d="M22.276 24.943l8-8c0.521-0.521 0.521-1.365 0-1.885l-8-8c-0.521-0.521-1.365-0.521-1.885 0s-0.521 1.365 0 1.885l7.057 7.057-7.057 7.057c-0.521 0.521-0.521 1.365 0 1.885s1.365 0.521 1.885 0zM9.724 7.057l-8 8c-0.521 0.521-0.521 1.365 0 1.885l8 8c0.521 0.521 1.365 0.521 1.885 0s0.521-1.365 0-1.885l-7.057-7.057 7.057-7.057c0.521-0.521 0.521-1.365 0-1.885s-1.365-0.521-1.885 0z"></path>
</svg>
