<!-- Generated by IcoMoon.io -->
<svg version="1.1" xmlns="http://www.w3.org/2000/svg" width="32" height="32" viewBox="0 0 32 32">
<title>coffee</title>
<path d="M25.333 20v-8c0.544 0 1.060 0.108 1.529 0.303 0.488 0.203 0.929 0.5 1.299 0.869s0.667 0.811 0.869 1.299c0.195 0.469 0.303 0.985 0.303 1.529s-0.108 1.060-0.303 1.529c-0.203 0.488-0.5 0.929-0.869 1.299s-0.811 0.667-1.299 0.869c-0.469 0.195-0.985 0.303-1.529 0.303zM2.667 9.333c-0.736 0-1.333 0.597-1.333 1.333v12c0 0.9 0.179 1.763 0.505 2.549 0.339 0.817 0.833 1.551 1.447 2.164s1.348 1.109 2.164 1.447c0.788 0.328 1.651 0.507 2.551 0.507h10.667c0.9 0 1.763-0.179 2.549-0.505 0.817-0.339 1.551-0.833 2.164-1.447s1.109-1.348 1.447-2.164c0.328-0.788 0.507-1.651 0.507-2.551 0.9 0 1.763-0.179 2.549-0.505 0.817-0.339 1.551-0.833 2.164-1.447s1.109-1.348 1.447-2.164c0.328-0.788 0.507-1.651 0.507-2.551s-0.179-1.763-0.505-2.549c-0.339-0.817-0.833-1.551-1.447-2.164s-1.348-1.109-2.164-1.447c-0.788-0.328-1.651-0.507-2.551-0.507h-1.333zM4 12h18.667v10.667c0 0.544-0.108 1.060-0.303 1.529-0.203 0.488-0.5 0.929-0.869 1.299s-0.811 0.667-1.299 0.869c-0.469 0.195-0.985 0.303-1.529 0.303h-10.667c-0.544 0-1.060-0.108-1.529-0.303-0.488-0.203-0.929-0.5-1.299-0.869s-0.667-0.811-0.869-1.299c-0.195-0.469-0.303-0.985-0.303-1.529zM6.667 1.333v4c0 0.736 0.597 1.333 1.333 1.333s1.333-0.597 1.333-1.333v-4c0-0.736-0.597-1.333-1.333-1.333s-1.333 0.597-1.333 1.333zM12 1.333v4c0 0.736 0.597 1.333 1.333 1.333s1.333-0.597 1.333-1.333v-4c0-0.736-0.597-1.333-1.333-1.333s-1.333 0.597-1.333 1.333zM17.333 1.333v4c0 0.736 0.597 1.333 1.333 1.333s1.333-0.597 1.333-1.333v-4c0-0.736-0.597-1.333-1.333-1.333s-1.333 0.597-1.333 1.333z"></path>
</svg>
