<!-- Generated by IcoMoon.io -->
<svg version="1.1" xmlns="http://www.w3.org/2000/svg" width="32" height="32" viewBox="0 0 32 32">
<title>corner-right-down</title>
<path d="M5.333 6.667h9.333c0.544 0 1.060 0.108 1.529 0.303 0.488 0.203 0.929 0.5 1.299 0.869s0.667 0.811 0.869 1.299c0.195 0.469 0.303 0.985 0.303 1.529v12.781l-4.391-4.391c-0.521-0.521-1.365-0.521-1.885 0s-0.521 1.365 0 1.885l6.667 6.667c0.128 0.128 0.276 0.224 0.433 0.289 0.16 0.065 0.329 0.1 0.499 0.101 0.177 0.001 0.355-0.032 0.52-0.101 0.157-0.065 0.305-0.161 0.433-0.289l6.667-6.667c0.521-0.521 0.521-1.365 0-1.885s-1.365-0.521-1.885 0l-4.391 4.391v-12.781c0-0.9-0.179-1.763-0.505-2.549-0.339-0.817-0.833-1.551-1.447-2.164s-1.348-1.109-2.164-1.447c-0.788-0.328-1.651-0.507-2.551-0.507h-9.333c-0.736 0-1.333 0.597-1.333 1.333s0.597 1.333 1.333 1.333z"></path>
</svg>
