<!-- Generated by IcoMoon.io -->
<svg version="1.1" xmlns="http://www.w3.org/2000/svg" width="32" height="32" viewBox="0 0 32 32">
<title>corner-down-left</title>
<path d="M25.333 5.333v9.333c0 0.544-0.108 1.060-0.303 1.529-0.203 0.488-0.5 0.929-0.869 1.299s-0.811 0.667-1.299 0.869c-0.469 0.195-0.985 0.303-1.529 0.303h-12.781l4.391-4.391c0.521-0.521 0.521-1.365 0-1.885s-1.365-0.521-1.885 0l-6.667 6.667c-0.001 0.001-0.003 0.004-0.005 0.005-0.125 0.127-0.22 0.272-0.284 0.427-0.135 0.327-0.135 0.695 0 1.021 0.064 0.155 0.159 0.3 0.284 0.427 0.001 0.001 0.003 0.004 0.005 0.005l6.667 6.667c0.521 0.521 1.365 0.521 1.885 0s0.521-1.365 0-1.885l-4.391-4.391h12.781c0.9 0 1.763-0.179 2.549-0.505 0.817-0.339 1.551-0.833 2.164-1.447s1.109-1.348 1.447-2.164c0.328-0.788 0.507-1.651 0.507-2.551v-9.333c0-0.736-0.597-1.333-1.333-1.333s-1.333 0.597-1.333 1.333z"></path>
</svg>
