<!-- Generated by IcoMoon.io -->
<svg version="1.1" xmlns="http://www.w3.org/2000/svg" width="32" height="32" viewBox="0 0 32 32">
<title>corner-up-right</title>
<path d="M6.667 26.667v-9.333c0-0.544 0.108-1.060 0.303-1.529 0.203-0.488 0.5-0.929 0.869-1.299s0.811-0.667 1.299-0.869c0.469-0.195 0.985-0.303 1.529-0.303h12.781l-4.391 4.391c-0.521 0.521-0.521 1.365 0 1.885s1.365 0.521 1.885 0l6.667-6.667c0.128-0.128 0.224-0.276 0.289-0.433 0.065-0.16 0.1-0.329 0.101-0.499 0.001-0.177-0.032-0.355-0.101-0.52-0.065-0.157-0.161-0.305-0.289-0.433l-6.667-6.667c-0.521-0.521-1.365-0.521-1.885 0s-0.521 1.365 0 1.885l4.391 4.391h-12.781c-0.9 0-1.763 0.179-2.549 0.505-0.817 0.339-1.551 0.833-2.165 1.447s-1.109 1.348-1.447 2.164c-0.327 0.788-0.505 1.651-0.505 2.551v9.333c0 0.736 0.597 1.333 1.333 1.333s1.333-0.597 1.333-1.333z"></path>
</svg>
