<!-- Generated by IcoMoon.io -->
<svg version="1.1" xmlns="http://www.w3.org/2000/svg" width="32" height="32" viewBox="0 0 32 32">
<title>crop</title>
<path d="M9.436 9.436l11.909-0.103c0.172 0 0.343 0.036 0.497 0.1 0.163 0.067 0.309 0.167 0.433 0.291s0.223 0.271 0.291 0.433c0.064 0.155 0.1 0.327 0.1 0.509v12h-12c-0.183 0-0.355-0.036-0.509-0.1-0.163-0.067-0.309-0.167-0.433-0.291s-0.223-0.271-0.291-0.433c-0.064-0.155-0.1-0.327-0.1-0.497zM1.345 9.507l5.424-0.047-0.103 11.861c0 0.551 0.108 1.068 0.304 1.541 0.203 0.491 0.5 0.931 0.868 1.299s0.808 0.665 1.299 0.868c0.472 0.196 0.989 0.304 1.529 0.304h12v5.333c0 0.736 0.597 1.333 1.333 1.333s1.333-0.597 1.333-1.333v-5.333h5.333c0.736 0 1.333-0.597 1.333-1.333s-0.597-1.333-1.333-1.333h-5.333v-12c0-0.54-0.108-1.057-0.304-1.531-0.203-0.491-0.5-0.931-0.868-1.299s-0.808-0.665-1.299-0.868c-0.472-0.195-0.989-0.303-1.541-0.303l-11.861 0.103 0.047-5.424c0.007-0.737-0.585-1.339-1.321-1.345s-1.339 0.585-1.345 1.321l-0.048 5.471-5.471 0.048c-0.736 0.007-1.328 0.608-1.321 1.345s0.608 1.328 1.345 1.321z"></path>
</svg>
