<!-- Generated by IcoMoon.io -->
<svg version="1.1" xmlns="http://www.w3.org/2000/svg" width="32" height="32" viewBox="0 0 32 32">
<title>crosshair</title>
<path d="M30.667 16c0-1.984-0.395-3.88-1.111-5.609-0.744-1.796-1.833-3.411-3.184-4.761s-2.965-2.441-4.761-3.184c-1.731-0.717-3.627-1.112-5.611-1.112s-3.88 0.395-5.609 1.111c-1.796 0.744-3.411 1.833-4.761 3.185s-2.441 2.965-3.185 4.761c-0.716 1.729-1.111 3.625-1.111 5.609s0.395 3.88 1.111 5.609c0.744 1.796 1.833 3.411 3.184 4.761s2.965 2.441 4.761 3.184c1.731 0.717 3.627 1.112 5.611 1.112s3.88-0.395 5.609-1.111c1.796-0.744 3.411-1.833 4.761-3.184s2.441-2.965 3.184-4.761c0.717-1.731 1.112-3.627 1.112-5.611zM17.333 27.927v-3.927c0-0.736-0.597-1.333-1.333-1.333s-1.333 0.597-1.333 1.333v3.927c-1.143-0.127-2.235-0.412-3.256-0.835-1.468-0.608-2.789-1.499-3.896-2.607-1.108-1.108-1.999-2.429-2.607-3.896-0.423-1.021-0.709-2.113-0.835-3.256h3.927c0.736 0 1.333-0.597 1.333-1.333s-0.597-1.333-1.333-1.333h-3.927c0.127-1.143 0.412-2.235 0.835-3.256 0.608-1.468 1.499-2.789 2.607-3.896s2.429-1.999 3.896-2.607c1.021-0.423 2.113-0.709 3.256-0.835v3.927c0 0.736 0.597 1.333 1.333 1.333s1.333-0.597 1.333-1.333v-3.927c1.143 0.127 2.235 0.412 3.256 0.835 1.468 0.608 2.789 1.499 3.896 2.607 1.108 1.108 1.999 2.429 2.607 3.896 0.423 1.021 0.709 2.113 0.835 3.256h-3.927c-0.736 0-1.333 0.597-1.333 1.333s0.597 1.333 1.333 1.333h3.927c-0.127 1.143-0.412 2.235-0.835 3.256-0.608 1.468-1.499 2.789-2.607 3.896s-2.429 1.999-3.896 2.607c-1.021 0.423-2.113 0.709-3.256 0.835z"></path>
</svg>
