<!-- Generated by IcoMoon.io -->
<svg version="1.1" xmlns="http://www.w3.org/2000/svg" width="32" height="32" viewBox="0 0 32 32">
<title>database</title>
<path d="M26.667 6.669c-0.001 0.007-0.021 0.139-0.284 0.379-0.123 0.113-0.287 0.239-0.497 0.369-0.325 0.203-0.74 0.408-1.244 0.604-0.817 0.319-1.831 0.6-2.999 0.82-1.651 0.312-3.577 0.492-5.643 0.492s-3.992-0.18-5.643-0.491c-1.169-0.22-2.181-0.503-3-0.821-0.504-0.196-0.917-0.401-1.243-0.604-0.211-0.131-0.375-0.256-0.497-0.369-0.261-0.24-0.283-0.371-0.284-0.379 0-0.003 0.008-0.129 0.284-0.384 0.123-0.113 0.287-0.239 0.497-0.369 0.325-0.203 0.739-0.408 1.243-0.604 0.819-0.319 1.831-0.601 3-0.821 1.651-0.311 3.577-0.491 5.643-0.491s3.992 0.18 5.643 0.491c1.169 0.22 2.181 0.501 2.999 0.82 0.504 0.196 0.919 0.401 1.244 0.604 0.211 0.132 0.375 0.256 0.497 0.369 0.265 0.245 0.284 0.376 0.284 0.385zM26.667 19.376v5.961c0 0-0.003 0.023-0.023 0.065-0.032 0.064-0.105 0.176-0.265 0.323-0.124 0.113-0.288 0.239-0.499 0.369-0.324 0.201-0.737 0.405-1.239 0.601-0.812 0.316-1.817 0.596-2.98 0.813-1.652 0.311-3.583 0.491-5.661 0.491s-4.009-0.18-5.66-0.491c-1.163-0.219-2.168-0.497-2.98-0.813-0.503-0.196-0.915-0.399-1.239-0.601-0.211-0.132-0.375-0.256-0.499-0.369-0.16-0.147-0.235-0.259-0.265-0.323-0.021-0.043-0.024-0.069-0.024-0.069v-5.957c0.332 0.169 0.687 0.327 1.059 0.472 1 0.389 2.171 0.708 3.455 0.949 1.829 0.344 3.927 0.536 6.153 0.536s4.324-0.192 6.153-0.536c1.284-0.241 2.455-0.56 3.455-0.949 0.373-0.145 0.728-0.303 1.059-0.472zM26.667 10.036v5.951c0 0.005 0 0.011 0 0.017-0.252 0.355-0.271 0.371-0.289 0.388-0.124 0.113-0.288 0.239-0.499 0.369-0.324 0.201-0.737 0.405-1.239 0.601-0.812 0.316-1.817 0.596-2.98 0.813-1.651 0.311-3.581 0.491-5.66 0.491s-4.009-0.18-5.66-0.491c-1.163-0.219-2.168-0.497-2.98-0.813-0.503-0.196-0.915-0.399-1.239-0.601-0.211-0.132-0.375-0.256-0.499-0.369-0.16-0.147-0.235-0.259-0.265-0.323-0.021-0.043-0.024-0.065-0.024-0.065 0-0.008 0-0.016 0-0.023v-5.945c0.331 0.168 0.684 0.325 1.056 0.471 1.005 0.392 2.183 0.713 3.475 0.956 1.829 0.344 3.921 0.537 6.136 0.537s4.307-0.193 6.136-0.537c1.291-0.243 2.469-0.564 3.475-0.957 0.372-0.145 0.725-0.301 1.056-0.471zM2.667 6.667v18.667c0 0.077 0.003 0.155 0.009 0.232 0.031 0.364 0.135 0.704 0.287 1.015 0.212 0.431 0.516 0.799 0.856 1.111 0.268 0.245 0.569 0.468 0.892 0.669 0.495 0.308 1.063 0.581 1.681 0.823 1 0.389 2.171 0.708 3.455 0.949 1.829 0.343 3.927 0.535 6.153 0.535s4.324-0.192 6.153-0.536c1.284-0.241 2.455-0.56 3.455-0.949 0.617-0.24 1.185-0.513 1.681-0.823 0.323-0.201 0.625-0.424 0.892-0.669 0.34-0.312 0.644-0.68 0.856-1.111 0.152-0.311 0.256-0.651 0.287-1.015 0.007-0.076 0.009-0.153 0.009-0.231v-18.667c0-0.075-0.003-0.149-0.009-0.224-0.031-0.363-0.132-0.701-0.284-1.011-0.211-0.429-0.513-0.797-0.852-1.109-0.267-0.245-0.568-0.468-0.892-0.669-0.496-0.309-1.067-0.584-1.687-0.827-1.005-0.392-2.184-0.713-3.475-0.957-1.828-0.343-3.92-0.536-6.135-0.536s-4.307 0.193-6.136 0.537c-1.292 0.243-2.469 0.564-3.475 0.956-0.62 0.243-1.191 0.517-1.687 0.827-0.323 0.201-0.624 0.424-0.891 0.669-0.339 0.312-0.643 0.679-0.852 1.109-0.152 0.309-0.253 0.648-0.284 1.011-0.007 0.075-0.009 0.149-0.009 0.224z"></path>
</svg>
