<!-- Generated by IcoMoon.io -->
<svg version="1.1" xmlns="http://www.w3.org/2000/svg" width="32" height="32" viewBox="0 0 32 32">
<title>delete</title>
<path d="M28 6.667c0.183 0 0.355 0.036 0.509 0.1 0.163 0.067 0.309 0.167 0.433 0.291s0.223 0.271 0.291 0.433c0.064 0.155 0.1 0.327 0.1 0.509v16c0 0.183-0.036 0.355-0.1 0.509-0.067 0.163-0.167 0.309-0.291 0.433s-0.271 0.223-0.433 0.291c-0.155 0.064-0.327 0.1-0.509 0.1h-16.728l-8.167-9.333 8.167-9.333zM28 4h-17.333c-0.4 0-0.757 0.176-1.004 0.455l-9.333 10.667c-0.444 0.507-0.435 1.256 0 1.756l9.333 10.667c0.264 0.301 0.632 0.455 1.004 0.456h17.333c0.54 0 1.057-0.108 1.531-0.304 0.491-0.203 0.931-0.5 1.299-0.868s0.665-0.808 0.868-1.299c0.195-0.472 0.303-0.989 0.303-1.529v-16c0-0.54-0.108-1.057-0.304-1.531-0.203-0.491-0.5-0.931-0.868-1.299s-0.808-0.665-1.299-0.868c-0.472-0.195-0.989-0.303-1.529-0.303zM15.057 12.943l3.057 3.057-3.057 3.057c-0.521 0.521-0.521 1.365 0 1.885s1.365 0.521 1.885 0l3.057-3.057 3.057 3.057c0.521 0.521 1.365 0.521 1.885 0s0.521-1.365 0-1.885l-3.057-3.057 3.057-3.057c0.521-0.521 0.521-1.365 0-1.885s-1.365-0.521-1.885 0l-3.057 3.057-3.057-3.057c-0.521-0.521-1.365-0.521-1.885 0s-0.521 1.365 0 1.885z"></path>
</svg>
