<!-- Generated by IcoMoon.io -->
<svg version="1.1" xmlns="http://www.w3.org/2000/svg" width="32" height="32" viewBox="0 0 32 32">
<title>disc</title>
<path d="M30.667 16c0-1.984-0.395-3.88-1.111-5.609-0.744-1.796-1.833-3.411-3.184-4.761s-2.965-2.441-4.761-3.184c-1.731-0.717-3.627-1.112-5.611-1.112s-3.88 0.395-5.609 1.111c-1.796 0.744-3.411 1.833-4.761 3.185s-2.441 2.965-3.185 4.761c-0.716 1.729-1.111 3.625-1.111 5.609s0.395 3.88 1.111 5.609c0.744 1.796 1.833 3.411 3.184 4.761s2.965 2.441 4.761 3.184c1.731 0.717 3.627 1.112 5.611 1.112s3.88-0.395 5.609-1.111c1.796-0.744 3.411-1.833 4.761-3.184s2.441-2.965 3.184-4.761c0.717-1.731 1.112-3.627 1.112-5.611zM28 16c0 1.628-0.324 3.177-0.908 4.589-0.608 1.468-1.499 2.789-2.607 3.896s-2.429 1.999-3.896 2.607c-1.412 0.584-2.961 0.908-4.589 0.908s-3.177-0.324-4.589-0.908c-1.468-0.608-2.789-1.499-3.896-2.607-1.108-1.108-1.999-2.429-2.607-3.896-0.584-1.412-0.908-2.961-0.908-4.589s0.324-3.177 0.908-4.589c0.608-1.468 1.499-2.789 2.607-3.896s2.429-1.999 3.896-2.607c1.412-0.584 2.961-0.908 4.589-0.908s3.177 0.324 4.589 0.908c1.468 0.608 2.789 1.499 3.896 2.607 1.108 1.108 1.999 2.429 2.607 3.896 0.584 1.412 0.908 2.961 0.908 4.589zM21.333 16c0-0.72-0.144-1.409-0.404-2.040-0.271-0.653-0.667-1.24-1.157-1.731s-1.079-0.888-1.732-1.159c-0.631-0.26-1.32-0.404-2.040-0.404s-1.409 0.144-2.040 0.404c-0.653 0.271-1.24 0.667-1.731 1.157s-0.888 1.079-1.159 1.732c-0.26 0.631-0.404 1.32-0.404 2.040s0.144 1.409 0.404 2.040c0.271 0.653 0.667 1.24 1.157 1.731s1.077 0.887 1.731 1.157c0.632 0.261 1.321 0.405 2.041 0.405s1.409-0.144 2.040-0.404c0.653-0.271 1.24-0.667 1.731-1.157s0.887-1.077 1.157-1.731c0.261-0.632 0.405-1.321 0.405-2.041zM18.667 16c0 0.364-0.072 0.707-0.201 1.020-0.135 0.325-0.333 0.619-0.58 0.867s-0.541 0.445-0.867 0.58c-0.312 0.128-0.655 0.2-1.019 0.2s-0.707-0.072-1.020-0.201c-0.325-0.135-0.619-0.333-0.867-0.58s-0.445-0.541-0.58-0.867c-0.128-0.312-0.2-0.655-0.2-1.019s0.072-0.707 0.201-1.020c0.135-0.325 0.333-0.619 0.58-0.867s0.541-0.445 0.867-0.58c0.312-0.128 0.655-0.2 1.019-0.2s0.707 0.072 1.020 0.201c0.325 0.135 0.619 0.333 0.867 0.58s0.445 0.541 0.58 0.867c0.128 0.312 0.2 0.655 0.2 1.019z"></path>
</svg>
