<!-- Generated by IcoMoon.io -->
<svg version="1.1" xmlns="http://www.w3.org/2000/svg" width="32" height="32" viewBox="0 0 32 32">
<title>dollar-sign</title>
<path d="M14.667 14.667h-2c-0.453 0-0.884-0.091-1.275-0.252-0.407-0.168-0.775-0.416-1.083-0.724s-0.556-0.676-0.724-1.083c-0.161-0.391-0.252-0.821-0.252-1.275s0.091-0.884 0.252-1.275c0.168-0.407 0.416-0.775 0.724-1.083s0.676-0.556 1.083-0.724c0.391-0.161 0.821-0.252 1.275-0.252h2zM17.333 17.333h2c0.453 0 0.884 0.091 1.275 0.252 0.407 0.168 0.775 0.416 1.083 0.724s0.556 0.676 0.724 1.083c0.161 0.391 0.252 0.821 0.252 1.275s-0.091 0.884-0.252 1.275c-0.168 0.407-0.416 0.775-0.724 1.083s-0.676 0.556-1.083 0.724c-0.391 0.161-0.821 0.252-1.275 0.252h-2zM22.667 5.333h-5.333v-4c0-0.736-0.597-1.333-1.333-1.333s-1.333 0.597-1.333 1.333v4h-2c-0.811 0-1.587 0.161-2.295 0.455-0.736 0.305-1.396 0.751-1.948 1.303s-0.997 1.212-1.303 1.948c-0.293 0.708-0.455 1.484-0.455 2.295s0.161 1.587 0.455 2.295c0.304 0.735 0.751 1.396 1.303 1.948s1.212 0.997 1.948 1.303c0.708 0.293 1.484 0.455 2.295 0.455h2v6.667h-6.667c-0.736 0-1.333 0.597-1.333 1.333s0.597 1.333 1.333 1.333h6.667v4c0 0.736 0.597 1.333 1.333 1.333s1.333-0.597 1.333-1.333v-4h2c0.811 0 1.587-0.161 2.295-0.455 0.735-0.304 1.396-0.751 1.948-1.303s0.997-1.212 1.303-1.948c0.293-0.708 0.455-1.484 0.455-2.295s-0.161-1.587-0.455-2.295c-0.304-0.735-0.751-1.396-1.303-1.948s-1.212-0.997-1.948-1.303c-0.708-0.293-1.484-0.455-2.295-0.455h-2v-6.667h5.333c0.736 0 1.333-0.597 1.333-1.333s-0.597-1.333-1.333-1.333z"></path>
</svg>
