<!-- Generated by IcoMoon.io -->
<svg version="1.1" xmlns="http://www.w3.org/2000/svg" width="32" height="32" viewBox="0 0 32 32">
<title>download</title>
<path d="M26.667 20v5.333c0 0.183-0.036 0.355-0.1 0.509-0.067 0.163-0.167 0.309-0.291 0.433s-0.271 0.223-0.433 0.291c-0.155 0.064-0.327 0.1-0.509 0.1h-18.667c-0.183 0-0.355-0.036-0.509-0.1-0.163-0.067-0.309-0.167-0.433-0.291s-0.223-0.271-0.291-0.433c-0.064-0.155-0.1-0.327-0.1-0.509v-5.333c0-0.736-0.597-1.333-1.333-1.333s-1.333 0.597-1.333 1.333v5.333c0 0.54 0.108 1.057 0.304 1.531 0.203 0.491 0.5 0.931 0.868 1.299s0.808 0.665 1.299 0.868c0.472 0.195 0.989 0.303 1.529 0.303h18.667c0.54 0 1.057-0.108 1.531-0.304 0.491-0.203 0.931-0.5 1.299-0.868s0.665-0.808 0.868-1.299c0.195-0.472 0.303-0.989 0.303-1.529v-5.333c0-0.736-0.597-1.333-1.333-1.333s-1.333 0.597-1.333 1.333zM17.333 16.781v-12.781c0-0.736-0.597-1.333-1.333-1.333s-1.333 0.597-1.333 1.333v12.781l-4.391-4.391c-0.521-0.521-1.365-0.521-1.885 0s-0.521 1.365 0 1.885l6.667 6.667c0.003 0.003 0.005 0.005 0.008 0.008 0.127 0.124 0.271 0.217 0.424 0.281 0.16 0.067 0.332 0.1 0.503 0.101 0.005 0 0.011 0 0.015 0 0.171-0.001 0.343-0.035 0.503-0.101 0.157-0.065 0.304-0.161 0.432-0.289l6.667-6.667c0.521-0.521 0.521-1.365 0-1.885s-1.365-0.521-1.885 0z"></path>
</svg>
