<!-- Generated by IcoMoon.io -->
<svg version="1.1" xmlns="http://www.w3.org/2000/svg" width="32" height="32" viewBox="0 0 32 32">
<title>download-cloud</title>
<path d="M14.667 16v8.781l-3.057-3.057c-0.521-0.521-1.365-0.521-1.885 0s-0.521 1.365 0 1.885l5.333 5.333c0.128 0.128 0.276 0.224 0.433 0.289 0.16 0.065 0.329 0.1 0.499 0.101 0.177 0.001 0.355-0.032 0.52-0.101 0.157-0.065 0.305-0.161 0.433-0.289l5.333-5.333c0.521-0.521 0.521-1.365 0-1.885s-1.365-0.521-1.885 0l-3.057 3.057v-8.781c0-0.736-0.597-1.333-1.333-1.333s-1.333 0.597-1.333 1.333zM28.607 25.211c0.884-0.621 1.607-1.393 2.155-2.256 0.568-0.896 0.947-1.888 1.125-2.915s0.159-2.088-0.073-3.124c-0.223-0.997-0.643-1.967-1.264-2.852-0.54-0.768-1.192-1.413-1.921-1.929-0.755-0.533-1.588-0.925-2.461-1.169-0.703-0.195-1.429-0.296-2.161-0.299h-0.697c-0.413-1.179-0.997-2.259-1.717-3.217-0.955-1.272-2.147-2.331-3.492-3.127s-2.847-1.331-4.421-1.556c-1.517-0.215-3.1-0.143-4.672 0.261s-2.993 1.101-4.219 2.021c-1.272 0.955-2.331 2.147-3.127 3.492s-1.331 2.847-1.556 4.421c-0.216 1.517-0.144 3.1 0.26 4.672 0.495 1.928 1.433 3.633 2.644 4.979 0.493 0.547 1.336 0.592 1.883 0.099s0.592-1.336 0.099-1.883c-0.923-1.025-1.656-2.347-2.044-3.857-0.315-1.227-0.371-2.456-0.203-3.632 0.175-1.223 0.591-2.391 1.211-3.44s1.445-1.977 2.433-2.719c0.951-0.713 2.055-1.256 3.281-1.571s2.456-0.371 3.633-0.203c1.223 0.175 2.391 0.591 3.44 1.211s1.976 1.444 2.717 2.432c0.713 0.951 1.256 2.055 1.571 3.281 0.152 0.58 0.672 1.001 1.291 1.001h1.675c0.493 0.001 0.983 0.069 1.453 0.201 0.585 0.164 1.14 0.425 1.64 0.779 0.483 0.341 0.917 0.771 1.28 1.285 0.417 0.593 0.695 1.239 0.843 1.9 0.155 0.688 0.168 1.397 0.048 2.083s-0.372 1.348-0.751 1.944c-0.363 0.572-0.843 1.085-1.436 1.503-0.603 0.424-0.747 1.255-0.324 1.857s1.255 0.747 1.857 0.324z"></path>
</svg>
