<!-- Generated by IcoMoon.io -->
<svg version="1.1" xmlns="http://www.w3.org/2000/svg" width="32" height="32" viewBox="0 0 32 32">
<title>droplet</title>
<path d="M16.943 2.644c-0.521-0.521-1.367-0.52-1.887 0.001l-7.537 7.551c-1.147 1.148-2.015 2.473-2.601 3.889-0.608 1.469-0.912 3.035-0.911 4.597s0.305 3.128 0.913 4.597c0.587 1.416 1.456 2.74 2.604 3.887s2.473 2.015 3.889 2.601c1.469 0.608 3.035 0.912 4.597 0.911s3.128-0.305 4.597-0.913c1.416-0.587 2.74-1.456 3.887-2.604s2.015-2.473 2.601-3.889c0.608-1.469 0.912-3.035 0.911-4.597s-0.305-3.128-0.913-4.597c-0.587-1.416-1.456-2.74-2.603-3.887zM16.001 5.473l6.603 6.603c0.896 0.896 1.571 1.925 2.025 3.023 0.473 1.141 0.711 2.359 0.711 3.576 0 1.219-0.236 2.436-0.708 3.577-0.455 1.097-1.128 2.128-2.023 3.024-0.896 0.896-1.925 1.571-3.023 2.025-1.141 0.473-2.359 0.711-3.576 0.711-1.219 0-2.436-0.236-3.577-0.708-1.097-0.455-2.128-1.128-3.024-2.023s-1.571-1.925-2.025-3.023c-0.473-1.141-0.711-2.359-0.711-3.576s0.236-2.436 0.708-3.577c0.455-1.097 1.128-2.128 2.023-3.024z"></path>
</svg>
