<!-- Generated by IcoMoon.io -->
<svg version="1.1" xmlns="http://www.w3.org/2000/svg" width="32" height="32" viewBox="0 0 32 32">
<title>edit-3</title>
<path d="M16 28h12c0.736 0 1.333-0.597 1.333-1.333s-0.597-1.333-1.333-1.333h-12c-0.736 0-1.333 0.597-1.333 1.333s0.597 1.333 1.333 1.333zM21.057 3.724l-16.667 16.667c-0.163 0.161-0.289 0.373-0.351 0.62l-1.333 5.333c-0.052 0.2-0.056 0.424 0 0.647 0.179 0.715 0.903 1.149 1.617 0.971l5.333-1.333c0.223-0.055 0.44-0.172 0.62-0.351l16.667-16.667c0.397-0.397 0.699-0.857 0.903-1.349 0.212-0.511 0.316-1.053 0.316-1.593s-0.105-1.084-0.316-1.593c-0.204-0.492-0.505-0.952-0.903-1.349s-0.857-0.699-1.349-0.903c-0.511-0.212-1.053-0.317-1.595-0.317s-1.084 0.105-1.593 0.316c-0.492 0.204-0.952 0.505-1.349 0.903zM22.943 5.609c0.145-0.145 0.309-0.252 0.484-0.324 0.181-0.076 0.377-0.113 0.573-0.113s0.392 0.039 0.573 0.113c0.175 0.072 0.339 0.18 0.484 0.324s0.252 0.309 0.324 0.484c0.076 0.181 0.113 0.377 0.113 0.573s-0.039 0.392-0.113 0.573c-0.072 0.175-0.18 0.339-0.324 0.484l-16.405 16.405-2.82 0.705 0.705-2.82z"></path>
</svg>
