<!-- Generated by IcoMoon.io -->
<svg version="1.1" xmlns="http://www.w3.org/2000/svg" width="32" height="32" viewBox="0 0 32 32">
<title>edit-2</title>
<path d="M21.724 3.057l-18 18c-0.156 0.155-0.28 0.357-0.344 0.592l-2 7.333c-0.061 0.217-0.065 0.461 0 0.701 0.193 0.711 0.927 1.129 1.637 0.936l7.333-2c0.212-0.056 0.42-0.172 0.592-0.344l18-18c0.487-0.487 0.857-1.051 1.107-1.655 0.259-0.625 0.388-1.291 0.388-1.955s-0.129-1.329-0.388-1.955c-0.249-0.603-0.62-1.167-1.107-1.655s-1.051-0.857-1.655-1.107c-0.625-0.26-1.291-0.388-1.955-0.388s-1.329 0.129-1.955 0.388c-0.603 0.249-1.167 0.62-1.655 1.107zM23.609 4.943c0.235-0.235 0.504-0.411 0.789-0.529 0.297-0.123 0.616-0.185 0.935-0.185s0.637 0.063 0.935 0.185c0.285 0.119 0.553 0.293 0.789 0.529s0.411 0.504 0.529 0.789c0.123 0.297 0.184 0.616 0.184 0.935s-0.063 0.637-0.185 0.935c-0.119 0.285-0.293 0.553-0.529 0.789l-17.748 17.749-4.741 1.293 1.293-4.74z"></path>
</svg>
