<!-- Generated by IcoMoon.io -->
<svg version="1.1" xmlns="http://www.w3.org/2000/svg" width="32" height="32" viewBox="0 0 32 32">
<title>edit</title>
<path d="M14.667 4h-9.333c-0.54 0-1.057 0.108-1.531 0.304-0.489 0.203-0.929 0.5-1.297 0.868s-0.665 0.808-0.868 1.297c-0.196 0.473-0.304 0.991-0.304 1.531v18.667c0 0.54 0.108 1.057 0.304 1.531 0.203 0.491 0.5 0.931 0.868 1.299s0.808 0.665 1.299 0.868c0.472 0.195 0.989 0.303 1.529 0.303h18.667c0.54 0 1.057-0.108 1.531-0.304 0.491-0.203 0.931-0.5 1.299-0.868s0.665-0.808 0.868-1.299c0.195-0.472 0.303-0.989 0.303-1.529v-9.333c0-0.736-0.597-1.333-1.333-1.333s-1.333 0.597-1.333 1.333v9.333c0 0.183-0.036 0.355-0.1 0.509-0.067 0.163-0.167 0.309-0.291 0.433s-0.271 0.223-0.433 0.291c-0.155 0.064-0.327 0.1-0.509 0.1h-18.667c-0.183 0-0.355-0.036-0.509-0.1-0.163-0.067-0.309-0.167-0.433-0.291s-0.223-0.271-0.291-0.433c-0.064-0.155-0.1-0.327-0.1-0.509v-18.667c0-0.183 0.036-0.355 0.1-0.509 0.067-0.163 0.167-0.309 0.291-0.433s0.271-0.223 0.433-0.291c0.155-0.064 0.327-0.1 0.509-0.1h9.333c0.736 0 1.333-0.597 1.333-1.333s-0.597-1.333-1.333-1.333zM23.724 2.391l-12.667 12.667c-0.163 0.161-0.289 0.373-0.351 0.62l-1.333 5.333c-0.052 0.2-0.056 0.424 0 0.647 0.179 0.715 0.903 1.149 1.617 0.971l5.333-1.333c0.223-0.055 0.44-0.172 0.62-0.351l12.667-12.667c0.397-0.397 0.699-0.857 0.903-1.349 0.212-0.511 0.316-1.053 0.316-1.593s-0.105-1.084-0.316-1.593c-0.204-0.492-0.505-0.952-0.903-1.349s-0.857-0.699-1.349-0.903c-0.511-0.212-1.053-0.317-1.595-0.317s-1.084 0.105-1.593 0.316c-0.492 0.204-0.952 0.505-1.349 0.903zM25.609 4.276c0.145-0.145 0.309-0.252 0.484-0.324 0.181-0.076 0.377-0.113 0.573-0.113s0.392 0.039 0.573 0.113c0.175 0.072 0.339 0.18 0.484 0.324s0.252 0.309 0.324 0.484c0.076 0.181 0.113 0.377 0.113 0.573s-0.039 0.392-0.113 0.573c-0.072 0.175-0.18 0.339-0.324 0.484l-12.405 12.405-2.819 0.705 0.705-2.819z"></path>
</svg>
