<!-- Generated by IcoMoon.io -->
<svg version="1.1" xmlns="http://www.w3.org/2000/svg" width="32" height="32" viewBox="0 0 32 32">
<title>eye-off</title>
<path d="M13.504 6.952c0.868-0.203 1.727-0.295 2.48-0.285 1.067 0 2.061 0.152 3 0.419 1.149 0.327 2.221 0.827 3.212 1.439 1.492 0.923 2.785 2.089 3.859 3.264 0.859 0.94 1.567 1.873 2.113 2.668 0.431 0.627 0.757 1.161 0.976 1.541-0.728 1.269-1.547 2.428-2.369 3.388-0.479 0.559-0.415 1.401 0.144 1.88s1.401 0.415 1.88-0.144c1.091-1.272 2.148-2.816 3.044-4.493 0.197-0.372 0.217-0.824 0.017-1.225-0.020-0.039-0.528-1.052-1.493-2.457-0.601-0.875-1.384-1.909-2.343-2.957-1.192-1.305-2.672-2.649-4.425-3.733-1.168-0.723-2.465-1.333-3.885-1.736-1.163-0.329-2.403-0.519-3.697-0.519-0.979-0.012-2.053 0.105-3.12 0.355-0.717 0.168-1.163 0.885-0.995 1.603s0.885 1.163 1.603 0.995zM13.369 15.256l3.375 3.375c-0.243 0.080-0.496 0.125-0.751 0.135-0.349 0.012-0.699-0.043-1.029-0.167-0.317-0.119-0.617-0.3-0.883-0.548s-0.468-0.535-0.608-0.843c-0.147-0.32-0.227-0.665-0.239-1.015-0.011-0.317 0.033-0.636 0.135-0.939zM7.977 9.863l3.404 3.404c-0.193 0.308-0.353 0.632-0.477 0.965-0.248 0.663-0.357 1.363-0.333 2.056s0.184 1.384 0.477 2.027c0.283 0.62 0.691 1.196 1.217 1.687s1.129 0.856 1.768 1.095c0.663 0.248 1.363 0.357 2.056 0.333s1.384-0.184 2.027-0.477c0.212-0.096 0.419-0.208 0.619-0.333l3.096 3.096c-0.685 0.397-1.396 0.72-2.121 0.969-1.22 0.42-2.479 0.633-3.724 0.648-1.035 0-2.029-0.152-2.968-0.419-1.149-0.327-2.221-0.827-3.212-1.439-1.492-0.923-2.785-2.089-3.859-3.264-0.859-0.94-1.567-1.873-2.113-2.668-0.429-0.625-0.756-1.16-0.976-1.54 1.399-2.429 3.168-4.504 5.12-6.141zM0.391 2.276l5.695 5.695c-2.308 1.972-4.359 4.477-5.927 7.399-0.197 0.372-0.219 0.825-0.017 1.227 0.020 0.039 0.528 1.052 1.493 2.457 0.601 0.875 1.384 1.909 2.343 2.957 1.192 1.305 2.672 2.649 4.425 3.733 1.168 0.723 2.465 1.333 3.885 1.736 1.161 0.331 2.401 0.52 3.728 0.52 1.528-0.019 3.071-0.28 4.56-0.793 1.101-0.38 2.175-0.896 3.192-1.552l5.955 5.955c0.521 0.521 1.365 0.521 1.885 0s0.521-1.365 0-1.885l-29.336-29.336c-0.521-0.521-1.365-0.521-1.885 0-0.52 0.52-0.521 1.364 0 1.885z"></path>
</svg>
