<!-- Generated by IcoMoon.io -->
<svg version="1.1" xmlns="http://www.w3.org/2000/svg" width="32" height="32" viewBox="0 0 32 32">
<title>eye</title>
<path d="M0.141 15.404c-0.181 0.365-0.195 0.804 0 1.192 0.020 0.039 0.528 1.052 1.493 2.457 0.601 0.875 1.384 1.909 2.343 2.957 1.192 1.305 2.672 2.649 4.425 3.733 1.168 0.723 2.465 1.333 3.885 1.736 1.161 0.331 2.401 0.52 3.712 0.52s2.551-0.189 3.712-0.52c1.42-0.403 2.716-1.013 3.885-1.736 1.753-1.084 3.233-2.428 4.425-3.733 0.957-1.048 1.741-2.083 2.343-2.957 0.965-1.405 1.475-2.419 1.493-2.457 0.181-0.365 0.195-0.804 0-1.192-0.020-0.039-0.528-1.052-1.493-2.457-0.601-0.875-1.384-1.909-2.343-2.957-1.192-1.305-2.672-2.649-4.425-3.733-1.168-0.723-2.465-1.333-3.885-1.736-1.161-0.331-2.401-0.52-3.712-0.52s-2.551 0.189-3.712 0.52c-1.42 0.403-2.716 1.013-3.885 1.736-1.753 1.084-3.233 2.428-4.425 3.733-0.959 1.048-1.741 2.081-2.343 2.957-0.965 1.405-1.475 2.419-1.493 2.457zM2.855 16c0.22-0.379 0.547-0.916 0.979-1.544 0.547-0.795 1.253-1.728 2.113-2.668 1.073-1.175 2.367-2.341 3.859-3.264 0.991-0.612 2.063-1.113 3.212-1.439 0.937-0.267 1.932-0.419 2.983-0.419s2.045 0.152 2.984 0.419c1.149 0.327 2.221 0.827 3.212 1.439 1.492 0.923 2.785 2.089 3.859 3.264 0.859 0.94 1.567 1.873 2.113 2.668 0.431 0.628 0.759 1.164 0.979 1.544-0.22 0.379-0.547 0.916-0.979 1.544-0.547 0.795-1.253 1.728-2.113 2.668-1.073 1.175-2.367 2.341-3.859 3.264-0.991 0.612-2.063 1.113-3.212 1.439-0.939 0.267-1.933 0.419-2.984 0.419s-2.045-0.152-2.984-0.419c-1.149-0.327-2.221-0.827-3.212-1.439-1.492-0.923-2.785-2.089-3.859-3.264-0.859-0.94-1.567-1.873-2.113-2.668-0.431-0.628-0.759-1.165-0.977-1.544zM21.333 16c0-0.72-0.144-1.409-0.404-2.040-0.271-0.653-0.667-1.24-1.157-1.731s-1.079-0.888-1.732-1.159c-0.631-0.26-1.32-0.404-2.040-0.404s-1.409 0.144-2.040 0.404c-0.653 0.271-1.24 0.667-1.731 1.157s-0.888 1.079-1.159 1.732c-0.26 0.631-0.404 1.32-0.404 2.040s0.144 1.409 0.404 2.040c0.271 0.653 0.667 1.24 1.157 1.731s1.077 0.887 1.731 1.157c0.632 0.261 1.321 0.405 2.041 0.405s1.409-0.144 2.040-0.404c0.653-0.271 1.24-0.667 1.731-1.157s0.887-1.077 1.157-1.731c0.261-0.632 0.405-1.321 0.405-2.041zM18.667 16c0 0.364-0.072 0.707-0.201 1.020-0.135 0.325-0.333 0.619-0.58 0.867s-0.541 0.445-0.867 0.58c-0.312 0.128-0.655 0.2-1.019 0.2s-0.707-0.072-1.020-0.201c-0.325-0.135-0.619-0.333-0.867-0.58s-0.445-0.541-0.58-0.867c-0.128-0.312-0.2-0.655-0.2-1.019s0.072-0.707 0.201-1.020c0.135-0.325 0.333-0.619 0.58-0.867s0.541-0.445 0.867-0.58c0.312-0.128 0.655-0.2 1.019-0.2s0.707 0.072 1.020 0.201c0.325 0.135 0.619 0.333 0.867 0.58s0.445 0.541 0.58 0.867c0.128 0.312 0.2 0.655 0.2 1.019z"></path>
</svg>
