<!-- Generated by IcoMoon.io -->
<svg version="1.1" xmlns="http://www.w3.org/2000/svg" width="32" height="32" viewBox="0 0 32 32">
<title>facebook3</title>
<path d="M22.667 4v2.667h-2.667c-0.359 0-0.704 0.072-1.020 0.203-0.328 0.136-0.62 0.333-0.865 0.579s-0.443 0.539-0.579 0.865c-0.131 0.316-0.203 0.661-0.203 1.020v4c0 0.736 0.597 1.333 1.333 1.333h3.625l-0.667 2.667h-2.959c-0.736 0-1.333 0.597-1.333 1.333v9.333h-2.667v-9.333c0-0.736-0.597-1.333-1.333-1.333h-2.667v-2.667h2.667c0.736 0 1.333-0.597 1.333-1.333v-4c0-0.725 0.144-1.413 0.404-2.039 0.269-0.652 0.667-1.239 1.159-1.732s1.080-0.889 1.732-1.159c0.625-0.26 1.313-0.404 2.039-0.404zM24 1.333h-4c-1.081 0-2.116 0.215-3.060 0.607-0.98 0.405-1.86 1-2.597 1.737s-1.331 1.616-1.736 2.596c-0.392 0.944-0.607 1.979-0.607 3.060v2.667h-2.667c-0.736 0-1.333 0.597-1.333 1.333v5.333c0 0.736 0.597 1.333 1.333 1.333h2.667v9.333c0 0.736 0.597 1.333 1.333 1.333h5.333c0.736 0 1.333-0.597 1.333-1.333v-9.333h2.667c0.621 0 1.144-0.425 1.293-1.009l1.333-5.333c0.179-0.715-0.256-1.439-0.971-1.617-0.111-0.028-0.223-0.041-0.323-0.040h-4v-2.667h4c0.736 0 1.333-0.597 1.333-1.333v-5.333c0-0.736-0.597-1.333-1.333-1.333z"></path>
</svg>
