<!-- Generated by IcoMoon.io -->
<svg version="1.1" xmlns="http://www.w3.org/2000/svg" width="32" height="32" viewBox="0 0 32 32">
<title>fast-forward</title>
<path d="M18.667 22.607v-13.213l8.495 6.607zM4 22.607v-13.213l8.495 6.607zM3.485 26.385l12-9.333c0.335-0.26 0.511-0.648 0.515-1.040v9.321c0 0.736 0.597 1.333 1.333 1.333 0.309 0 0.595-0.105 0.819-0.281l12-9.333c0.581-0.452 0.685-1.289 0.233-1.871-0.072-0.092-0.153-0.172-0.233-0.233l-12-9.333c-0.581-0.452-1.419-0.348-1.871 0.233-0.191 0.245-0.283 0.535-0.281 0.819v9.32c-0.003-0.281-0.095-0.565-0.281-0.805-0.072-0.092-0.153-0.172-0.233-0.233l-12-9.333c-0.581-0.452-1.419-0.348-1.871 0.233-0.191 0.245-0.283 0.535-0.281 0.819v18.667c0 0.736 0.597 1.333 1.333 1.333 0.309 0 0.595-0.105 0.819-0.281z"></path>
</svg>
