<!-- Generated by IcoMoon.io -->
<svg version="1.1" xmlns="http://www.w3.org/2000/svg" width="32" height="32" viewBox="0 0 32 32">
<title>feather</title>
<path d="M24.148 21.056c0.092-0.071 0.173-0.153 0.244-0.245l3.537-3.548c0.892-0.892 1.568-1.924 2.025-3.025 0.473-1.144 0.711-2.361 0.711-3.577s-0.236-2.433-0.711-3.577c-0.456-1.101-1.132-2.133-2.025-3.025-0.892-0.892-1.924-1.568-3.025-2.025-1.144-0.473-2.361-0.711-3.577-0.711s-2.433 0.236-3.577 0.711c-1.101 0.456-2.133 1.132-3.025 2.025l-9 9c-0.26 0.26-0.391 0.601-0.391 0.943v10.781l-3.609 3.609c-0.521 0.521-0.521 1.365 0 1.885s1.365 0.521 1.885 0l3.609-3.609h10.781c0.369 0 0.703-0.149 0.944-0.392zM12.552 21.333h7.553l-2.659 2.667h-7.561zM22.764 18.667h-7.545l7.057-7.057c0.521-0.521 0.521-1.365 0-1.885s-1.365-0.521-1.885 0l-12.391 12.391v-7.563l8.609-8.609c0.641-0.641 1.376-1.123 2.16-1.447 0.815-0.337 1.685-0.507 2.556-0.507s1.741 0.169 2.556 0.507c0.784 0.325 1.52 0.807 2.16 1.447s1.123 1.376 1.447 2.16c0.337 0.815 0.507 1.685 0.507 2.556s-0.169 1.741-0.507 2.556c-0.325 0.784-0.807 1.52-1.447 2.16z"></path>
</svg>
