<!-- Generated by IcoMoon.io -->
<svg version="1.1" xmlns="http://www.w3.org/2000/svg" width="32" height="32" viewBox="0 0 32 32">
<title>figma</title>
<path d="M17.333 4h3.333c0.453 0 0.884 0.091 1.275 0.252 0.407 0.168 0.775 0.416 1.083 0.724s0.556 0.676 0.724 1.083c0.161 0.391 0.252 0.821 0.252 1.275s-0.091 0.884-0.252 1.275c-0.168 0.407-0.416 0.775-0.724 1.083s-0.676 0.556-1.083 0.724c-0.391 0.161-0.821 0.252-1.275 0.252h-3.333zM17.333 16.667c0-0.453 0.091-0.884 0.252-1.275 0.168-0.407 0.416-0.775 0.724-1.083s0.676-0.556 1.083-0.724c0.391-0.161 0.821-0.252 1.275-0.252s0.884 0.091 1.275 0.252c0.407 0.168 0.775 0.416 1.083 0.724s0.556 0.676 0.724 1.083c0.161 0.391 0.252 0.821 0.252 1.275s-0.091 0.884-0.252 1.275c-0.168 0.407-0.416 0.775-0.724 1.083s-0.676 0.556-1.083 0.724c-0.391 0.161-0.821 0.252-1.275 0.252s-0.884-0.091-1.275-0.252c-0.407-0.168-0.775-0.416-1.083-0.724s-0.556-0.676-0.724-1.083c-0.161-0.391-0.252-0.821-0.252-1.275zM14.667 10.667h-3.333c-0.453 0-0.884-0.091-1.275-0.252-0.407-0.168-0.775-0.416-1.083-0.724s-0.556-0.676-0.724-1.083c-0.161-0.391-0.252-0.821-0.252-1.275s0.091-0.884 0.252-1.275c0.168-0.407 0.416-0.775 0.724-1.083s0.676-0.556 1.083-0.724c0.391-0.161 0.821-0.252 1.275-0.252h3.333zM14.667 22.667v3.333c0 0.453-0.091 0.884-0.252 1.275-0.168 0.407-0.416 0.775-0.724 1.083s-0.676 0.556-1.083 0.724c-0.391 0.161-0.821 0.252-1.275 0.252s-0.884-0.091-1.275-0.252c-0.407-0.168-0.775-0.416-1.083-0.724s-0.556-0.676-0.724-1.083c-0.161-0.391-0.252-0.821-0.252-1.275s0.091-0.884 0.252-1.275c0.168-0.407 0.416-0.775 0.724-1.083s0.676-0.556 1.083-0.724c0.391-0.161 0.821-0.252 1.275-0.252zM5.333 16.667c0 0.811 0.161 1.587 0.455 2.295 0.304 0.735 0.751 1.396 1.303 1.948 0.149 0.149 0.307 0.291 0.471 0.424-0.164 0.133-0.321 0.275-0.471 0.424-0.552 0.552-0.997 1.212-1.303 1.948-0.293 0.708-0.455 1.484-0.455 2.295s0.161 1.587 0.455 2.295c0.304 0.735 0.751 1.396 1.303 1.948s1.212 0.997 1.948 1.303c0.708 0.293 1.484 0.455 2.295 0.455s1.587-0.161 2.295-0.455c0.735-0.304 1.396-0.751 1.948-1.303s0.997-1.212 1.303-1.948c0.293-0.708 0.455-1.484 0.455-2.295v-4.344c0.325 0.217 0.672 0.404 1.039 0.556 0.708 0.293 1.484 0.455 2.295 0.455s1.587-0.161 2.295-0.455c0.735-0.304 1.396-0.751 1.948-1.303s0.997-1.212 1.303-1.948c0.293-0.708 0.455-1.484 0.455-2.295s-0.161-1.587-0.455-2.295c-0.304-0.735-0.751-1.396-1.303-1.948-0.149-0.149-0.307-0.291-0.471-0.424 0.164-0.133 0.321-0.275 0.471-0.424 0.552-0.552 0.997-1.212 1.303-1.948 0.293-0.708 0.455-1.484 0.455-2.295s-0.161-1.587-0.455-2.295c-0.304-0.735-0.751-1.396-1.303-1.948s-1.212-0.997-1.948-1.303c-0.708-0.293-1.484-0.455-2.295-0.455h-9.333c-0.811 0-1.587 0.161-2.295 0.455-0.736 0.305-1.396 0.751-1.948 1.303s-0.997 1.212-1.303 1.948c-0.293 0.708-0.455 1.484-0.455 2.295s0.161 1.587 0.455 2.295c0.305 0.736 0.751 1.396 1.303 1.948 0.149 0.149 0.307 0.291 0.471 0.424-0.164 0.133-0.321 0.275-0.471 0.424-0.552 0.552-0.997 1.212-1.303 1.948-0.293 0.708-0.455 1.484-0.455 2.295zM8 16.667c0-0.453 0.091-0.884 0.252-1.275 0.168-0.407 0.416-0.775 0.724-1.083s0.676-0.556 1.083-0.724c0.391-0.161 0.821-0.252 1.275-0.252h3.333v6.667h-3.333c-0.453 0-0.884-0.091-1.275-0.252-0.407-0.168-0.775-0.416-1.083-0.724s-0.556-0.676-0.724-1.083c-0.161-0.391-0.252-0.821-0.252-1.275z"></path>
</svg>
