<!-- Generated by IcoMoon.io -->
<svg version="1.1" xmlns="http://www.w3.org/2000/svg" width="32" height="32" viewBox="0 0 32 32">
<title>film</title>
<path d="M21.333 14.667h-10.667v-10.667h10.667zM10.667 17.333h10.667v10.667h-10.667zM8 8h-4v-2.427c0-0.216 0.043-0.417 0.119-0.601 0.079-0.192 0.196-0.365 0.343-0.511s0.32-0.263 0.511-0.343c0.184-0.076 0.385-0.119 0.601-0.119h2.427zM4 10.667h4v4h-4zM8 21.333h-4v-4h4zM4 24h4v4h-2.427c-0.216 0-0.417-0.043-0.601-0.119-0.192-0.079-0.365-0.196-0.511-0.343s-0.263-0.32-0.343-0.511c-0.076-0.184-0.119-0.385-0.119-0.601zM28 21.333h-4v-4h4zM24 24h4v2.427c0 0.216-0.043 0.417-0.119 0.601-0.079 0.192-0.196 0.365-0.343 0.511s-0.32 0.263-0.511 0.343c-0.184 0.076-0.385 0.119-0.601 0.119h-2.427zM28 8h-4v-4h2.427c0.216 0 0.417 0.043 0.601 0.119 0.192 0.079 0.365 0.196 0.511 0.343s0.263 0.32 0.343 0.511c0.076 0.184 0.119 0.385 0.119 0.601zM30.667 9.333v-3.76c0-0.572-0.113-1.12-0.321-1.621-0.216-0.52-0.531-0.987-0.92-1.376s-0.856-0.705-1.376-0.92c-0.503-0.209-1.051-0.323-1.623-0.323h-20.853c-0.572 0-1.12 0.113-1.621 0.321-0.52 0.216-0.987 0.531-1.376 0.92s-0.705 0.856-0.92 1.376c-0.209 0.503-0.323 1.051-0.323 1.623v20.853c0 0.572 0.113 1.12 0.321 1.621 0.216 0.52 0.531 0.987 0.92 1.376s0.856 0.705 1.376 0.92c0.503 0.209 1.051 0.323 1.623 0.323h20.853c0.572 0 1.12-0.113 1.621-0.321 0.52-0.216 0.987-0.531 1.376-0.92s0.705-0.856 0.92-1.376c0.209-0.503 0.323-1.051 0.323-1.623zM24 10.667h4v4h-4z"></path>
</svg>
