<!-- Generated by IcoMoon.io -->
<svg version="1.1" xmlns="http://www.w3.org/2000/svg" width="32" height="32" viewBox="0 0 32 32">
<title>filter</title>
<path d="M26.46 5.333l-8.812 10.419c-0.196 0.231-0.315 0.532-0.315 0.861v9.229l-2.667-1.333v-7.896c0.001-0.303-0.103-0.609-0.315-0.861l-8.812-10.419zM29.333 2.667h-26.667c-0.736 0-1.333 0.597-1.333 1.333 0 0.329 0.119 0.631 0.315 0.861l10.352 12.24v8.232c0 0.519 0.296 0.969 0.737 1.192l5.333 2.667c0.659 0.329 1.46 0.063 1.789-0.596 0.096-0.195 0.141-0.401 0.14-0.596v-10.899l10.352-12.24c0.476-0.563 0.405-1.404-0.157-1.879-0.252-0.213-0.559-0.317-0.861-0.316z"></path>
</svg>
