<!-- Generated by IcoMoon.io -->
<svg version="1.1" xmlns="http://www.w3.org/2000/svg" width="32" height="32" viewBox="0 0 32 32">
<title>flag</title>
<path d="M6.667 17.863v-13.145c0.079-0.039 0.168-0.080 0.271-0.123 0.649-0.268 1.825-0.595 3.729-0.595 0.531 0 1.037 0.055 1.535 0.151 0.327 0.063 0.651 0.144 0.976 0.239 0.224 0.065 0.449 0.139 0.675 0.217 0.544 0.188 1.081 0.403 1.653 0.632 0.397 0.159 0.812 0.325 1.235 0.483 0.176 0.065 0.356 0.131 0.537 0.193 0.259 0.089 0.524 0.176 0.796 0.255 0.393 0.115 0.8 0.217 1.223 0.299 0.643 0.124 1.319 0.199 2.037 0.199 1.723 0 3.031-0.231 4-0.529v13.145c-0.079 0.039-0.168 0.080-0.271 0.123-0.649 0.268-1.825 0.595-3.729 0.595-0.531 0-1.037-0.055-1.535-0.151-0.328-0.063-0.652-0.144-0.976-0.239-0.224-0.065-0.449-0.139-0.675-0.217-0.159-0.055-0.317-0.112-0.477-0.172-0.387-0.144-0.772-0.299-1.175-0.46-0.561-0.224-1.157-0.463-1.772-0.676-0.259-0.089-0.524-0.176-0.796-0.255-0.393-0.115-0.8-0.217-1.223-0.299-0.644-0.124-1.32-0.199-2.039-0.199-1.723 0-3.031 0.231-4 0.529zM6.667 29.333v-8.616c0.079-0.039 0.168-0.080 0.271-0.123 0.649-0.268 1.825-0.595 3.729-0.595 0.531 0 1.037 0.055 1.535 0.151 0.328 0.063 0.652 0.144 0.976 0.239 0.224 0.065 0.449 0.139 0.675 0.217 0.544 0.188 1.081 0.403 1.653 0.632 0.397 0.159 0.812 0.325 1.235 0.483 0.176 0.065 0.356 0.131 0.537 0.193 0.259 0.089 0.524 0.176 0.796 0.255 0.393 0.115 0.8 0.217 1.223 0.299 0.643 0.124 1.319 0.199 2.037 0.199 2.213 0 3.743-0.38 4.749-0.797 0.951-0.393 1.409-0.809 1.527-0.927 0.26-0.26 0.391-0.601 0.391-0.943v-16c0-0.736-0.597-1.333-1.333-1.333-0.353 0-0.675 0.137-0.913 0.361-0.035 0.028-0.244 0.192-0.692 0.377-0.648 0.268-1.824 0.595-3.728 0.595-0.531 0-1.037-0.055-1.535-0.151-0.328-0.063-0.652-0.144-0.976-0.239-0.224-0.065-0.449-0.139-0.675-0.217-0.159-0.055-0.317-0.112-0.477-0.172-0.387-0.144-0.772-0.299-1.175-0.46-0.561-0.224-1.157-0.463-1.772-0.676-0.259-0.089-0.524-0.176-0.796-0.255-0.393-0.115-0.8-0.217-1.223-0.299-0.644-0.124-1.32-0.199-2.039-0.199-2.213 0-3.743 0.38-4.749 0.797-0.951 0.393-1.409 0.809-1.527 0.927-0.26 0.26-0.391 0.601-0.391 0.943v25.333c0 0.736 0.597 1.333 1.333 1.333s1.333-0.597 1.333-1.333z"></path>
</svg>
