<!-- Generated by IcoMoon.io -->
<svg version="1.1" xmlns="http://www.w3.org/2000/svg" width="32" height="32" viewBox="0 0 32 32">
<title>gift</title>
<path d="M14.667 17.333v10.667h-8v-10.667zM17.333 28v-10.667h8v10.667zM10 8c-0.273 0-0.531-0.055-0.764-0.151-0.244-0.101-0.465-0.249-0.651-0.435s-0.333-0.407-0.435-0.649c-0.096-0.235-0.151-0.492-0.151-0.765s0.055-0.531 0.151-0.764c0.101-0.244 0.249-0.465 0.435-0.651s0.407-0.333 0.649-0.435c0.235-0.096 0.492-0.151 0.765-0.151 0.4 0 0.756 0.067 1.076 0.181 0.371 0.133 0.715 0.336 1.036 0.6 0.501 0.411 0.935 0.957 1.303 1.569 0.321 0.535 0.577 1.095 0.773 1.604zM17.795 8c0.215-0.555 0.469-1.115 0.791-1.649 0.367-0.612 0.801-1.159 1.301-1.569 0.321-0.264 0.665-0.467 1.036-0.599 0.321-0.116 0.677-0.183 1.077-0.183 0.273 0 0.531 0.055 0.764 0.151 0.244 0.101 0.464 0.249 0.649 0.435s0.333 0.407 0.435 0.649c0.097 0.235 0.152 0.492 0.152 0.765s-0.055 0.531-0.151 0.764c-0.101 0.244-0.249 0.464-0.435 0.649s-0.407 0.333-0.649 0.435c-0.235 0.097-0.492 0.152-0.765 0.152zM14.667 10.667v4h-10.667v-4h6zM26.217 8c0.033-0.071 0.065-0.143 0.096-0.215 0.228-0.552 0.353-1.156 0.353-1.785s-0.125-1.233-0.353-1.785c-0.237-0.572-0.584-1.085-1.013-1.515s-0.943-0.776-1.515-1.013c-0.552-0.228-1.156-0.353-1.785-0.353-0.708 0-1.368 0.121-1.973 0.337-0.697 0.249-1.304 0.617-1.829 1.048-0.804 0.659-1.424 1.471-1.897 2.259-0.107 0.177-0.207 0.355-0.3 0.531-0.093-0.176-0.193-0.353-0.3-0.531-0.473-0.788-1.093-1.6-1.897-2.259-0.524-0.431-1.132-0.799-1.829-1.048-0.605-0.216-1.265-0.337-1.973-0.337-0.629 0-1.233 0.125-1.785 0.353-0.572 0.237-1.085 0.584-1.515 1.013s-0.776 0.943-1.013 1.515c-0.228 0.552-0.353 1.156-0.353 1.785s0.125 1.233 0.353 1.785c0.031 0.072 0.063 0.144 0.096 0.215h-3.116c-0.736 0-1.333 0.597-1.333 1.333v6.667c0 0.736 0.597 1.333 1.333 1.333h1.333v12c0 0.736 0.597 1.333 1.333 1.333h21.333c0.736 0 1.333-0.597 1.333-1.333v-12h1.333c0.736 0 1.333-0.597 1.333-1.333v-6.667c0-0.736-0.597-1.333-1.333-1.333zM17.333 10.667h10.667v4h-10.667z"></path>
</svg>
