<!-- Generated by IcoMoon.io -->
<svg version="1.1" xmlns="http://www.w3.org/2000/svg" width="32" height="32" viewBox="0 0 32 32">
<title>git-commit</title>
<path d="M20 16c0 0.544-0.108 1.060-0.303 1.529-0.203 0.488-0.5 0.929-0.869 1.299s-0.811 0.667-1.299 0.869c-0.469 0.195-0.985 0.303-1.529 0.303s-1.060-0.108-1.529-0.303c-0.488-0.203-0.929-0.5-1.299-0.869s-0.667-0.811-0.869-1.299c-0.195-0.469-0.303-0.985-0.303-1.529s0.108-1.060 0.303-1.529c0.203-0.488 0.5-0.929 0.869-1.299s0.811-0.667 1.299-0.869c0.469-0.195 0.985-0.303 1.529-0.303s1.060 0.108 1.529 0.303c0.488 0.203 0.929 0.5 1.299 0.869s0.667 0.811 0.869 1.299c0.195 0.469 0.303 0.985 0.303 1.529zM22.68 17.333h7.933c0.736 0 1.333-0.597 1.333-1.333s-0.597-1.333-1.333-1.333h-7.933c-0.049 0-0.097 0.003-0.145 0.008-0.085-0.424-0.211-0.833-0.373-1.224-0.339-0.817-0.833-1.551-1.447-2.164s-1.348-1.109-2.164-1.447c-0.788-0.328-1.651-0.507-2.551-0.507s-1.763 0.179-2.549 0.505c-0.817 0.339-1.551 0.833-2.165 1.447s-1.109 1.348-1.447 2.164c-0.161 0.391-0.288 0.8-0.373 1.223-0.043-0.003-0.088-0.005-0.132-0.005h-7.933c-0.736 0-1.333 0.597-1.333 1.333s0.597 1.333 1.333 1.333h7.933c0.044 0 0.089-0.003 0.132-0.007 0.085 0.423 0.211 0.832 0.373 1.223 0.339 0.817 0.833 1.551 1.447 2.164s1.348 1.109 2.164 1.447c0.788 0.328 1.651 0.507 2.551 0.507s1.763-0.179 2.549-0.505c0.817-0.339 1.551-0.833 2.164-1.447s1.109-1.348 1.447-2.164c0.163-0.391 0.288-0.801 0.373-1.224 0.048 0.005 0.096 0.008 0.145 0.008z"></path>
</svg>
