<!-- Generated by IcoMoon.io -->
<svg version="1.1" xmlns="http://www.w3.org/2000/svg" width="32" height="32" viewBox="0 0 32 32">
<title>git-branch</title>
<path d="M26.667 8c0 0.364-0.072 0.707-0.201 1.020-0.135 0.325-0.333 0.619-0.58 0.867s-0.541 0.445-0.867 0.58c-0.312 0.128-0.655 0.2-1.019 0.2s-0.707-0.072-1.020-0.201c-0.325-0.135-0.619-0.333-0.867-0.58s-0.445-0.541-0.58-0.867c-0.128-0.312-0.2-0.655-0.2-1.019s0.072-0.707 0.201-1.020c0.135-0.325 0.333-0.619 0.58-0.867s0.541-0.445 0.867-0.58c0.312-0.128 0.655-0.2 1.019-0.2s0.707 0.072 1.020 0.201c0.325 0.135 0.619 0.333 0.867 0.58s0.445 0.541 0.58 0.867c0.128 0.312 0.2 0.655 0.2 1.019zM10.667 24c0 0.364-0.072 0.707-0.201 1.020-0.135 0.325-0.333 0.619-0.58 0.867s-0.541 0.445-0.867 0.58c-0.312 0.128-0.655 0.2-1.019 0.2s-0.707-0.072-1.020-0.201c-0.325-0.135-0.619-0.333-0.867-0.58s-0.445-0.541-0.58-0.867c-0.128-0.312-0.2-0.655-0.2-1.019s0.072-0.707 0.201-1.020c0.135-0.325 0.333-0.619 0.58-0.867s0.541-0.445 0.867-0.58c0.312-0.128 0.655-0.2 1.019-0.2s0.707 0.072 1.020 0.201c0.325 0.135 0.619 0.333 0.867 0.58s0.445 0.541 0.58 0.867c0.128 0.312 0.2 0.655 0.2 1.019zM22.605 13.149c-0.109 1.028-0.365 2.012-0.747 2.929-0.54 1.304-1.332 2.479-2.317 3.464s-2.16 1.777-3.464 2.317c-0.919 0.38-1.901 0.636-2.929 0.747-0.060-0.221-0.133-0.436-0.22-0.645-0.271-0.653-0.667-1.24-1.157-1.731s-1.077-0.889-1.731-1.16c-0.228-0.095-0.464-0.173-0.707-0.236v-14.835c0-0.736-0.597-1.333-1.333-1.333s-1.333 0.597-1.333 1.333v14.835c-0.243 0.063-0.479 0.141-0.707 0.236-0.653 0.271-1.24 0.667-1.731 1.157s-0.888 1.079-1.159 1.732c-0.26 0.631-0.404 1.32-0.404 2.040s0.144 1.409 0.404 2.040c0.271 0.653 0.667 1.24 1.157 1.731s1.077 0.887 1.731 1.157c0.632 0.261 1.321 0.405 2.041 0.405s1.409-0.144 2.040-0.404c0.653-0.271 1.24-0.667 1.731-1.157s0.887-1.077 1.157-1.731c0.101-0.244 0.185-0.497 0.249-0.757 1.376-0.12 2.695-0.451 3.921-0.959 1.632-0.676 3.1-1.667 4.329-2.895s2.219-2.696 2.895-4.329c0.508-1.227 0.839-2.545 0.959-3.921 0.26-0.064 0.513-0.148 0.757-0.249 0.653-0.271 1.24-0.667 1.731-1.157s0.887-1.077 1.157-1.731c0.263-0.633 0.407-1.323 0.407-2.043s-0.144-1.409-0.404-2.040c-0.271-0.653-0.667-1.24-1.157-1.731s-1.077-0.887-1.731-1.157c-0.632-0.261-1.321-0.405-2.041-0.405s-1.409 0.144-2.040 0.404c-0.653 0.271-1.24 0.667-1.731 1.157s-0.888 1.079-1.159 1.732c-0.26 0.631-0.404 1.32-0.404 2.040s0.144 1.409 0.404 2.040c0.271 0.653 0.667 1.24 1.157 1.731s1.077 0.887 1.731 1.157c0.209 0.087 0.424 0.16 0.645 0.22z"></path>
</svg>
