<!-- Generated by IcoMoon.io -->
<svg version="1.1" xmlns="http://www.w3.org/2000/svg" width="32" height="32" viewBox="0 0 32 32">
<title>github1</title>
<path d="M10.667 24.297c-0.533 0.109-0.989 0.151-1.377 0.148-0.448-0.003-0.812-0.067-1.116-0.163-0.308-0.097-0.576-0.235-0.819-0.403-0.159-0.109-0.312-0.236-0.461-0.376-0.104-0.097-0.205-0.201-0.307-0.312-0.245-0.267-0.471-0.553-0.724-0.875-0.139-0.176-0.287-0.364-0.439-0.547-0.061-0.073-0.124-0.148-0.189-0.223-0.089-0.101-0.183-0.204-0.281-0.305-0.133-0.137-0.277-0.273-0.433-0.404-0.215-0.179-0.455-0.348-0.725-0.491-0.247-0.131-0.515-0.236-0.805-0.309-0.715-0.179-1.439 0.256-1.617 0.971s0.256 1.439 0.971 1.617c0.068 0.017 0.136 0.043 0.207 0.080 0.079 0.041 0.165 0.1 0.264 0.181 0.072 0.060 0.148 0.131 0.229 0.215 0.060 0.061 0.121 0.129 0.187 0.203 0.047 0.053 0.095 0.111 0.144 0.169 0.125 0.151 0.252 0.312 0.395 0.493 0.244 0.309 0.529 0.673 0.853 1.025 0.139 0.152 0.287 0.304 0.447 0.455 0.231 0.217 0.485 0.429 0.771 0.625 0.443 0.305 0.948 0.568 1.532 0.752 0.575 0.181 1.205 0.281 1.9 0.287 0.44 0.003 0.905-0.032 1.396-0.107v2.328c0 0.736 0.597 1.333 1.333 1.333s1.333-0.597 1.333-1.333v-5.16c0-0.028-0.001-0.060-0.003-0.092-0.008-0.112-0.009-0.224-0.005-0.335 0.013-0.387 0.097-0.769 0.249-1.128 0.147-0.344 0.359-0.669 0.637-0.959 0.193-0.199 0.328-0.463 0.365-0.763 0.091-0.731-0.428-1.397-1.159-1.488-0.453-0.056-0.903-0.125-1.341-0.212-1.053-0.208-2.024-0.513-2.863-0.977-0.465-0.257-0.888-0.563-1.261-0.928-0.332-0.324-0.633-0.701-0.895-1.144-0.277-0.471-0.515-1.024-0.693-1.683-0.229-0.835-0.365-1.845-0.365-3.073-0.004-0.752 0.133-1.505 0.416-2.215 0.271-0.684 0.675-1.329 1.216-1.897 0.343-0.365 0.467-0.896 0.284-1.387-0.24-0.643-0.36-1.329-0.343-2.025 0.009-0.387 0.060-0.776 0.156-1.163 0.233 0.051 0.531 0.137 0.897 0.28 0.655 0.255 1.527 0.691 2.631 1.431 0.313 0.209 0.711 0.285 1.1 0.177 2.663-0.743 5.656-0.803 8.627 0.003 0.361 0.097 0.759 0.044 1.091-0.18 1.105-0.74 1.976-1.176 2.631-1.431 0.367-0.143 0.665-0.228 0.897-0.279 0.093 0.379 0.145 0.768 0.156 1.163 0.016 0.671-0.092 1.356-0.343 2.028-0.172 0.469-0.077 1.007 0.284 1.387 0.515 0.54 0.928 1.177 1.209 1.881 0.273 0.673 0.424 1.415 0.424 2.195 0 1.248-0.14 2.277-0.375 3.129-0.184 0.665-0.425 1.224-0.707 1.696-0.265 0.444-0.569 0.82-0.905 1.143-0.379 0.363-0.804 0.664-1.273 0.917-0.831 0.448-1.791 0.74-2.831 0.933-0.429 0.080-0.868 0.141-1.311 0.191-0.28 0.031-0.557 0.152-0.779 0.367-0.529 0.512-0.544 1.356-0.032 1.885 0.089 0.092 0.173 0.191 0.251 0.292 0.232 0.305 0.408 0.652 0.516 1.023 0.104 0.356 0.148 0.739 0.116 1.135 0 0.032-0.001 0.068-0.004 0.104v5.159c0 0.736 0.597 1.333 1.333 1.333s1.333-0.597 1.333-1.333v-5.111c0.049-0.705-0.031-1.392-0.22-2.039-0.049-0.168-0.107-0.333-0.169-0.496 1.036-0.228 2.084-0.569 3.063-1.097 0.656-0.355 1.283-0.793 1.851-1.339 0.507-0.485 0.963-1.049 1.352-1.701 0.413-0.693 0.745-1.475 0.988-2.353 0.309-1.12 0.471-2.393 0.471-3.837 0-1.125-0.217-2.203-0.613-3.191-0.308-0.768-0.723-1.48-1.225-2.119 0.197-0.748 0.283-1.504 0.264-2.249-0.025-1.041-0.252-2.057-0.655-2.995-0.163-0.377-0.479-0.643-0.847-0.752-0.195-0.057-0.681-0.153-1.484-0.032-0.465 0.071-1.029 0.213-1.701 0.475-0.745 0.289-1.624 0.725-2.645 1.372-3.031-0.721-6.076-0.679-8.861-0.003-1.020-0.645-1.897-1.080-2.641-1.369-0.672-0.261-1.236-0.404-1.701-0.475-0.803-0.123-1.289-0.027-1.484 0.032-0.395 0.117-0.695 0.4-0.847 0.753-0.417 0.976-0.629 1.992-0.653 2.996-0.017 0.765 0.073 1.521 0.265 2.248-0.524 0.663-0.936 1.385-1.236 2.143-0.409 1.032-0.609 2.124-0.603 3.213 0 1.408 0.157 2.659 0.457 3.761 0.237 0.871 0.563 1.645 0.969 2.335 0.383 0.649 0.832 1.213 1.332 1.7 0.561 0.547 1.18 0.989 1.829 1.349 1.003 0.555 2.080 0.913 3.143 1.156-0.248 0.625-0.383 1.283-0.405 1.943-0.007 0.188-0.004 0.376 0.007 0.564z"></path>
</svg>
