<!-- Generated by IcoMoon.io -->
<svg version="1.1" xmlns="http://www.w3.org/2000/svg" width="32" height="32" viewBox="0 0 32 32">
<title>gitlab</title>
<path d="M30.984 20.265c0.348-0.227 0.656-0.595 0.847-1.017 0.116-0.26 0.188-0.541 0.208-0.832 0.020-0.283-0.009-0.572-0.109-0.908l-1.688-4.999-3.243-9.979c-0.091-0.305-0.26-0.591-0.529-0.849-0.173-0.157-0.372-0.28-0.581-0.363-0.216-0.085-0.444-0.129-0.672-0.133-0.237-0.004-0.477 0.037-0.705 0.124-0.221 0.084-0.428 0.209-0.596 0.363-0.22 0.196-0.395 0.445-0.504 0.729-0.008 0.020-0.016 0.044-0.024 0.069l-2.956 9.089h-8.863l-2.943-9.031c-0.091-0.305-0.26-0.591-0.529-0.849-0.173-0.159-0.371-0.28-0.581-0.363-0.216-0.085-0.444-0.131-0.672-0.133-0.237-0.004-0.477 0.036-0.705 0.123-0.221 0.084-0.428 0.209-0.596 0.364-0.221 0.195-0.395 0.445-0.505 0.728-0.008 0.021-0.016 0.045-0.024 0.069l-3.255 10.016-1.627 5.040c-0.141 0.439-0.156 0.901-0.051 1.339 0.067 0.275 0.18 0.54 0.341 0.781 0.156 0.235 0.353 0.444 0.595 0.621l14.2 10.32c0.461 0.331 1.091 0.347 1.568 0zM29.337 18.165l-13.337 9.693-13.285-9.656 4.096-12.64 2.521 7.744c0.183 0.56 0.7 0.916 1.268 0.92h10.8c0.589 0 1.089-0.383 1.268-0.921l2.515-7.739 2.523 7.765z"></path>
</svg>
