<!-- Generated by IcoMoon.io -->
<svg version="1.1" xmlns="http://www.w3.org/2000/svg" width="32" height="32" viewBox="0 0 32 32">
<title>globe</title>
<path d="M22.601 14.667c-0.171-2.136-0.659-4.26-1.469-6.293-0.551-1.38-1.248-2.716-2.096-3.987 0.533 0.139 1.051 0.313 1.552 0.521 1.468 0.608 2.789 1.499 3.896 2.607 1.108 1.108 1.999 2.429 2.607 3.896 0.423 1.021 0.709 2.113 0.835 3.256zM19.039 27.612c0.819-1.228 1.516-2.548 2.075-3.94 0.792-1.973 1.304-4.093 1.484-6.339h5.329c-0.127 1.143-0.412 2.235-0.835 3.256-0.608 1.468-1.499 2.789-2.607 3.896s-2.429 1.999-3.896 2.607c-0.5 0.207-1.017 0.381-1.549 0.52zM9.399 17.333c0.171 2.136 0.659 4.26 1.469 6.293 0.551 1.38 1.248 2.716 2.096 3.987-0.533-0.139-1.051-0.313-1.552-0.521-1.468-0.608-2.789-1.499-3.896-2.607-1.108-1.108-1.999-2.429-2.607-3.896-0.424-1.021-0.711-2.113-0.836-3.256zM12.961 4.388c-0.819 1.228-1.516 2.547-2.075 3.94-0.792 1.973-1.304 4.093-1.485 6.339h-5.328c0.127-1.143 0.412-2.235 0.835-3.256 0.608-1.468 1.499-2.789 2.607-3.896s2.429-1.999 3.896-2.607c0.5-0.207 1.017-0.381 1.549-0.52zM15.996 1.333c-1.983 0-3.877 0.395-5.605 1.111-1.796 0.744-3.411 1.833-4.761 3.185s-2.441 2.965-3.185 4.761c-0.716 1.729-1.111 3.625-1.111 5.609s0.395 3.88 1.111 5.609c0.744 1.796 1.833 3.411 3.184 4.761s2.965 2.441 4.761 3.184c1.728 0.716 3.621 1.111 5.604 1.111 0.001 0 0.004 0 0.005 0s0.003 0 0.004 0c1.983 0 3.876-0.395 5.605-1.111 1.796-0.744 3.411-1.833 4.761-3.184s2.441-2.965 3.184-4.761c0.719-1.729 1.113-3.625 1.113-5.609s-0.395-3.88-1.111-5.609c-0.744-1.796-1.833-3.411-3.184-4.761s-2.965-2.441-4.761-3.184c-1.729-0.716-3.623-1.111-5.605-1.112-0.001 0-0.004 0-0.005 0s-0.003 0-0.004 0zM19.927 17.333c-0.169 1.86-0.613 3.664-1.288 5.345-0.667 1.661-1.559 3.205-2.637 4.589-1.123-1.443-2.008-3.004-2.656-4.631-0.684-1.715-1.107-3.504-1.271-5.305zM15.999 4.732c1.123 1.443 2.008 3.004 2.656 4.631 0.684 1.715 1.107 3.504 1.271 5.305h-7.852c0.169-1.86 0.613-3.664 1.288-5.345 0.667-1.661 1.559-3.205 2.637-4.589z"></path>
</svg>
