<!-- Generated by IcoMoon.io -->
<svg version="1.1" xmlns="http://www.w3.org/2000/svg" width="32" height="32" viewBox="0 0 32 32">
<title>hard-drive</title>
<path d="M28 17.333v6.667c0 0.183-0.036 0.355-0.1 0.509-0.067 0.163-0.167 0.309-0.291 0.433s-0.271 0.223-0.433 0.291c-0.155 0.064-0.327 0.1-0.509 0.1h-21.333c-0.183 0-0.355-0.036-0.509-0.1-0.163-0.067-0.309-0.167-0.433-0.291s-0.223-0.271-0.291-0.433c-0.064-0.155-0.1-0.327-0.1-0.509v-6.667zM8.459 7.411c0.088-0.175 0.213-0.328 0.363-0.449 0.117-0.095 0.249-0.169 0.391-0.22 0.136-0.048 0.284-0.075 0.441-0.075h12.684c0.2 0.001 0.393 0.045 0.568 0.125 0.137 0.063 0.263 0.148 0.371 0.252 0.104 0.101 0.193 0.221 0.265 0.367l3.633 7.256h-22.349zM6.075 6.216l-4.6 9.187c-0.037 0.073-0.067 0.149-0.088 0.225-0.037 0.125-0.055 0.251-0.053 0.372v8c0 0.54 0.108 1.057 0.304 1.531 0.203 0.491 0.5 0.931 0.868 1.299s0.808 0.665 1.299 0.868c0.472 0.195 0.989 0.303 1.529 0.303h21.333c0.54 0 1.057-0.108 1.531-0.304 0.491-0.203 0.931-0.5 1.299-0.868s0.665-0.808 0.868-1.299c0.195-0.472 0.303-0.989 0.303-1.529v-8c0 0 0 0 0 0 0-0.201-0.044-0.391-0.121-0.556-0.007-0.013-0.013-0.028-0.020-0.041l-0.012-0.024-4.588-9.163c-0.205-0.412-0.476-0.779-0.795-1.088-0.329-0.319-0.708-0.575-1.115-0.761-0.519-0.236-1.084-0.363-1.66-0.367h-12.703c-0.465 0-0.913 0.080-1.332 0.228-0.433 0.153-0.829 0.379-1.179 0.661-0.441 0.357-0.807 0.808-1.068 1.327zM9.333 21.333c0-0.736-0.597-1.333-1.333-1.333s-1.333 0.597-1.333 1.333 0.597 1.333 1.333 1.333 1.333-0.597 1.333-1.333zM14.667 21.333c0-0.736-0.597-1.333-1.333-1.333s-1.333 0.597-1.333 1.333 0.597 1.333 1.333 1.333 1.333-0.597 1.333-1.333z"></path>
</svg>
