<!-- Generated by IcoMoon.io -->
<svg version="1.1" xmlns="http://www.w3.org/2000/svg" width="32" height="32" viewBox="0 0 32 32">
<title>hash</title>
<path d="M18.955 13.333l-0.592 5.333h-5.317l0.592-5.333zM20.008 3.853l-0.757 6.813h-5.317l0.724-6.52c0.081-0.732-0.447-1.391-1.177-1.472s-1.391 0.447-1.472 1.179l-0.757 6.813h-5.917c-0.736 0-1.333 0.597-1.333 1.333s0.597 1.333 1.333 1.333h5.621l-0.592 5.333h-5.029c-0.736 0-1.333 0.597-1.333 1.333s0.597 1.333 1.333 1.333h4.732l-0.724 6.52c-0.081 0.732 0.447 1.391 1.177 1.472s1.391-0.447 1.472-1.177l0.759-6.815h5.317l-0.724 6.52c-0.081 0.732 0.447 1.391 1.177 1.472s1.391-0.447 1.472-1.177l0.757-6.815h5.917c0.736 0 1.333-0.597 1.333-1.333s-0.597-1.333-1.333-1.333h-5.621l0.592-5.333h5.029c0.736 0 1.333-0.597 1.333-1.333s-0.597-1.333-1.333-1.333h-4.732l0.724-6.52c0.081-0.732-0.447-1.391-1.177-1.472s-1.391 0.447-1.472 1.177z"></path>
</svg>
