<!-- Generated by IcoMoon.io -->
<svg version="1.1" xmlns="http://www.w3.org/2000/svg" width="32" height="32" viewBox="0 0 32 32">
<title>headphones</title>
<path d="M26.667 25.333c0 0.183-0.036 0.355-0.1 0.509-0.067 0.163-0.167 0.309-0.291 0.433s-0.271 0.223-0.433 0.291c-0.155 0.064-0.327 0.1-0.509 0.1h-1.333c-0.183 0-0.355-0.036-0.509-0.1-0.163-0.067-0.309-0.167-0.433-0.291s-0.223-0.271-0.291-0.433c-0.064-0.155-0.1-0.327-0.1-0.509v-4c0-0.183 0.036-0.355 0.1-0.509 0.067-0.163 0.167-0.309 0.291-0.433s0.271-0.223 0.433-0.291c0.155-0.064 0.327-0.1 0.509-0.1h2.667v4zM5.333 25.333v-5.333h2.667c0.183 0 0.355 0.036 0.509 0.1 0.163 0.067 0.309 0.167 0.433 0.291s0.223 0.271 0.291 0.433c0.064 0.155 0.1 0.327 0.1 0.509v4c0 0.183-0.036 0.355-0.1 0.509-0.067 0.163-0.167 0.309-0.291 0.433s-0.271 0.223-0.433 0.291c-0.155 0.064-0.327 0.1-0.509 0.1h-1.333c-0.183 0-0.355-0.036-0.509-0.1-0.163-0.067-0.309-0.167-0.433-0.291s-0.223-0.271-0.291-0.433c-0.064-0.155-0.1-0.327-0.1-0.509zM2.667 25.333c0 0.54 0.108 1.057 0.304 1.531 0.203 0.491 0.5 0.931 0.868 1.299s0.808 0.665 1.299 0.868c0.472 0.195 0.989 0.303 1.529 0.303h1.333c0.54 0 1.057-0.108 1.531-0.304 0.491-0.203 0.931-0.5 1.299-0.868s0.665-0.808 0.868-1.299c0.195-0.472 0.303-0.989 0.303-1.529v-4c0-0.54-0.108-1.057-0.304-1.531-0.203-0.491-0.5-0.931-0.868-1.299s-0.808-0.665-1.299-0.868c-0.472-0.195-0.989-0.303-1.529-0.303h-2.667v-1.333c0-1.447 0.288-2.824 0.807-4.079 0.54-1.304 1.332-2.479 2.317-3.464s2.16-1.777 3.464-2.317c1.255-0.519 2.632-0.807 4.079-0.807s2.824 0.288 4.079 0.807c1.304 0.54 2.479 1.332 3.464 2.317s1.777 2.16 2.317 3.464c0.519 1.255 0.807 2.632 0.807 4.079v1.333h-2.667c-0.54 0-1.057 0.108-1.531 0.304-0.491 0.203-0.931 0.5-1.299 0.868s-0.665 0.808-0.868 1.299c-0.195 0.472-0.303 0.989-0.303 1.529v4c0 0.54 0.108 1.057 0.304 1.531 0.203 0.491 0.5 0.931 0.868 1.299s0.808 0.665 1.299 0.868c0.472 0.195 0.989 0.303 1.529 0.303h1.333c0.54 0 1.057-0.108 1.531-0.304 0.491-0.203 0.931-0.5 1.299-0.868s0.665-0.808 0.868-1.299c0.195-0.472 0.303-0.989 0.303-1.529v-9.333c0-1.804-0.359-3.527-1.011-5.099-0.676-1.632-1.667-3.1-2.895-4.329-1.228-1.228-2.696-2.219-4.329-2.895-1.572-0.652-3.295-1.011-5.099-1.011s-3.527 0.359-5.099 1.011c-1.633 0.676-3.101 1.667-4.329 2.895s-2.219 2.696-2.895 4.329c-0.652 1.572-1.011 3.295-1.011 5.099v8z"></path>
</svg>
