<!-- Generated by IcoMoon.io -->
<svg version="1.1" xmlns="http://www.w3.org/2000/svg" width="32" height="32" viewBox="0 0 32 32">
<title>heart</title>
<path d="M26.844 7.089c0.579 0.579 1.012 1.241 1.303 1.945 0.304 0.733 0.456 1.516 0.456 2.3s-0.153 1.567-0.456 2.3c-0.292 0.705-0.725 1.367-1.301 1.943l-10.845 10.844-10.844-10.844c-0.576-0.576-1.009-1.239-1.301-1.944-0.304-0.733-0.456-1.516-0.456-2.3s0.152-1.567 0.456-2.3c0.292-0.705 0.725-1.367 1.301-1.944s1.239-1.009 1.944-1.301c0.733-0.304 1.516-0.456 2.3-0.456s1.567 0.152 2.3 0.456c0.705 0.292 1.367 0.725 1.944 1.301l1.413 1.413c0.521 0.521 1.365 0.521 1.885 0l1.416-1.416c0.576-0.576 1.239-1.009 1.944-1.301 0.733-0.304 1.516-0.456 2.3-0.456s1.567 0.153 2.3 0.456c0.705 0.292 1.367 0.725 1.943 1.301zM28.729 5.204c-0.828-0.828-1.785-1.456-2.808-1.88-1.061-0.44-2.191-0.66-3.32-0.66s-2.259 0.219-3.32 0.659c-1.023 0.424-1.98 1.051-2.809 1.879l-0.472 0.473-0.471-0.471c-0.828-0.828-1.785-1.456-2.809-1.88-1.061-0.44-2.192-0.659-3.32-0.659s-2.259 0.219-3.32 0.659c-1.023 0.424-1.98 1.051-2.809 1.88s-1.456 1.785-1.88 2.809c-0.44 1.061-0.659 2.191-0.659 3.32s0.22 2.259 0.659 3.32c0.424 1.023 1.051 1.98 1.88 2.809l11.787 11.787c0.521 0.521 1.365 0.521 1.885 0l11.787-11.787c0.828-0.828 1.456-1.785 1.88-2.808 0.44-1.061 0.66-2.191 0.66-3.32s-0.219-2.259-0.659-3.32c-0.424-1.023-1.051-1.98-1.881-2.811z"></path>
</svg>
