<!-- Generated by IcoMoon.io -->
<svg version="1.1" xmlns="http://www.w3.org/2000/svg" width="32" height="32" viewBox="0 0 32 32">
<title>help-circle</title>
<path d="M30.667 16c0-1.984-0.395-3.88-1.111-5.609-0.744-1.796-1.833-3.411-3.184-4.761s-2.965-2.441-4.761-3.184c-1.731-0.717-3.627-1.112-5.611-1.112s-3.88 0.395-5.609 1.111c-1.796 0.744-3.411 1.833-4.761 3.185s-2.441 2.965-3.185 4.761c-0.716 1.729-1.111 3.625-1.111 5.609s0.395 3.88 1.111 5.609c0.744 1.796 1.833 3.411 3.184 4.761s2.965 2.441 4.761 3.184c1.731 0.717 3.627 1.112 5.611 1.112s3.88-0.395 5.609-1.111c1.796-0.744 3.411-1.833 4.761-3.184s2.441-2.965 3.184-4.761c0.717-1.731 1.112-3.627 1.112-5.611zM28 16c0 1.628-0.324 3.177-0.908 4.589-0.608 1.468-1.499 2.789-2.607 3.896s-2.429 1.999-3.896 2.607c-1.412 0.584-2.961 0.908-4.589 0.908s-3.177-0.324-4.589-0.908c-1.468-0.608-2.789-1.499-3.896-2.607-1.108-1.108-1.999-2.429-2.607-3.896-0.584-1.412-0.908-2.961-0.908-4.589s0.324-3.177 0.908-4.589c0.608-1.468 1.499-2.789 2.607-3.896s2.429-1.999 3.896-2.607c1.412-0.584 2.961-0.908 4.589-0.908s3.177 0.324 4.589 0.908c1.468 0.608 2.789 1.499 3.896 2.607 1.108 1.108 1.999 2.429 2.607 3.896 0.584 1.412 0.908 2.961 0.908 4.589zM13.377 12.443c0.121-0.343 0.303-0.643 0.528-0.895 0.235-0.263 0.52-0.473 0.835-0.625s0.657-0.24 1.009-0.26c0.337-0.019 0.685 0.028 1.028 0.148 0.303 0.107 0.571 0.26 0.803 0.449 0.239 0.196 0.44 0.432 0.597 0.696 0.244 0.409 0.38 0.887 0.381 1.383 0 0.097-0.012 0.196-0.035 0.292-0.025 0.108-0.065 0.216-0.121 0.328-0.107 0.213-0.271 0.433-0.491 0.653-0.273 0.273-0.607 0.521-0.957 0.737-0.291 0.18-0.579 0.328-0.827 0.444-0.175 0.081-0.327 0.145-0.441 0.192-0.071 0.028-0.127 0.049-0.164 0.063-0.751 0.252-1.129 1.007-0.896 1.705s0.988 1.076 1.687 0.843c0.033-0.011 0.415-0.14 0.945-0.388 0.32-0.149 0.701-0.347 1.097-0.591 0.469-0.289 0.981-0.661 1.44-1.12 0.372-0.372 0.727-0.819 0.991-1.347 0.14-0.28 0.255-0.583 0.331-0.908 0.069-0.291 0.107-0.595 0.107-0.917-0.005-0.975-0.272-1.916-0.756-2.732-0.313-0.527-0.717-1-1.2-1.396-0.468-0.384-1.008-0.692-1.607-0.903-0.679-0.239-1.377-0.332-2.059-0.296-0.707 0.039-1.392 0.217-2.017 0.517s-1.192 0.724-1.665 1.252c-0.455 0.507-0.819 1.111-1.057 1.789-0.245 0.695 0.12 1.456 0.815 1.7s1.456-0.121 1.7-0.815zM17.333 22.667c0-0.736-0.597-1.333-1.333-1.333s-1.333 0.597-1.333 1.333 0.597 1.333 1.333 1.333 1.333-0.597 1.333-1.333z"></path>
</svg>
