<!-- Generated by IcoMoon.io -->
<svg version="1.1" xmlns="http://www.w3.org/2000/svg" width="32" height="32" viewBox="0 0 32 32">
<title>home</title>
<path d="M3.181 10.948c-0.315 0.245-0.515 0.625-0.515 1.052v14.667c0 0.54 0.108 1.057 0.304 1.531 0.203 0.491 0.5 0.931 0.868 1.299s0.808 0.665 1.299 0.868c0.472 0.195 0.989 0.303 1.529 0.303h18.667c0.54 0 1.057-0.108 1.531-0.304 0.491-0.203 0.931-0.5 1.299-0.868s0.665-0.808 0.868-1.299c0.195-0.472 0.303-0.989 0.303-1.529v-14.667c-0.001-0.4-0.179-0.791-0.515-1.052l-12-9.333c-0.477-0.367-1.148-0.38-1.637 0zM21.333 28v-12c0-0.736-0.597-1.333-1.333-1.333h-8c-0.736 0-1.333 0.597-1.333 1.333v12h-4c-0.183 0-0.355-0.036-0.509-0.1-0.163-0.067-0.309-0.167-0.433-0.291s-0.223-0.271-0.291-0.433c-0.064-0.155-0.1-0.327-0.1-0.509v-14.015l10.667-8.296 10.667 8.296v14.015c0 0.183-0.036 0.355-0.1 0.509-0.067 0.163-0.167 0.309-0.291 0.433s-0.271 0.223-0.433 0.291c-0.155 0.064-0.327 0.1-0.509 0.1zM13.333 28v-10.667h5.333v10.667z"></path>
</svg>
