<!-- Generated by IcoMoon.io -->
<svg version="1.1" xmlns="http://www.w3.org/2000/svg" width="32" height="32" viewBox="0 0 32 32">
<title>image</title>
<path d="M14.667 11.333c0-0.449-0.089-0.88-0.253-1.275-0.169-0.409-0.417-0.776-0.724-1.081s-0.672-0.555-1.081-0.724c-0.395-0.164-0.825-0.253-1.275-0.253s-0.88 0.089-1.275 0.253c-0.409 0.169-0.776 0.416-1.083 0.723s-0.553 0.673-0.723 1.083c-0.164 0.395-0.253 0.825-0.253 1.275s0.089 0.88 0.253 1.275c0.169 0.409 0.417 0.776 0.724 1.081s0.673 0.553 1.081 0.724c0.395 0.164 0.825 0.253 1.275 0.253s0.88-0.089 1.275-0.253c0.409-0.169 0.776-0.417 1.081-0.724s0.553-0.673 0.724-1.081c0.164-0.395 0.253-0.825 0.253-1.275zM12 11.333c0 0.093-0.019 0.177-0.049 0.255-0.033 0.080-0.084 0.155-0.145 0.217s-0.137 0.112-0.217 0.145c-0.077 0.031-0.161 0.049-0.255 0.049s-0.177-0.019-0.255-0.049c-0.080-0.033-0.155-0.084-0.217-0.145s-0.112-0.137-0.145-0.217c-0.031-0.077-0.049-0.161-0.049-0.255s0.019-0.177 0.049-0.255c0.033-0.080 0.084-0.155 0.145-0.217s0.136-0.112 0.217-0.145c0.077-0.031 0.161-0.049 0.255-0.049s0.177 0.019 0.255 0.049c0.080 0.033 0.155 0.084 0.217 0.145s0.112 0.136 0.145 0.217c0.031 0.077 0.049 0.161 0.049 0.255zM9.885 26.667l11.448-11.448 5.333 5.333v4.781c0 0.183-0.036 0.355-0.1 0.509-0.067 0.163-0.167 0.309-0.291 0.433s-0.271 0.223-0.433 0.291c-0.155 0.064-0.327 0.1-0.509 0.1zM6.668 29.333h18.665c0.54 0 1.057-0.108 1.531-0.304 0.491-0.203 0.931-0.5 1.299-0.868s0.665-0.808 0.868-1.299c0.195-0.472 0.303-0.989 0.303-1.529v-18.667c0-0.54-0.108-1.057-0.304-1.531-0.203-0.491-0.5-0.931-0.868-1.299s-0.808-0.665-1.299-0.868c-0.472-0.195-0.989-0.303-1.529-0.303h-18.667c-0.54 0-1.057 0.108-1.531 0.304-0.489 0.203-0.929 0.5-1.297 0.868s-0.665 0.808-0.868 1.297c-0.196 0.473-0.304 0.991-0.304 1.531v18.667c0 0.54 0.108 1.057 0.304 1.531 0.203 0.491 0.5 0.931 0.868 1.299s0.808 0.665 1.299 0.868c0.472 0.195 0.989 0.303 1.528 0.303 0 0 0.001 0 0.001 0zM26.667 16.781l-4.391-4.391c-0.521-0.521-1.365-0.521-1.885 0l-14.192 14.192c-0.013-0.005-0.028-0.011-0.041-0.016-0.163-0.067-0.309-0.167-0.433-0.291s-0.223-0.271-0.291-0.433c-0.064-0.155-0.1-0.327-0.1-0.509v-18.667c0-0.183 0.036-0.355 0.1-0.509 0.067-0.163 0.167-0.309 0.291-0.433s0.271-0.223 0.433-0.291c0.155-0.064 0.327-0.1 0.509-0.1h18.667c0.183 0 0.355 0.036 0.509 0.1 0.163 0.067 0.309 0.167 0.433 0.291s0.223 0.271 0.291 0.433c0.064 0.155 0.1 0.327 0.1 0.509z"></path>
</svg>
