<!-- Generated by IcoMoon.io -->
<svg version="1.1" xmlns="http://www.w3.org/2000/svg" width="32" height="32" viewBox="0 0 32 32">
<title>instagram1</title>
<path d="M9.333 1.333c-1.081 0-2.116 0.215-3.060 0.607-0.98 0.405-1.86 1-2.597 1.736s-1.331 1.617-1.736 2.597c-0.392 0.944-0.607 1.979-0.607 3.060v13.333c0 1.081 0.215 2.116 0.607 3.060 0.405 0.98 1 1.86 1.737 2.597s1.617 1.331 2.597 1.737c0.943 0.391 1.977 0.605 3.059 0.605h13.333c1.081 0 2.116-0.215 3.060-0.607 0.98-0.405 1.86-1 2.597-1.737s1.331-1.617 1.737-2.597c0.391-0.943 0.605-1.977 0.605-3.059v-13.333c0-1.081-0.215-2.116-0.607-3.060-0.405-0.98-1-1.86-1.737-2.597s-1.617-1.331-2.597-1.737c-0.943-0.391-1.977-0.605-3.059-0.605zM9.333 4h13.333c0.725 0 1.413 0.144 2.039 0.404 0.652 0.269 1.239 0.667 1.732 1.159s0.889 1.080 1.159 1.732c0.26 0.625 0.404 1.313 0.404 2.039v13.333c0 0.725-0.144 1.413-0.404 2.039-0.269 0.652-0.667 1.239-1.159 1.732s-1.080 0.889-1.732 1.159c-0.625 0.26-1.313 0.404-2.039 0.404h-13.333c-0.725 0-1.413-0.144-2.039-0.404-0.652-0.269-1.239-0.667-1.732-1.159s-0.889-1.080-1.159-1.732c-0.26-0.625-0.404-1.313-0.404-2.039v-13.333c0-0.725 0.144-1.413 0.404-2.039 0.269-0.652 0.667-1.239 1.159-1.732s1.080-0.889 1.732-1.159c0.625-0.26 1.313-0.404 2.039-0.404zM22.652 14.964c-0.2-1.296-0.761-2.476-1.592-3.423-0.511-0.583-1.123-1.077-1.816-1.456-0.671-0.367-1.415-0.62-2.196-0.736-0.619-0.099-1.293-0.103-1.969-0.003-0.891 0.132-1.717 0.436-2.448 0.873-0.759 0.455-1.412 1.052-1.928 1.749s-0.899 1.497-1.113 2.355c-0.207 0.827-0.257 1.705-0.125 2.596s0.436 1.717 0.873 2.448c0.455 0.759 1.052 1.412 1.749 1.928s1.496 0.899 2.353 1.115c0.827 0.207 1.705 0.257 2.596 0.125s1.717-0.436 2.448-0.873c0.759-0.455 1.412-1.052 1.928-1.749s0.899-1.496 1.115-2.353c0.207-0.827 0.257-1.705 0.125-2.596zM20.015 15.356c0.080 0.539 0.049 1.064-0.075 1.557-0.128 0.513-0.357 0.992-0.669 1.412s-0.704 0.779-1.157 1.051c-0.436 0.261-0.931 0.444-1.468 0.524s-1.064 0.049-1.557-0.075c-0.513-0.128-0.992-0.357-1.412-0.669s-0.779-0.704-1.051-1.157c-0.261-0.436-0.444-0.931-0.524-1.468s-0.049-1.064 0.075-1.557c0.128-0.513 0.357-0.992 0.669-1.412s0.704-0.779 1.157-1.051c0.436-0.261 0.931-0.444 1.468-0.524 0.417-0.061 0.82-0.056 1.16-0.003 0.493 0.073 0.939 0.227 1.337 0.444 0.413 0.225 0.78 0.521 1.087 0.872 0.5 0.571 0.84 1.284 0.96 2.057zM24.667 8.667c0-0.736-0.597-1.333-1.333-1.333s-1.333 0.597-1.333 1.333 0.597 1.333 1.333 1.333 1.333-0.597 1.333-1.333z"></path>
</svg>
