<!-- Generated by IcoMoon.io -->
<svg version="1.1" xmlns="http://www.w3.org/2000/svg" width="32" height="32" viewBox="0 0 32 32">
<title>key</title>
<path d="M25.333 7.219l2.115 2.115-2.781 2.781-2.115-2.115zM14.251 16.429c0.58 0.572 1.017 1.231 1.313 1.933 0.308 0.731 0.467 1.513 0.472 2.296s-0.141 1.567-0.44 2.303c-0.287 0.707-0.716 1.372-1.288 1.952s-1.232 1.017-1.935 1.315c-0.731 0.308-1.513 0.467-2.296 0.472-0.784 0.005-1.567-0.141-2.303-0.44-0.707-0.287-1.372-0.716-1.952-1.288l-0.056-0.056c-0.557-0.577-0.979-1.247-1.259-1.956-0.291-0.739-0.429-1.524-0.416-2.307s0.18-1.564 0.496-2.291c0.304-0.7 0.748-1.353 1.335-1.92 0.577-0.557 1.235-0.975 1.932-1.253 0.724-0.291 1.495-0.433 2.267-0.429 0.761 0.004 1.52 0.152 2.235 0.443 0.689 0.28 1.337 0.693 1.896 1.229zM27.057 1.724l-11.959 11.959c-0.551-0.389-1.133-0.707-1.74-0.953-1.032-0.42-2.128-0.633-3.224-0.639-1.111-0.007-2.224 0.2-3.273 0.621-1.012 0.405-1.963 1.009-2.792 1.811-0.843 0.813-1.487 1.76-1.928 2.775-0.459 1.053-0.697 2.18-0.716 3.308s0.18 2.261 0.601 3.331c0.405 1.031 1.016 1.997 1.84 2.849l0.083 0.083c0.833 0.823 1.795 1.444 2.821 1.86 1.064 0.432 2.196 0.644 3.324 0.637s2.257-0.235 3.316-0.681c1.020-0.431 1.973-1.064 2.796-1.899s1.444-1.795 1.86-2.821c0.432-1.064 0.644-2.196 0.637-3.324s-0.235-2.257-0.681-3.316c-0.263-0.623-0.601-1.221-1.016-1.78l3.66-3.659 3.057 3.057c0.521 0.521 1.365 0.521 1.885 0l4.667-4.667c0.521-0.521 0.521-1.365 0-1.885l-3.057-3.057 1.724-1.724c0.521-0.521 0.521-1.365 0-1.885s-1.365-0.521-1.885 0z"></path>
</svg>
