<!-- Generated by IcoMoon.io -->
<svg version="1.1" xmlns="http://www.w3.org/2000/svg" width="32" height="32" viewBox="0 0 32 32">
<title>layers</title>
<path d="M16 4.157l10.352 5.176-10.352 5.176-10.352-5.176zM15.404 1.475l-13.333 6.667c-0.659 0.329-0.925 1.129-0.596 1.788 0.135 0.271 0.348 0.475 0.596 0.596l13.333 6.667c0.389 0.195 0.827 0.181 1.192 0l13.333-6.667c0.659-0.329 0.925-1.131 0.596-1.789-0.135-0.269-0.349-0.473-0.596-0.596l-13.333-6.667c-0.389-0.195-0.827-0.181-1.192 0zM2.071 23.859l13.333 6.667c0.389 0.195 0.827 0.181 1.192 0l13.333-6.667c0.659-0.329 0.925-1.131 0.596-1.789s-1.131-0.925-1.789-0.596l-12.736 6.369-12.737-6.368c-0.659-0.329-1.46-0.063-1.789 0.596s-0.063 1.46 0.596 1.789zM2.071 17.192l13.333 6.667c0.389 0.195 0.827 0.181 1.192 0l13.333-6.667c0.659-0.329 0.925-1.131 0.596-1.789s-1.131-0.925-1.789-0.596l-12.736 6.369-12.737-6.368c-0.659-0.329-1.46-0.063-1.789 0.596s-0.063 1.46 0.596 1.789z"></path>
</svg>
