<!-- Generated by IcoMoon.io -->
<svg version="1.1" xmlns="http://www.w3.org/2000/svg" width="32" height="32" viewBox="0 0 32 32">
<title>life-buoy</title>
<path d="M30.667 16c0-1.984-0.395-3.88-1.111-5.609-0.744-1.796-1.833-3.411-3.184-4.761s-2.965-2.441-4.761-3.184c-1.731-0.717-3.627-1.112-5.611-1.112s-3.88 0.395-5.609 1.111c-1.796 0.744-3.411 1.833-4.761 3.185s-2.441 2.965-3.185 4.761c-0.716 1.729-1.111 3.625-1.111 5.609s0.395 3.88 1.111 5.609c0.744 1.796 1.833 3.411 3.184 4.761s2.965 2.441 4.761 3.184c1.731 0.717 3.627 1.112 5.611 1.112s3.88-0.395 5.609-1.111c1.796-0.744 3.411-1.833 4.761-3.184s2.441-2.965 3.184-4.761c0.717-1.731 1.112-3.627 1.112-5.611zM20 16c0 0.544-0.108 1.060-0.303 1.529-0.203 0.488-0.5 0.929-0.869 1.299s-0.811 0.667-1.299 0.869c-0.469 0.195-0.985 0.303-1.529 0.303s-1.060-0.108-1.529-0.303c-0.488-0.203-0.929-0.5-1.299-0.869s-0.667-0.811-0.869-1.299c-0.195-0.469-0.303-0.985-0.303-1.529s0.108-1.060 0.303-1.529c0.203-0.488 0.5-0.929 0.869-1.299s0.811-0.667 1.299-0.869c0.469-0.195 0.985-0.303 1.529-0.303s1.060 0.108 1.529 0.303c0.488 0.203 0.929 0.5 1.299 0.869s0.667 0.811 0.869 1.299c0.195 0.469 0.303 0.985 0.303 1.529zM19.676 10.437c-0.353-0.233-0.731-0.435-1.127-0.599-0.787-0.327-1.649-0.505-2.549-0.505s-1.763 0.179-2.549 0.505c-0.397 0.164-0.773 0.365-1.127 0.599l-3.813-3.813c0.876-0.701 1.852-1.281 2.901-1.716 1.411-0.584 2.96-0.908 4.588-0.908s3.177 0.324 4.589 0.908c1.051 0.435 2.025 1.015 2.901 1.716zM21.563 12.324l3.813-3.813c0.701 0.876 1.281 1.852 1.716 2.901 0.584 1.411 0.908 2.96 0.908 4.588s-0.324 3.177-0.908 4.589c-0.435 1.051-1.015 2.025-1.716 2.901l-3.813-3.813c0.233-0.353 0.435-0.731 0.599-1.127 0.327-0.788 0.505-1.651 0.505-2.551s-0.179-1.763-0.505-2.549c-0.164-0.396-0.365-0.773-0.599-1.127zM10.437 19.676l-3.813 3.813c-0.701-0.876-1.281-1.852-1.716-2.901-0.584-1.411-0.908-2.96-0.908-4.588s0.324-3.177 0.908-4.589c0.435-1.051 1.015-2.025 1.716-2.901l3.813 3.813c-0.233 0.355-0.435 0.731-0.599 1.128-0.327 0.787-0.505 1.649-0.505 2.549s0.179 1.763 0.505 2.549c0.164 0.396 0.365 0.773 0.599 1.127zM8.509 25.376l3.813-3.813c0.353 0.233 0.731 0.435 1.127 0.599 0.788 0.327 1.651 0.505 2.551 0.505s1.763-0.179 2.549-0.505c0.396-0.164 0.773-0.365 1.127-0.599l3.813 3.813c-0.876 0.701-1.852 1.281-2.901 1.716-1.411 0.584-2.96 0.908-4.588 0.908s-3.177-0.324-4.589-0.908c-1.051-0.435-2.025-1.015-2.901-1.716z"></path>
</svg>
