<!-- Generated by IcoMoon.io -->
<svg version="1.1" xmlns="http://www.w3.org/2000/svg" width="32" height="32" viewBox="0 0 32 32">
<title>link-2</title>
<path d="M20 10.667h4c0.725 0 1.413 0.144 2.039 0.404 0.652 0.269 1.239 0.667 1.732 1.159s0.889 1.080 1.159 1.732c0.26 0.625 0.404 1.313 0.404 2.039s-0.144 1.413-0.404 2.039c-0.269 0.652-0.667 1.239-1.159 1.732s-1.080 0.889-1.732 1.159c-0.625 0.26-1.313 0.404-2.039 0.404h-4c-0.736 0-1.333 0.597-1.333 1.333s0.597 1.333 1.333 1.333h4c1.081 0 2.116-0.215 3.060-0.607 0.98-0.405 1.86-1 2.597-1.737s1.331-1.617 1.737-2.597c0.391-0.943 0.605-1.977 0.605-3.059s-0.215-2.116-0.607-3.060c-0.405-0.98-1-1.86-1.737-2.597s-1.617-1.331-2.597-1.737c-0.943-0.391-1.977-0.605-3.059-0.605h-4c-0.736 0-1.333 0.597-1.333 1.333s0.597 1.333 1.333 1.333zM12 21.333h-4c-0.725 0-1.413-0.144-2.039-0.404-0.652-0.269-1.239-0.667-1.732-1.159s-0.889-1.080-1.159-1.732c-0.26-0.625-0.404-1.313-0.404-2.039s0.144-1.413 0.404-2.039c0.269-0.652 0.667-1.239 1.159-1.732s1.080-0.889 1.732-1.159c0.625-0.26 1.313-0.404 2.039-0.404h4c0.736 0 1.333-0.597 1.333-1.333s-0.597-1.333-1.333-1.333h-4c-1.081 0-2.116 0.215-3.060 0.607-0.98 0.405-1.86 1-2.597 1.736s-1.331 1.617-1.736 2.597c-0.392 0.944-0.607 1.979-0.607 3.060s0.215 2.116 0.607 3.060c0.405 0.98 1 1.86 1.737 2.597s1.617 1.331 2.597 1.737c0.943 0.391 1.977 0.605 3.059 0.605h4c0.736 0 1.333-0.597 1.333-1.333s-0.597-1.333-1.333-1.333zM10.667 17.333h10.667c0.736 0 1.333-0.597 1.333-1.333s-0.597-1.333-1.333-1.333h-10.667c-0.736 0-1.333 0.597-1.333 1.333s0.597 1.333 1.333 1.333z"></path>
</svg>
