<!-- Generated by IcoMoon.io -->
<svg version="1.1" xmlns="http://www.w3.org/2000/svg" width="32" height="32" viewBox="0 0 32 32">
<title>link</title>
<path d="M12.265 18.132c0.648 0.865 1.44 1.565 2.319 2.087 0.912 0.541 1.916 0.891 2.947 1.040s2.092 0.097 3.12-0.165c0.991-0.252 1.948-0.7 2.813-1.347 0.319-0.239 0.62-0.5 0.873-0.757l3.993-3.992c0.767-0.795 1.331-1.688 1.705-2.639 0.389-0.987 0.573-2.033 0.555-3.075s-0.239-2.081-0.661-3.053c-0.408-0.937-1.001-1.811-1.78-2.561-0.765-0.739-1.643-1.297-2.577-1.672-0.969-0.388-1.996-0.579-3.021-0.573-1.012 0.005-2.023 0.203-2.976 0.589-0.921 0.375-1.785 0.927-2.54 1.653l-2.308 2.295c-0.523 0.519-0.525 1.364-0.005 1.885s1.364 0.525 1.885 0.005l2.279-2.265c0.505-0.488 1.081-0.855 1.695-1.104 0.635-0.259 1.309-0.389 1.987-0.393 0.685-0.004 1.371 0.124 2.015 0.381 0.62 0.248 1.204 0.619 1.717 1.115 0.521 0.504 0.916 1.085 1.187 1.707 0.281 0.647 0.429 1.34 0.441 2.037s-0.111 1.395-0.369 2.051c-0.248 0.631-0.623 1.225-1.111 1.731l-4.007 4.008c-0.152 0.155-0.351 0.329-0.571 0.493-0.58 0.435-1.217 0.731-1.875 0.899-0.684 0.175-1.391 0.209-2.081 0.109s-1.359-0.333-1.965-0.693c-0.583-0.347-1.111-0.811-1.544-1.391-0.441-0.589-1.276-0.711-1.867-0.269s-0.711 1.276-0.269 1.867zM19.735 13.868c-0.648-0.865-1.44-1.565-2.319-2.087-0.912-0.541-1.916-0.891-2.947-1.040s-2.092-0.097-3.12 0.165c-0.991 0.252-1.948 0.7-2.813 1.347-0.319 0.239-0.62 0.5-0.873 0.757l-3.993 3.992c-0.767 0.795-1.331 1.688-1.705 2.639-0.389 0.987-0.573 2.033-0.555 3.075s0.239 2.081 0.661 3.053c0.408 0.937 1.001 1.811 1.78 2.561 0.765 0.739 1.643 1.297 2.577 1.672 0.969 0.388 1.996 0.579 3.021 0.573 1.012-0.005 2.023-0.203 2.976-0.589 0.921-0.375 1.785-0.927 2.54-1.653l2.297-2.297c0.521-0.521 0.521-1.365 0-1.885s-1.365-0.521-1.885 0l-2.263 2.263c-0.505 0.488-1.081 0.855-1.695 1.104-0.635 0.257-1.309 0.389-1.987 0.393-0.685 0.004-1.371-0.124-2.015-0.381-0.62-0.248-1.204-0.619-1.717-1.115-0.521-0.504-0.916-1.085-1.187-1.707-0.281-0.647-0.429-1.34-0.441-2.037s0.111-1.395 0.369-2.051c0.248-0.631 0.623-1.225 1.111-1.731l4.007-4.008c0.152-0.155 0.351-0.329 0.571-0.493 0.58-0.435 1.217-0.731 1.875-0.899 0.684-0.175 1.391-0.209 2.081-0.109s1.359 0.333 1.965 0.693c0.583 0.347 1.111 0.811 1.544 1.391 0.441 0.589 1.276 0.711 1.867 0.269s0.711-1.276 0.269-1.867z"></path>
</svg>
