<!-- Generated by IcoMoon.io -->
<svg version="1.1" xmlns="http://www.w3.org/2000/svg" width="32" height="32" viewBox="0 0 32 32">
<title>linkedin</title>
<path d="M21.333 9.333c-1.261 0-2.468 0.251-3.569 0.707-1.143 0.473-2.171 1.167-3.031 2.027s-1.553 1.887-2.027 3.031c-0.456 1.101-0.707 2.308-0.707 3.569v9.333c0 0.736 0.597 1.333 1.333 1.333h5.333c0.736 0 1.333-0.597 1.333-1.333v-9.333c0-0.183 0.036-0.355 0.1-0.509 0.067-0.163 0.167-0.309 0.291-0.433s0.271-0.223 0.433-0.291c0.155-0.064 0.327-0.1 0.509-0.1s0.355 0.036 0.509 0.1c0.163 0.067 0.309 0.167 0.433 0.291s0.223 0.271 0.291 0.433c0.064 0.155 0.1 0.327 0.1 0.509v9.333c0 0.736 0.597 1.333 1.333 1.333h5.333c0.736 0 1.333-0.597 1.333-1.333v-9.333c0-1.261-0.251-2.468-0.707-3.569-0.473-1.143-1.167-2.171-2.027-3.031s-1.887-1.553-3.031-2.027c-1.101-0.456-2.308-0.707-3.569-0.707zM21.333 12c0.905 0 1.765 0.18 2.549 0.504 0.815 0.337 1.549 0.832 2.165 1.448s1.111 1.351 1.448 2.165c0.324 0.784 0.504 1.644 0.504 2.549v8h-2.667v-8c0-0.54-0.108-1.057-0.304-1.531-0.203-0.491-0.5-0.931-0.868-1.299s-0.808-0.665-1.299-0.868c-0.472-0.195-0.989-0.303-1.529-0.303s-1.057 0.108-1.531 0.304c-0.491 0.203-0.931 0.5-1.299 0.868s-0.665 0.808-0.868 1.299c-0.195 0.472-0.303 0.989-0.303 1.529v8h-2.667v-8c0-0.905 0.18-1.765 0.504-2.549 0.337-0.815 0.832-1.549 1.448-2.165s1.351-1.111 2.165-1.448c0.784-0.324 1.644-0.504 2.549-0.504zM2.667 10.667c-0.736 0-1.333 0.597-1.333 1.333v16c0 0.736 0.597 1.333 1.333 1.333h5.333c0.736 0 1.333-0.597 1.333-1.333v-16c0-0.736-0.597-1.333-1.333-1.333zM4 13.333h2.667v13.333h-2.667zM9.333 5.333c0-0.54-0.108-1.057-0.304-1.531-0.203-0.489-0.5-0.929-0.868-1.297s-0.808-0.665-1.297-0.868c-0.473-0.196-0.991-0.304-1.531-0.304s-1.057 0.108-1.531 0.304c-0.489 0.203-0.929 0.5-1.297 0.868s-0.665 0.808-0.868 1.297c-0.196 0.473-0.304 0.991-0.304 1.531s0.108 1.057 0.304 1.531c0.203 0.489 0.5 0.929 0.868 1.297s0.808 0.665 1.297 0.868c0.473 0.196 0.991 0.304 1.531 0.304s1.057-0.108 1.531-0.304c0.489-0.203 0.929-0.5 1.297-0.868s0.665-0.808 0.868-1.297c0.196-0.473 0.304-0.991 0.304-1.531zM6.667 5.333c0 0.183-0.036 0.355-0.1 0.509-0.068 0.163-0.167 0.309-0.291 0.433s-0.271 0.223-0.433 0.291c-0.155 0.064-0.327 0.1-0.509 0.1s-0.355-0.036-0.509-0.1c-0.163-0.068-0.309-0.167-0.433-0.291s-0.223-0.271-0.291-0.433c-0.064-0.155-0.1-0.327-0.1-0.509s0.036-0.355 0.1-0.509c0.068-0.163 0.167-0.309 0.291-0.433s0.271-0.223 0.433-0.291c0.155-0.064 0.327-0.1 0.509-0.1s0.355 0.036 0.509 0.1c0.163 0.068 0.309 0.167 0.433 0.291s0.223 0.271 0.291 0.433c0.064 0.155 0.1 0.327 0.1 0.509z"></path>
</svg>
