<!-- Generated by IcoMoon.io -->
<svg version="1.1" xmlns="http://www.w3.org/2000/svg" width="32" height="32" viewBox="0 0 32 32">
<title>list</title>
<path d="M10.667 9.333h17.333c0.736 0 1.333-0.597 1.333-1.333s-0.597-1.333-1.333-1.333h-17.333c-0.736 0-1.333 0.597-1.333 1.333s0.597 1.333 1.333 1.333zM10.667 17.333h17.333c0.736 0 1.333-0.597 1.333-1.333s-0.597-1.333-1.333-1.333h-17.333c-0.736 0-1.333 0.597-1.333 1.333s0.597 1.333 1.333 1.333zM10.667 25.333h17.333c0.736 0 1.333-0.597 1.333-1.333s-0.597-1.333-1.333-1.333h-17.333c-0.736 0-1.333 0.597-1.333 1.333s0.597 1.333 1.333 1.333zM5.333 8c0-0.736-0.597-1.333-1.333-1.333s-1.333 0.597-1.333 1.333 0.597 1.333 1.333 1.333 1.333-0.597 1.333-1.333zM5.333 16c0-0.736-0.597-1.333-1.333-1.333s-1.333 0.597-1.333 1.333 0.597 1.333 1.333 1.333 1.333-0.597 1.333-1.333zM5.333 24c0-0.736-0.597-1.333-1.333-1.333s-1.333 0.597-1.333 1.333 0.597 1.333 1.333 1.333 1.333-0.597 1.333-1.333z"></path>
</svg>
