<!-- Generated by IcoMoon.io -->
<svg version="1.1" xmlns="http://www.w3.org/2000/svg" width="32" height="32" viewBox="0 0 32 32">
<title>loader</title>
<path d="M14.667 2.667v5.333c0 0.736 0.597 1.333 1.333 1.333s1.333-0.597 1.333-1.333v-5.333c0-0.736-0.597-1.333-1.333-1.333s-1.333 0.597-1.333 1.333zM14.667 24v5.333c0 0.736 0.597 1.333 1.333 1.333s1.333-0.597 1.333-1.333v-5.333c0-0.736-0.597-1.333-1.333-1.333s-1.333 0.597-1.333 1.333zM5.631 7.516l3.773 3.773c0.521 0.521 1.365 0.521 1.885 0s0.521-1.365 0-1.885l-3.773-3.773c-0.521-0.521-1.365-0.521-1.885 0s-0.521 1.365 0 1.885zM20.711 22.596l3.773 3.773c0.521 0.521 1.365 0.521 1.885 0s0.521-1.365 0-1.885l-3.773-3.773c-0.521-0.521-1.365-0.521-1.885 0s-0.521 1.365 0 1.885zM2.667 17.333h5.333c0.736 0 1.333-0.597 1.333-1.333s-0.597-1.333-1.333-1.333h-5.333c-0.736 0-1.333 0.597-1.333 1.333s0.597 1.333 1.333 1.333zM24 17.333h5.333c0.736 0 1.333-0.597 1.333-1.333s-0.597-1.333-1.333-1.333h-5.333c-0.736 0-1.333 0.597-1.333 1.333s0.597 1.333 1.333 1.333zM7.516 26.369l3.773-3.773c0.521-0.521 0.521-1.365 0-1.885s-1.365-0.521-1.885 0l-3.773 3.773c-0.521 0.521-0.521 1.365 0 1.885s1.365 0.521 1.885 0zM22.596 11.289l3.773-3.773c0.521-0.521 0.521-1.365 0-1.885s-1.365-0.521-1.885 0l-3.773 3.773c-0.521 0.521-0.521 1.365 0 1.885s1.365 0.521 1.885 0z"></path>
</svg>
