<!-- Generated by IcoMoon.io -->
<svg version="1.1" xmlns="http://www.w3.org/2000/svg" width="32" height="32" viewBox="0 0 32 32">
<title>mail</title>
<path d="M4 10.561l11.236 7.865c0.453 0.313 1.060 0.328 1.529 0l11.235-7.865v13.439c0 0.179-0.036 0.348-0.1 0.503-0.068 0.163-0.168 0.312-0.293 0.437s-0.275 0.225-0.437 0.293c-0.155 0.064-0.324 0.1-0.503 0.1h-21.333c-0.179 0-0.348-0.036-0.503-0.1-0.163-0.068-0.312-0.168-0.437-0.293s-0.225-0.275-0.293-0.437c-0.064-0.155-0.1-0.324-0.1-0.503zM1.333 8.016v15.984c0 0.537 0.108 1.053 0.303 1.524 0.204 0.492 0.503 0.933 0.871 1.303s0.811 0.668 1.303 0.871c0.471 0.195 0.987 0.303 1.524 0.303h21.333c0.537 0 1.053-0.108 1.524-0.303 0.492-0.204 0.933-0.503 1.303-0.871s0.668-0.811 0.871-1.303c0.195-0.471 0.303-0.987 0.303-1.524v-16c0-0.008 0-0.016 0-0.023-0.003-0.529-0.111-1.036-0.303-1.5-0.204-0.492-0.503-0.933-0.871-1.303s-0.811-0.668-1.303-0.871c-0.471-0.196-0.987-0.304-1.524-0.304h-21.333c-0.537 0-1.053 0.108-1.524 0.303-0.492 0.204-0.933 0.503-1.303 0.871s-0.667 0.811-0.871 1.303c-0.192 0.464-0.3 0.972-0.303 1.501 0 0.007 0 0.015 0 0.023zM27.859 7.405l-11.859 8.3-11.859-8.3c0.064-0.127 0.149-0.244 0.251-0.345 0.127-0.127 0.275-0.227 0.439-0.293 0.155-0.064 0.324-0.1 0.503-0.1h21.333c0.179 0 0.348 0.036 0.503 0.1 0.163 0.068 0.312 0.168 0.437 0.293 0.101 0.101 0.187 0.219 0.251 0.345z"></path>
</svg>
