<!-- Generated by IcoMoon.io -->
<svg version="1.1" xmlns="http://www.w3.org/2000/svg" width="32" height="32" viewBox="0 0 32 32">
<title>map-pin</title>
<path d="M29.333 13.333c0-1.804-0.359-3.527-1.011-5.099-0.676-1.632-1.667-3.1-2.895-4.329-1.228-1.228-2.696-2.219-4.329-2.895-1.572-0.652-3.295-1.011-5.099-1.011s-3.527 0.359-5.099 1.011c-1.633 0.676-3.101 1.667-4.329 2.895s-2.219 2.696-2.895 4.329c-0.652 1.572-1.011 3.295-1.011 5.099 0 0.759 0.071 1.504 0.2 2.235 0.365 2.064 1.199 4.005 2.243 5.76 1.145 1.924 2.564 3.659 3.959 5.127 1.169 1.231 2.333 2.287 3.328 3.124 0.704 0.592 1.325 1.077 1.808 1.439 0.296 0.223 0.541 0.399 0.72 0.525 0.209 0.148 0.337 0.233 0.337 0.233 0.441 0.289 1.020 0.305 1.479 0 0 0 0.129-0.087 0.337-0.233 0.179-0.127 0.423-0.303 0.72-0.525 0.483-0.361 1.104-0.847 1.808-1.439 0.995-0.837 2.159-1.893 3.328-3.124 1.395-1.468 2.813-3.203 3.959-5.127 1.044-1.755 1.877-3.696 2.243-5.76 0.128-0.731 0.199-1.476 0.199-2.235zM26.667 13.333c0 0.592-0.055 1.183-0.159 1.771-0.295 1.667-0.983 3.304-1.909 4.861-1.016 1.707-2.299 3.284-3.6 4.653-1.087 1.144-2.176 2.132-3.112 2.92-0.661 0.556-1.244 1.011-1.691 1.347-0.069 0.052-0.135 0.1-0.196 0.147-0.063-0.045-0.128-0.095-0.196-0.147-0.448-0.336-1.031-0.791-1.691-1.347-0.936-0.788-2.024-1.776-3.112-2.92-1.301-1.369-2.584-2.947-3.6-4.653-0.927-1.557-1.615-3.195-1.909-4.861-0.104-0.588-0.159-1.179-0.159-1.771 0-1.447 0.288-2.824 0.807-4.079 0.541-1.304 1.333-2.48 2.317-3.464s2.16-1.777 3.464-2.317c1.255-0.519 2.632-0.807 4.079-0.807s2.824 0.288 4.079 0.807c1.304 0.54 2.479 1.332 3.464 2.317s1.777 2.16 2.317 3.464c0.519 1.255 0.807 2.632 0.807 4.079zM21.333 13.333c0-0.72-0.144-1.409-0.404-2.040-0.271-0.653-0.667-1.24-1.157-1.731s-1.079-0.888-1.732-1.159c-0.631-0.26-1.32-0.404-2.040-0.404s-1.409 0.144-2.040 0.404c-0.653 0.271-1.24 0.667-1.731 1.157s-0.888 1.079-1.159 1.732c-0.26 0.631-0.404 1.32-0.404 2.040s0.144 1.409 0.404 2.040c0.271 0.653 0.667 1.24 1.157 1.731s1.077 0.887 1.731 1.157c0.632 0.261 1.321 0.405 2.041 0.405s1.409-0.144 2.040-0.404c0.653-0.271 1.24-0.667 1.731-1.157s0.887-1.077 1.157-1.731c0.261-0.632 0.405-1.321 0.405-2.041zM18.667 13.333c0 0.364-0.072 0.707-0.201 1.020-0.135 0.325-0.333 0.619-0.58 0.867s-0.541 0.445-0.867 0.58c-0.312 0.128-0.655 0.2-1.019 0.2s-0.707-0.072-1.020-0.201c-0.325-0.135-0.619-0.333-0.867-0.58s-0.445-0.541-0.58-0.867c-0.128-0.312-0.2-0.655-0.2-1.019s0.072-0.707 0.201-1.020c0.135-0.325 0.333-0.619 0.58-0.867s0.541-0.445 0.867-0.58c0.312-0.128 0.655-0.2 1.019-0.2s0.707 0.072 1.020 0.201c0.325 0.135 0.619 0.333 0.867 0.58s0.445 0.541 0.58 0.867c0.128 0.312 0.2 0.655 0.2 1.019z"></path>
</svg>
