<!-- Generated by IcoMoon.io -->
<svg version="1.1" xmlns="http://www.w3.org/2000/svg" width="32" height="32" viewBox="0 0 32 32">
<title>map</title>
<path d="M9.333 4.964v18.263l-6.667 3.809v-18.263zM22.667 27.036v-18.263l6.667-3.809v18.263zM21.333 30.667c0.231 0 0.459-0.061 0.661-0.176l0.020-0.012 9.313-5.321c0.428-0.244 0.669-0.691 0.672-1.157v-21.333c0-0.736-0.597-1.333-1.333-1.333-0.244 0-0.472 0.065-0.661 0.176l-8.713 4.979-10.028-5.015c-0.107-0.053-0.216-0.091-0.328-0.113-0.089-0.017-0.18-0.027-0.269-0.027-0.232 0-0.46 0.061-0.661 0.176l-0.020 0.011-9.313 5.323c-0.428 0.244-0.669 0.691-0.672 1.157v21.333c0 0.736 0.597 1.333 1.333 1.333 0.244 0 0.472-0.065 0.661-0.176l8.713-4.979 10.028 5.015c0.107 0.053 0.216 0.091 0.328 0.113 0.091 0.017 0.18 0.027 0.269 0.027zM20 8.824v18.352l-8-4v-18.352z"></path>
</svg>
