<!-- Generated by IcoMoon.io -->
<svg version="1.1" xmlns="http://www.w3.org/2000/svg" width="32" height="32" viewBox="0 0 32 32">
<title>message-circle</title>
<path d="M29.333 15.329v-0.663c0-0.023-0.001-0.051-0.003-0.077-0.089-1.536-0.452-3.004-1.041-4.352-0.605-1.384-1.449-2.641-2.483-3.716-1.087-1.131-2.384-2.060-3.833-2.725-1.4-0.643-2.941-1.036-4.567-1.127-0.021-0.001-0.048-0.003-0.073-0.003h-0.652c-1.873-0.021-3.843 0.413-5.685 1.344-1.631 0.829-3.055 1.985-4.185 3.381-0.895 1.105-1.605 2.363-2.089 3.727-0.468 1.321-0.721 2.74-0.721 4.2-0.019 1.7 0.337 3.48 1.099 5.169l-2.363 7.089c-0.088 0.261-0.096 0.557 0 0.843 0.233 0.699 0.988 1.076 1.687 0.843l7.085-2.361c1.547 0.703 3.312 1.101 5.168 1.097 1.829-0.012 3.62-0.411 5.255-1.155 1.295-0.589 2.492-1.396 3.533-2.4 1.009-0.973 1.869-2.129 2.52-3.433 0.859-1.665 1.353-3.62 1.348-5.681zM26.667 15.337c0.004 1.633-0.389 3.167-1.052 4.452-0.531 1.060-1.209 1.971-2.001 2.736-0.82 0.791-1.764 1.427-2.787 1.893-1.293 0.589-2.715 0.905-4.168 0.916-1.628 0.004-3.161-0.389-4.447-1.052-0.332-0.172-0.704-0.189-1.033-0.080l-5.071 1.691 1.691-5.071c0.117-0.351 0.080-0.716-0.075-1.023-0.737-1.46-1.073-3.007-1.057-4.452 0-1.183 0.201-2.301 0.568-3.339 0.381-1.073 0.941-2.065 1.648-2.94 0.895-1.104 2.024-2.023 3.321-2.68 1.456-0.736 3.003-1.072 4.448-1.056h0.644c1.275 0.075 2.476 0.385 3.567 0.885 1.141 0.524 2.164 1.257 3.023 2.149 0.817 0.849 1.484 1.843 1.961 2.936 0.46 1.053 0.745 2.199 0.82 3.403z"></path>
</svg>
