<!-- Generated by IcoMoon.io -->
<svg version="1.1" xmlns="http://www.w3.org/2000/svg" width="32" height="32" viewBox="0 0 32 32">
<title>mic-off</title>
<path d="M16.688 18.573c-0.217 0.057-0.448 0.089-0.685 0.089-0.364 0-0.707-0.072-1.020-0.2-0.325-0.135-0.62-0.332-0.867-0.579s-0.445-0.54-0.58-0.865c-0.129-0.313-0.203-0.656-0.203-1.019v-0.781zM21.333 12.453v-7.12c0.001-0.719-0.141-1.408-0.403-2.039-0.271-0.653-0.665-1.241-1.156-1.732s-1.077-0.888-1.731-1.16c-0.629-0.261-1.32-0.405-2.040-0.407-0.663 0-1.3 0.12-1.889 0.343-0.609 0.231-1.164 0.569-1.643 0.993-0.428 0.379-0.795 0.825-1.084 1.325-0.284 0.491-0.495 1.031-0.613 1.604-0.151 0.721 0.312 1.427 1.033 1.577s1.427-0.312 1.577-1.033c0.061-0.291 0.167-0.564 0.309-0.811 0.145-0.252 0.331-0.476 0.545-0.667 0.24-0.212 0.517-0.381 0.819-0.496 0.291-0.111 0.608-0.171 0.943-0.171 0.364 0 0.707 0.073 1.019 0.203 0.325 0.135 0.619 0.333 0.865 0.58s0.444 0.541 0.579 0.867c0.131 0.315 0.203 0.657 0.203 1.023v7.12c0 0.736 0.597 1.333 1.333 1.333s1.333-0.597 1.333-1.333zM24 13.333v2.667c0 0.501-0.047 0.987-0.124 1.393-0.136 0.724 0.34 1.421 1.064 1.557s1.421-0.34 1.557-1.064c0.109-0.58 0.169-1.229 0.169-1.887v-2.667c0-0.736-0.597-1.333-1.333-1.333s-1.333 0.597-1.333 1.333zM10.667 32h10.667c0.736 0 1.333-0.597 1.333-1.333s-0.597-1.333-1.333-1.333h-4v-2.681c0.975-0.123 1.936-0.379 2.853-0.771 0.843-0.36 1.648-0.832 2.393-1.416l7.144 7.144c0.521 0.521 1.365 0.521 1.885 0s0.521-1.365 0-1.885l-7.784-7.784c-0.060-0.105-0.135-0.204-0.225-0.292-0.084-0.083-0.176-0.151-0.273-0.207l-21.051-21.051c-0.521-0.521-1.365-0.521-1.885 0-0.52 0.52-0.521 1.364 0 1.885l10.276 10.276v3.448c0 0.721 0.144 1.411 0.407 2.041 0.271 0.653 0.668 1.24 1.159 1.731s1.079 0.885 1.732 1.156c0.631 0.26 1.32 0.403 2.040 0.403 0.719 0 1.407-0.144 2.036-0.405 0.231-0.096 0.453-0.207 0.667-0.332l1.969 1.969c-0.485 0.351-1 0.639-1.535 0.867-0.877 0.373-1.809 0.584-2.749 0.631-0.124-0.040-0.256-0.060-0.392-0.060s-0.268 0.020-0.392 0.059c-0.885-0.043-1.764-0.232-2.597-0.568-0.944-0.38-1.833-0.948-2.609-1.708-0.756-0.74-1.331-1.591-1.729-2.5-0.415-0.945-0.637-1.956-0.668-2.975-0.004-0.099-0.005-0.199-0.004-0.299v-2.676c0-0.736-0.597-1.333-1.333-1.333s-1.333 0.597-1.333 1.333v2.657c-0.001 0.133 0 0.265 0.005 0.399 0.041 1.353 0.337 2.701 0.891 3.964 0.533 1.216 1.303 2.352 2.305 3.335 1.031 1.009 2.216 1.769 3.48 2.277 0.857 0.345 1.749 0.573 2.652 0.687v2.681h-4c-0.736 0-1.333 0.597-1.333 1.333s0.597 1.333 1.333 1.333z"></path>
</svg>
