<!-- Generated by IcoMoon.io -->
<svg version="1.1" xmlns="http://www.w3.org/2000/svg" width="32" height="32" viewBox="0 0 32 32">
<title>monitor</title>
<path d="M16 21.333h-10.667c-0.183 0-0.355-0.036-0.509-0.1-0.163-0.067-0.309-0.167-0.433-0.291s-0.223-0.271-0.291-0.433c-0.064-0.155-0.1-0.327-0.1-0.509v-13.333c0-0.183 0.036-0.355 0.1-0.509 0.067-0.163 0.167-0.309 0.291-0.433s0.271-0.223 0.433-0.291c0.155-0.064 0.327-0.1 0.509-0.1h21.333c0.183 0 0.355 0.036 0.509 0.1 0.163 0.067 0.309 0.167 0.433 0.291s0.223 0.271 0.291 0.433c0.064 0.155 0.1 0.327 0.1 0.509v13.333c0 0.183-0.036 0.355-0.1 0.509-0.067 0.163-0.167 0.309-0.291 0.433s-0.271 0.223-0.433 0.291c-0.155 0.064-0.327 0.1-0.509 0.1zM14.667 24v2.667h-4c-0.736 0-1.333 0.597-1.333 1.333s0.597 1.333 1.333 1.333h10.667c0.736 0 1.333-0.597 1.333-1.333s-0.597-1.333-1.333-1.333h-4v-2.667h9.333c0.54 0 1.057-0.108 1.531-0.304 0.491-0.203 0.931-0.5 1.299-0.868s0.665-0.808 0.868-1.299c0.195-0.472 0.303-0.989 0.303-1.529v-13.333c0-0.54-0.108-1.057-0.304-1.531-0.203-0.491-0.5-0.931-0.868-1.299s-0.808-0.665-1.299-0.868c-0.472-0.195-0.989-0.303-1.529-0.303h-21.333c-0.54 0-1.057 0.108-1.531 0.304-0.489 0.203-0.929 0.5-1.297 0.868s-0.665 0.808-0.868 1.297c-0.196 0.473-0.304 0.991-0.304 1.531v13.333c0 0.54 0.108 1.057 0.304 1.531 0.203 0.491 0.5 0.931 0.868 1.299s0.808 0.665 1.299 0.868c0.472 0.195 0.989 0.303 1.529 0.303z"></path>
</svg>
