<!-- Generated by IcoMoon.io -->
<svg version="1.1" xmlns="http://www.w3.org/2000/svg" width="32" height="32" viewBox="0 0 32 32">
<title>moon</title>
<path d="M29.328 17.176c0.029-0.311-0.051-0.635-0.251-0.908-0.433-0.595-1.268-0.725-1.863-0.292-1.267 0.924-2.745 1.448-4.251 1.549-0.928 0.063-1.865-0.036-2.769-0.301-0.875-0.256-1.72-0.668-2.499-1.243-0.873-0.645-1.575-1.432-2.1-2.305-0.545-0.907-0.901-1.909-1.056-2.941s-0.109-2.095 0.147-3.123c0.245-0.988 0.685-1.947 1.332-2.82 0.189-0.255 0.288-0.58 0.255-0.921-0.071-0.733-0.723-1.269-1.456-1.197-1.489 0.145-2.915 0.532-4.229 1.124-1.34 0.603-2.567 1.42-3.631 2.411-1.177 1.093-2.157 2.401-2.879 3.868-0.697 1.419-1.151 2.984-1.304 4.647-0.167 1.796 0.032 3.544 0.536 5.171 0.523 1.688 1.375 3.241 2.484 4.577 1.111 1.336 2.48 2.457 4.044 3.281 1.507 0.793 3.189 1.309 4.985 1.475s3.545-0.033 5.171-0.537c1.688-0.523 3.241-1.375 4.577-2.484s2.457-2.48 3.281-4.044c0.793-1.507 1.309-3.189 1.475-4.985zM26.089 19.565c-0.168 0.468-0.368 0.919-0.596 1.352-0.657 1.249-1.555 2.347-2.625 3.236s-2.313 1.571-3.663 1.988c-1.297 0.403-2.695 0.561-4.136 0.428s-2.785-0.547-3.987-1.179c-1.249-0.657-2.347-1.555-3.236-2.625s-1.571-2.313-1.988-3.663c-0.403-1.297-0.561-2.695-0.428-4.136 0.123-1.333 0.487-2.584 1.043-3.715 0.573-1.171 1.357-2.215 2.3-3.092 0.853-0.793 1.836-1.448 2.911-1.932 0.239-0.108 0.483-0.207 0.731-0.297-0.123 0.343-0.228 0.688-0.315 1.037-0.341 1.372-0.403 2.788-0.196 4.161s0.68 2.709 1.408 3.921c0.703 1.167 1.64 2.217 2.8 3.075 1.033 0.764 2.163 1.315 3.333 1.657 1.209 0.355 2.461 0.485 3.696 0.403 1.003-0.067 1.995-0.276 2.947-0.62z"></path>
</svg>
