<!-- Generated by IcoMoon.io -->
<svg version="1.1" xmlns="http://www.w3.org/2000/svg" width="32" height="32" viewBox="0 0 32 32">
<title>more-vertical</title>
<path d="M18.667 16c0-0.359-0.072-0.704-0.203-1.020-0.136-0.328-0.333-0.62-0.579-0.865s-0.539-0.443-0.865-0.579c-0.316-0.131-0.661-0.203-1.020-0.203s-0.704 0.072-1.020 0.203c-0.328 0.136-0.62 0.333-0.865 0.579s-0.443 0.539-0.579 0.865c-0.131 0.316-0.203 0.661-0.203 1.020s0.072 0.704 0.203 1.020c0.136 0.328 0.333 0.62 0.579 0.865s0.539 0.443 0.865 0.579c0.316 0.131 0.661 0.203 1.020 0.203s0.704-0.072 1.020-0.203c0.328-0.136 0.62-0.333 0.865-0.579s0.443-0.539 0.579-0.865c0.131-0.316 0.203-0.661 0.203-1.020zM18.667 6.667c0-0.359-0.072-0.704-0.203-1.020-0.136-0.328-0.333-0.62-0.579-0.865s-0.539-0.443-0.865-0.579c-0.316-0.131-0.661-0.203-1.020-0.203s-0.704 0.072-1.020 0.203c-0.328 0.136-0.62 0.333-0.865 0.579s-0.443 0.539-0.579 0.865c-0.131 0.316-0.203 0.661-0.203 1.020s0.072 0.704 0.203 1.020c0.136 0.328 0.333 0.62 0.579 0.865s0.539 0.443 0.865 0.579c0.316 0.131 0.661 0.203 1.020 0.203s0.704-0.072 1.020-0.203c0.328-0.136 0.62-0.333 0.865-0.579s0.443-0.539 0.579-0.865c0.131-0.316 0.203-0.661 0.203-1.020zM18.667 25.333c0-0.359-0.072-0.704-0.203-1.020-0.136-0.328-0.333-0.62-0.579-0.865s-0.539-0.443-0.865-0.579c-0.316-0.131-0.661-0.203-1.020-0.203s-0.704 0.072-1.020 0.203c-0.328 0.136-0.62 0.333-0.865 0.579s-0.443 0.539-0.579 0.865c-0.131 0.316-0.203 0.661-0.203 1.020s0.072 0.704 0.203 1.020c0.136 0.328 0.333 0.62 0.579 0.865s0.539 0.443 0.865 0.579c0.316 0.131 0.661 0.203 1.020 0.203s0.704-0.072 1.020-0.203c0.328-0.136 0.62-0.333 0.865-0.579s0.443-0.539 0.579-0.865c0.131-0.316 0.203-0.661 0.203-1.020z"></path>
</svg>
