<!-- Generated by IcoMoon.io -->
<svg version="1.1" xmlns="http://www.w3.org/2000/svg" width="32" height="32" viewBox="0 0 32 32">
<title>mouse-pointer</title>
<path d="M6.476 6.476l16.379 6.824-6.511 2.211c-0.38 0.131-0.696 0.427-0.833 0.833l-2.211 6.511zM17.347 19.232l7.044 7.044c0.521 0.521 1.365 0.521 1.885 0s0.521-1.365 0-1.885l-7.044-7.044 7.824-2.657c0.697-0.237 1.071-0.995 0.833-1.691-0.128-0.377-0.408-0.659-0.749-0.801l-22.627-9.427c-0.68-0.283-1.46 0.039-1.744 0.719-0.143 0.341-0.132 0.709 0 1.025l9.427 22.627c0.283 0.68 1.064 1.001 1.744 0.719 0.367-0.153 0.629-0.451 0.749-0.801z"></path>
</svg>
