<!-- Generated by IcoMoon.io -->
<svg version="1.1" xmlns="http://www.w3.org/2000/svg" width="32" height="32" viewBox="0 0 32 32">
<title>move</title>
<path d="M14.667 5.885v8.781h-8.781l1.724-1.724c0.521-0.521 0.521-1.365 0-1.885s-1.365-0.521-1.885 0l-4 4c-0.001 0.001-0.003 0.004-0.005 0.005-0.125 0.127-0.22 0.272-0.284 0.427-0.135 0.327-0.135 0.695 0 1.021 0.064 0.155 0.159 0.301 0.284 0.427 0.001 0.001 0.003 0.004 0.005 0.005l4 4c0.521 0.521 1.365 0.521 1.885 0s0.521-1.365 0-1.885l-1.724-1.724h8.781v8.781l-1.724-1.724c-0.521-0.521-1.365-0.521-1.885 0s-0.521 1.365 0 1.885l4 4c0.128 0.128 0.276 0.224 0.433 0.289 0.16 0.065 0.329 0.1 0.499 0.101 0.177 0.001 0.355-0.032 0.52-0.101 0.157-0.065 0.305-0.161 0.433-0.289l4-4c0.521-0.521 0.521-1.365 0-1.885s-1.365-0.521-1.885 0l-1.724 1.724v-8.781h8.781l-1.724 1.724c-0.521 0.521-0.521 1.365 0 1.885s1.365 0.521 1.885 0l4-4c0.128-0.128 0.224-0.276 0.289-0.433 0.065-0.16 0.1-0.329 0.101-0.499 0.001-0.177-0.032-0.355-0.101-0.52-0.065-0.157-0.161-0.305-0.289-0.433l-4-4c-0.521-0.521-1.365-0.521-1.885 0s-0.521 1.365 0 1.885l1.724 1.724h-8.781v-8.781l1.724 1.724c0.521 0.521 1.365 0.521 1.885 0s0.521-1.365 0-1.885l-4-4c-0.001-0.001-0.004-0.003-0.005-0.005-0.127-0.125-0.272-0.22-0.427-0.284-0.327-0.135-0.695-0.135-1.021 0-0.155 0.064-0.301 0.159-0.427 0.284-0.001 0.001-0.004 0.003-0.005 0.005l-4 4c-0.521 0.521-0.521 1.365 0 1.885s1.365 0.521 1.885 0z"></path>
</svg>
