<!-- Generated by IcoMoon.io -->
<svg version="1.1" xmlns="http://www.w3.org/2000/svg" width="32" height="32" viewBox="0 0 32 32">
<title>navigation</title>
<path d="M3.429 13.461c-0.349 0.167-0.623 0.48-0.723 0.881-0.179 0.715 0.256 1.439 0.971 1.617l9.891 2.472 2.472 9.891c0.095 0.375 0.348 0.704 0.723 0.881 0.665 0.315 1.46 0.031 1.776-0.635l12-25.333c0.165-0.351 0.177-0.767 0-1.141-0.315-0.665-1.111-0.949-1.776-0.635zM7.937 14.277l18.593-8.808-8.808 18.593-1.763-7.053c-0.123-0.492-0.504-0.851-0.971-0.971z"></path>
</svg>
