<!-- Generated by IcoMoon.io -->
<svg version="1.1" xmlns="http://www.w3.org/2000/svg" width="32" height="32" viewBox="0 0 32 32">
<title>navigation-2</title>
<path d="M17.251 2.205c-0.132-0.355-0.409-0.651-0.791-0.791-0.691-0.255-1.457 0.099-1.712 0.791l-9.333 25.333c-0.131 0.359-0.109 0.768 0.093 1.123 0.365 0.64 1.18 0.861 1.819 0.496l8.673-4.955 8.672 4.955c0.332 0.188 0.739 0.235 1.123 0.093 0.691-0.255 1.045-1.021 0.791-1.712zM16 6.524l6.817 18.503-6.156-3.517c-0.423-0.241-0.921-0.227-1.323 0l-6.156 3.517z"></path>
</svg>
