<!-- Generated by IcoMoon.io -->
<svg version="1.1" xmlns="http://www.w3.org/2000/svg" width="32" height="32" viewBox="0 0 32 32">
<title>package</title>
<path d="M14.667 15.491v13.032l-9.937-4.968c-0.137-0.069-0.257-0.16-0.357-0.264-0.104-0.108-0.188-0.233-0.251-0.372-0.079-0.176-0.121-0.371-0.121-0.571v-12.189zM8.852 3.423c-0.079 0.031-0.155 0.069-0.227 0.115l-5.080 2.54c-0.515 0.26-0.965 0.624-1.323 1.067-0.283 0.348-0.508 0.745-0.66 1.177-0.149 0.419-0.229 0.867-0.229 1.332v12.692c0 0.579 0.123 1.148 0.357 1.668 0.184 0.409 0.439 0.788 0.755 1.12 0.308 0.321 0.672 0.595 1.091 0.805l10.671 5.335c0.281 0.14 0.577 0.245 0.883 0.317 0.445 0.104 0.911 0.132 1.375 0.076 0.449-0.053 0.895-0.184 1.317-0.395l10.672-5.336c0.515-0.26 0.965-0.624 1.323-1.067 0.283-0.348 0.508-0.745 0.66-1.177 0.151-0.419 0.231-0.867 0.231-1.332v-12.716c-0.004-0.576-0.131-1.143-0.367-1.66-0.187-0.408-0.443-0.785-0.761-1.115-0.309-0.319-0.676-0.591-1.088-0.796l-10.667-5.333c-0.28-0.139-0.568-0.241-0.864-0.312-0.447-0.105-0.912-0.136-1.377-0.083-0.451 0.052-0.897 0.181-1.325 0.393zM22.667 9.843l-10.345-5.173 3.088-1.544c0.141-0.071 0.289-0.112 0.436-0.129 0.153-0.017 0.308-0.008 0.459 0.028 0.1 0.024 0.199 0.059 0.285 0.101l9.755 4.877zM23.277 12.519l4.723-2.361v12.203c0 0.157-0.027 0.305-0.076 0.441-0.051 0.141-0.124 0.273-0.22 0.391-0.121 0.149-0.275 0.275-0.453 0.364l-9.917 4.96v-13.025l5.917-2.959zM9.34 6.161l10.345 5.172-3.685 1.843-10.345-5.173z"></path>
</svg>
