<!-- Generated by IcoMoon.io -->
<svg version="1.1" xmlns="http://www.w3.org/2000/svg" width="32" height="32" viewBox="0 0 32 32">
<title>paperclip</title>
<path d="M27.644 13.791l-12.253 12.253c-0.641 0.641-1.376 1.123-2.16 1.447-0.815 0.337-1.685 0.507-2.556 0.507s-1.741-0.169-2.556-0.507c-0.784-0.325-1.52-0.807-2.16-1.447s-1.123-1.376-1.447-2.16c-0.337-0.815-0.507-1.685-0.507-2.556s0.169-1.741 0.507-2.556c0.325-0.784 0.807-1.52 1.447-2.16l12.253-12.253c0.385-0.385 0.827-0.673 1.296-0.868 0.489-0.203 1.011-0.304 1.535-0.304s1.045 0.101 1.535 0.304c0.469 0.195 0.911 0.483 1.296 0.868s0.673 0.827 0.868 1.296c0.203 0.489 0.304 1.011 0.304 1.535s-0.101 1.045-0.304 1.535c-0.195 0.469-0.483 0.911-0.868 1.296l-12.267 12.253c-0.132 0.127-0.279 0.223-0.435 0.287-0.163 0.067-0.336 0.101-0.512 0.101s-0.349-0.035-0.512-0.101c-0.156-0.064-0.303-0.16-0.432-0.289s-0.225-0.276-0.289-0.432c-0.067-0.163-0.101-0.336-0.101-0.512s0.035-0.349 0.101-0.512c0.064-0.156 0.16-0.303 0.289-0.432l11.32-11.307c0.521-0.52 0.521-1.364 0.001-1.885s-1.364-0.521-1.885-0.001l-11.32 11.307c-0.381 0.381-0.672 0.824-0.868 1.297-0.203 0.491-0.304 1.012-0.304 1.532s0.101 1.041 0.304 1.532c0.196 0.473 0.487 0.916 0.868 1.297s0.824 0.672 1.297 0.868c0.491 0.203 1.012 0.304 1.532 0.304s1.041-0.101 1.532-0.304c0.473-0.196 0.916-0.487 1.296-0.867l12.267-12.253c0.637-0.637 1.12-1.373 1.447-2.161 0.339-0.817 0.507-1.687 0.507-2.555s-0.169-1.737-0.507-2.555c-0.327-0.788-0.809-1.524-1.447-2.161s-1.373-1.12-2.161-1.447c-0.817-0.339-1.687-0.507-2.555-0.507s-1.737 0.169-2.555 0.507c-0.788 0.327-1.524 0.809-2.161 1.447l-12.253 12.253c-0.892 0.892-1.568 1.924-2.025 3.025-0.473 1.144-0.711 2.361-0.711 3.577s0.236 2.433 0.711 3.577c0.456 1.101 1.132 2.133 2.025 3.025 0.892 0.892 1.924 1.568 3.025 2.025 1.144 0.473 2.361 0.711 3.577 0.711s2.433-0.236 3.577-0.711c1.101-0.456 2.133-1.132 3.025-2.025l12.253-12.253c0.521-0.521 0.521-1.365 0-1.885s-1.365-0.521-1.885 0z"></path>
</svg>
