<!-- Generated by IcoMoon.io -->
<svg version="1.1" xmlns="http://www.w3.org/2000/svg" width="32" height="32" viewBox="0 0 32 32">
<title>pen-tool</title>
<path d="M24.943 18.276l0.391-0.391 2.115 2.115-7.448 7.448-2.115-2.115 0.391-0.391zM1.365 2.959c0.001 0.007 0.004 0.015 0.005 0.021l0.005 0.023 4.661 19.311c0.125 0.517 0.537 0.892 1.035 0.995l7.687 1.537c-0.188 0.479-0.089 1.044 0.299 1.431l4 4c0.521 0.521 1.365 0.521 1.885 0l9.333-9.333c0.521-0.521 0.521-1.365 0-1.885l-4-4c-0.387-0.387-0.952-0.487-1.431-0.299l-1.537-7.687c-0.104-0.523-0.501-0.912-0.995-1.035l-19.333-4.667c-0.039-0.009-0.079-0.017-0.117-0.023-0.192-0.029-0.38-0.015-0.557 0.035-0.181 0.052-0.349 0.14-0.493 0.26-0.123 0.103-0.228 0.228-0.308 0.372-0.059 0.104-0.104 0.217-0.133 0.339-0.009 0.037-0.016 0.075-0.021 0.111-0.027 0.171-0.020 0.34 0.016 0.495zM18.667 14.667c0-0.54-0.108-1.057-0.304-1.531-0.203-0.491-0.5-0.931-0.868-1.299s-0.808-0.665-1.299-0.868c-0.472-0.195-0.989-0.303-1.529-0.303s-1.057 0.108-1.531 0.304c-0.065 0.027-0.129 0.056-0.193 0.087l-5.983-5.983 13.9 3.355 1.693 8.465-5.657 5.657-8.465-1.693-3.356-13.899 5.983 5.983c-0.031 0.064-0.060 0.128-0.087 0.193-0.196 0.473-0.304 0.991-0.304 1.531s0.108 1.057 0.304 1.531c0.203 0.491 0.5 0.931 0.868 1.299s0.808 0.665 1.299 0.868c0.472 0.195 0.989 0.303 1.529 0.303s1.057-0.108 1.531-0.304c0.491-0.203 0.931-0.5 1.299-0.868s0.665-0.808 0.868-1.299c0.195-0.472 0.303-0.989 0.303-1.529zM16 14.667c0 0.183-0.036 0.355-0.1 0.509-0.067 0.163-0.167 0.309-0.291 0.433s-0.271 0.223-0.433 0.291c-0.155 0.064-0.327 0.1-0.509 0.1s-0.355-0.036-0.509-0.1c-0.163-0.067-0.309-0.167-0.433-0.291s-0.223-0.271-0.291-0.433c-0.064-0.155-0.1-0.327-0.1-0.509s0.036-0.355 0.1-0.509c0.064-0.155 0.157-0.296 0.273-0.416 0.005-0.005 0.011-0.011 0.016-0.017s0.011-0.011 0.017-0.016c0.12-0.116 0.261-0.209 0.416-0.273 0.156-0.065 0.328-0.101 0.511-0.101s0.355 0.036 0.509 0.1c0.163 0.067 0.309 0.167 0.433 0.291s0.223 0.271 0.291 0.433c0.064 0.155 0.1 0.327 0.1 0.509z"></path>
</svg>
