<!-- Generated by IcoMoon.io -->
<svg version="1.1" xmlns="http://www.w3.org/2000/svg" width="32" height="32" viewBox="0 0 32 32">
<title>percent</title>
<path d="M24.391 5.724l-18.667 18.667c-0.521 0.521-0.521 1.365 0 1.885s1.365 0.521 1.885 0l18.667-18.667c0.521-0.521 0.521-1.365 0-1.885s-1.365-0.521-1.885 0zM13.333 8.667c0-0.629-0.125-1.233-0.353-1.785-0.237-0.572-0.584-1.085-1.013-1.515s-0.943-0.776-1.515-1.013c-0.552-0.228-1.156-0.353-1.785-0.353s-1.233 0.125-1.785 0.353c-0.572 0.237-1.085 0.584-1.515 1.013s-0.776 0.943-1.013 1.515c-0.228 0.552-0.353 1.156-0.353 1.785s0.125 1.233 0.353 1.785c0.237 0.572 0.584 1.085 1.013 1.515s0.943 0.776 1.515 1.013c0.552 0.228 1.156 0.353 1.785 0.353s1.233-0.125 1.785-0.353c0.572-0.237 1.085-0.584 1.515-1.013s0.776-0.943 1.013-1.515c0.228-0.552 0.353-1.156 0.353-1.785zM10.667 8.667c0 0.273-0.055 0.531-0.151 0.764-0.101 0.244-0.249 0.465-0.435 0.651s-0.407 0.333-0.649 0.435c-0.235 0.096-0.492 0.151-0.765 0.151s-0.531-0.055-0.764-0.151c-0.244-0.101-0.465-0.249-0.651-0.435s-0.333-0.407-0.435-0.649c-0.096-0.235-0.151-0.492-0.151-0.765s0.055-0.531 0.151-0.764c0.101-0.244 0.249-0.465 0.435-0.651s0.407-0.333 0.649-0.435c0.235-0.096 0.492-0.151 0.765-0.151s0.531 0.055 0.764 0.151c0.244 0.101 0.465 0.249 0.651 0.435s0.333 0.407 0.435 0.649c0.096 0.235 0.151 0.492 0.151 0.765zM28 23.333c0-0.629-0.125-1.233-0.353-1.785-0.237-0.572-0.584-1.085-1.013-1.515s-0.943-0.776-1.515-1.013c-0.552-0.228-1.156-0.353-1.785-0.353s-1.233 0.125-1.785 0.353c-0.572 0.237-1.085 0.584-1.515 1.013s-0.776 0.943-1.013 1.515c-0.228 0.552-0.353 1.156-0.353 1.785s0.125 1.233 0.353 1.785c0.237 0.572 0.584 1.085 1.013 1.515s0.943 0.776 1.515 1.013c0.552 0.228 1.156 0.353 1.785 0.353s1.233-0.125 1.785-0.353c0.572-0.237 1.085-0.584 1.515-1.013s0.776-0.943 1.013-1.515c0.228-0.552 0.353-1.156 0.353-1.785zM25.333 23.333c0 0.273-0.055 0.531-0.151 0.764-0.101 0.244-0.249 0.464-0.435 0.649s-0.407 0.333-0.649 0.435c-0.235 0.097-0.492 0.152-0.765 0.152s-0.531-0.055-0.764-0.151c-0.244-0.101-0.464-0.249-0.649-0.435s-0.333-0.407-0.435-0.649c-0.097-0.235-0.152-0.492-0.152-0.765s0.055-0.531 0.151-0.764c0.101-0.244 0.249-0.464 0.435-0.649s0.407-0.333 0.649-0.435c0.235-0.097 0.492-0.152 0.765-0.152s0.531 0.055 0.764 0.151c0.244 0.101 0.464 0.249 0.649 0.435s0.333 0.407 0.435 0.649c0.097 0.235 0.152 0.492 0.152 0.765z"></path>
</svg>
