<!-- Generated by IcoMoon.io -->
<svg version="1.1" xmlns="http://www.w3.org/2000/svg" width="32" height="32" viewBox="0 0 32 32">
<title>phone-off</title>
<path d="M8.039 16.355c-2.243-3.457-3.52-7.253-3.885-10.913-0.015-0.169 0.005-0.344 0.056-0.504 0.052-0.168 0.137-0.324 0.249-0.459s0.249-0.247 0.405-0.328c0.149-0.077 0.316-0.129 0.499-0.145 0.045-0.004 0.085-0.005 0.112-0.005h4.005c0.187-0.001 0.348 0.029 0.497 0.085 0.155 0.059 0.296 0.145 0.419 0.256 0.115 0.104 0.212 0.228 0.287 0.367 0.072 0.135 0.123 0.284 0.145 0.444 0.188 1.429 0.544 2.824 1.008 4.033 0.052 0.14 0.080 0.288 0.081 0.433 0.003 0.151-0.021 0.3-0.069 0.444-0.065 0.193-0.175 0.375-0.323 0.527l-1.681 1.681c-0.521 0.521-0.521 1.365 0 1.885s1.365 0.521 1.885 0l1.705-1.705c0.429-0.44 0.751-0.968 0.943-1.541 0.143-0.427 0.215-0.88 0.207-1.34-0.008-0.447-0.092-0.896-0.259-1.341-0.385-1.004-0.691-2.192-0.859-3.46-0.068-0.471-0.217-0.913-0.432-1.316-0.22-0.412-0.509-0.781-0.852-1.091-0.365-0.329-0.792-0.592-1.261-0.769-0.453-0.172-0.945-0.264-1.441-0.259h-3.995c-0.117 0-0.243 0.005-0.364 0.016-0.537 0.048-1.043 0.203-1.496 0.44-0.471 0.247-0.881 0.583-1.215 0.981s-0.589 0.865-0.748 1.372c-0.152 0.489-0.213 1.013-0.163 1.564 0.408 4.083 1.828 8.285 4.301 12.1 0.4 0.617 1.227 0.793 1.844 0.393s0.793-1.227 0.393-1.844zM12.38 21.507l1.895-1.895c1.239 1.104 2.557 2.041 3.865 2.767 0.529 0.295 1.173 0.189 1.591-0.223l1.693-1.693c0.108-0.107 0.232-0.192 0.364-0.253 0.136-0.064 0.283-0.104 0.433-0.119 0.203-0.020 0.413 0.007 0.612 0.080 1.363 0.508 2.76 0.848 4.045 1.005 0.147 0.021 0.303 0.076 0.44 0.153 0.144 0.081 0.271 0.188 0.376 0.316 0.099 0.12 0.176 0.257 0.228 0.405 0.051 0.144 0.079 0.299 0.077 0.46v4.008c0.001 0.188-0.035 0.36-0.099 0.516-0.067 0.163-0.165 0.311-0.288 0.435s-0.271 0.224-0.432 0.292c-0.155 0.065-0.327 0.101-0.509 0.103-0.048 0-0.091-0.003-0.117-0.005-4.080-0.444-7.831-1.851-10.899-3.879-1.209-0.768-2.317-1.613-3.276-2.475zM29.724 0.391l-16.308 16.307c-0.041 0.032-0.081 0.068-0.119 0.105-0.039 0.039-0.073 0.079-0.107 0.12l-12.8 12.8c-0.521 0.521-0.521 1.365 0 1.885s1.365 0.521 1.885 0l8.216-8.216c1.097 0.997 2.352 1.96 3.693 2.812 3.424 2.263 7.579 3.816 12.115 4.308 0.123 0.012 0.255 0.017 0.384 0.017 0.54-0.003 1.056-0.112 1.529-0.309 0.489-0.205 0.928-0.504 1.295-0.873s0.661-0.811 0.863-1.301c0.195-0.473 0.3-0.992 0.297-1.525v-3.992c0.003-0.475-0.077-0.936-0.229-1.367-0.156-0.441-0.387-0.848-0.68-1.205-0.312-0.38-0.693-0.704-1.131-0.951-0.423-0.237-0.895-0.401-1.425-0.476-1.067-0.131-2.26-0.419-3.448-0.861-0.577-0.212-1.191-0.291-1.792-0.232-0.448 0.044-0.891 0.163-1.307 0.357-0.404 0.189-0.781 0.449-1.117 0.783l-0.96 0.96c-0.812-0.516-1.628-1.125-2.413-1.815l15.444-15.445c0.521-0.521 0.521-1.365 0-1.885s-1.365-0.521-1.885 0z"></path>
</svg>
