<!-- Generated by IcoMoon.io -->
<svg version="1.1" xmlns="http://www.w3.org/2000/svg" width="32" height="32" viewBox="0 0 32 32">
<title>phone-call</title>
<path d="M19.812 7.975c0.62 0.121 1.192 0.344 1.701 0.648 0.527 0.313 0.992 0.716 1.379 1.184 0.56 0.68 0.956 1.499 1.136 2.391 0.145 0.721 0.849 1.188 1.571 1.043s1.188-0.849 1.043-1.571c-0.267-1.323-0.855-2.543-1.692-3.559-0.579-0.701-1.276-1.305-2.072-1.779-0.771-0.459-1.629-0.793-2.555-0.973-0.723-0.141-1.423 0.331-1.564 1.053s0.331 1.423 1.053 1.564zM19.92 2.659c1.313 0.145 2.541 0.524 3.649 1.087 1.147 0.583 2.168 1.368 3.024 2.305 1.491 1.632 2.477 3.725 2.749 6.025 0.087 0.731 0.749 1.255 1.48 1.168s1.255-0.749 1.168-1.48c-0.337-2.863-1.568-5.475-3.428-7.512-1.069-1.171-2.347-2.152-3.784-2.884-1.391-0.708-2.928-1.179-4.564-1.361-0.732-0.081-1.391 0.447-1.472 1.179s0.447 1.391 1.177 1.472zM30.667 22.56c0.011-0.453-0.067-0.923-0.216-1.361-0.155-0.449-0.385-0.865-0.681-1.229-0.312-0.384-0.695-0.711-1.135-0.96-0.425-0.24-0.9-0.405-1.432-0.48-1.067-0.131-2.26-0.419-3.448-0.861-0.577-0.212-1.191-0.291-1.792-0.232-0.448 0.044-0.891 0.163-1.307 0.357-0.404 0.189-0.781 0.449-1.117 0.783l-0.96 0.96c-2.36-1.489-4.48-3.556-6.111-6.119l0.968-0.968c0.429-0.44 0.751-0.968 0.943-1.541 0.143-0.427 0.215-0.88 0.207-1.34-0.008-0.447-0.092-0.896-0.259-1.341-0.385-1.004-0.691-2.192-0.859-3.46-0.068-0.471-0.217-0.913-0.432-1.316-0.221-0.411-0.511-0.78-0.853-1.089-0.365-0.329-0.792-0.592-1.261-0.769-0.453-0.172-0.945-0.264-1.441-0.259h-3.995c-0.117 0-0.243 0.005-0.364 0.016-0.537 0.048-1.043 0.203-1.496 0.44-0.471 0.247-0.881 0.583-1.215 0.981s-0.589 0.865-0.748 1.372c-0.152 0.489-0.213 1.013-0.164 1.56 0.4 4.101 1.82 8.324 4.288 12.136 2.003 3.217 4.864 6.164 8.397 8.408 3.424 2.263 7.579 3.816 12.115 4.308 0.123 0.012 0.255 0.017 0.384 0.017 0.54-0.003 1.056-0.112 1.529-0.309 0.489-0.205 0.928-0.504 1.295-0.873s0.661-0.811 0.863-1.301c0.195-0.473 0.3-0.992 0.297-1.525zM28 22.56v4c0.001 0.188-0.035 0.36-0.099 0.516-0.067 0.163-0.165 0.311-0.288 0.435s-0.271 0.224-0.432 0.292c-0.155 0.065-0.327 0.101-0.509 0.103-0.048 0-0.091-0.003-0.117-0.005-4.080-0.444-7.831-1.851-10.899-3.879-3.237-2.057-5.812-4.717-7.603-7.592-2.263-3.493-3.54-7.308-3.899-10.984-0.016-0.173 0.005-0.347 0.055-0.507 0.052-0.169 0.137-0.325 0.249-0.46s0.249-0.247 0.405-0.328c0.149-0.077 0.316-0.129 0.499-0.145 0.045-0.004 0.085-0.005 0.112-0.005h4.005c0.187-0.001 0.348 0.029 0.497 0.085 0.155 0.059 0.296 0.145 0.419 0.256 0.115 0.104 0.212 0.228 0.287 0.367 0.072 0.135 0.123 0.284 0.145 0.444 0.188 1.429 0.544 2.824 1.008 4.033 0.052 0.14 0.080 0.288 0.081 0.433 0.003 0.151-0.021 0.3-0.069 0.444-0.065 0.193-0.175 0.375-0.323 0.527l-1.681 1.681c-0.432 0.432-0.505 1.085-0.216 1.601 2.112 3.713 5.119 6.609 8.508 8.504 0.529 0.296 1.176 0.192 1.593-0.221l1.693-1.693c0.108-0.107 0.232-0.192 0.364-0.253 0.136-0.064 0.283-0.104 0.433-0.119 0.203-0.020 0.413 0.007 0.612 0.080 1.363 0.508 2.76 0.848 4.045 1.005 0.148 0.021 0.305 0.076 0.444 0.155 0.144 0.081 0.272 0.191 0.377 0.319 0.1 0.123 0.177 0.263 0.229 0.413 0.051 0.147 0.076 0.304 0.072 0.496z"></path>
</svg>
