<!-- Generated by IcoMoon.io -->
<svg version="1.1" xmlns="http://www.w3.org/2000/svg" width="32" height="32" viewBox="0 0 32 32">
<title>pie-chart</title>
<path d="M27.052 20.668c-0.635 1.499-1.535 2.8-2.624 3.872-1.131 1.115-2.467 1.985-3.919 2.573s-3.016 0.895-4.604 0.883c-1.528-0.011-3.081-0.316-4.58-0.951-1.499-0.633-2.8-1.535-3.872-2.624-1.115-1.131-1.985-2.467-2.573-3.919-0.588-1.451-0.895-3.016-0.883-4.604 0.011-1.528 0.316-3.081 0.951-4.58 0.613-1.451 1.477-2.716 2.517-3.768 1.080-1.091 2.352-1.955 3.735-2.557 0.675-0.295 0.984-1.080 0.691-1.755s-1.080-0.984-1.755-0.691c-1.691 0.739-3.245 1.793-4.567 3.129-1.275 1.288-2.331 2.836-3.079 4.604-0.772 1.828-1.147 3.727-1.161 5.599-0.015 1.944 0.36 3.855 1.079 5.627s1.781 3.403 3.145 4.788c1.315 1.333 2.907 2.435 4.733 3.208s3.727 1.148 5.599 1.161c1.944 0.015 3.855-0.36 5.627-1.079s3.403-1.781 4.788-3.145c1.333-1.315 2.435-2.907 3.208-4.733 0.287-0.679-0.031-1.46-0.709-1.748s-1.46 0.031-1.748 0.709zM27.927 14.667h-10.593v-10.593c1.143 0.127 2.235 0.412 3.256 0.835 1.468 0.608 2.789 1.499 3.896 2.607 1.108 1.108 1.999 2.429 2.607 3.896 0.423 1.021 0.709 2.113 0.835 3.256zM30.667 16c0-1.984-0.395-3.88-1.111-5.609-0.744-1.796-1.833-3.411-3.184-4.761s-2.965-2.441-4.761-3.184c-1.731-0.717-3.627-1.112-5.611-1.112-0.736 0-1.333 0.597-1.333 1.333v13.333c0 0.736 0.597 1.333 1.333 1.333h13.333c0.736 0 1.333-0.597 1.333-1.333z"></path>
</svg>
