<!-- Generated by IcoMoon.io -->
<svg version="1.1" xmlns="http://www.w3.org/2000/svg" width="32" height="32" viewBox="0 0 32 32">
<title>pocket</title>
<path d="M5.333 2.667c-0.54 0-1.057 0.108-1.531 0.304-0.489 0.203-0.929 0.5-1.297 0.868s-0.665 0.808-0.868 1.297c-0.196 0.473-0.304 0.991-0.304 1.531v8c0 1.984 0.395 3.88 1.111 5.609 0.744 1.796 1.833 3.411 3.184 4.761s2.965 2.441 4.761 3.184c1.731 0.717 3.627 1.112 5.611 1.112s3.88-0.395 5.609-1.111c1.796-0.744 3.411-1.833 4.761-3.184s2.441-2.965 3.184-4.761c0.717-1.731 1.112-3.627 1.112-5.611v-8c0-0.54-0.108-1.057-0.304-1.531-0.203-0.491-0.5-0.931-0.868-1.299s-0.808-0.665-1.299-0.868c-0.472-0.195-0.989-0.303-1.529-0.303zM5.333 5.333h21.333c0.183 0 0.355 0.036 0.509 0.1 0.163 0.067 0.309 0.167 0.433 0.291s0.223 0.271 0.291 0.433c0.064 0.155 0.1 0.327 0.1 0.509v8c0 1.628-0.324 3.177-0.908 4.589-0.608 1.468-1.499 2.789-2.607 3.896s-2.429 1.999-3.896 2.607c-1.412 0.584-2.961 0.908-4.589 0.908s-3.177-0.324-4.589-0.908c-1.468-0.608-2.789-1.499-3.896-2.607-1.108-1.108-1.999-2.429-2.607-3.896-0.584-1.412-0.908-2.961-0.908-4.589v-8c0-0.183 0.036-0.355 0.1-0.509 0.067-0.163 0.167-0.309 0.291-0.433s0.271-0.223 0.433-0.291c0.155-0.064 0.327-0.1 0.509-0.1zM9.724 14.276l5.333 5.333c0.521 0.521 1.365 0.521 1.885 0l5.333-5.333c0.521-0.521 0.521-1.365 0-1.885s-1.365-0.521-1.885 0l-4.391 4.391-4.391-4.391c-0.521-0.521-1.365-0.521-1.885 0s-0.521 1.365 0 1.885z"></path>
</svg>
