<!-- Generated by IcoMoon.io -->
<svg version="1.1" xmlns="http://www.w3.org/2000/svg" width="32" height="32" viewBox="0 0 32 32">
<title>power</title>
<path d="M23.537 9.796c1.023 1.024 1.793 2.2 2.313 3.455 0.54 1.304 0.811 2.696 0.811 4.088s-0.271 2.783-0.812 4.088c-0.52 1.255-1.291 2.432-2.313 3.455s-2.2 1.793-3.455 2.313c-1.304 0.54-2.696 0.811-4.088 0.811s-2.785-0.272-4.089-0.813c-1.255-0.52-2.432-1.291-3.455-2.313-1.023-1.024-1.793-2.2-2.312-3.455-0.54-1.304-0.811-2.695-0.811-4.087s0.271-2.783 0.811-4.087c0.52-1.255 1.289-2.431 2.312-3.455 0.52-0.521 0.52-1.365 0-1.885s-1.365-0.52-1.885 0c-1.275 1.275-2.239 2.747-2.891 4.319-0.676 1.632-1.013 3.369-1.013 5.107s0.337 3.475 1.013 5.107c0.651 1.572 1.616 3.044 2.891 4.32s2.747 2.24 4.32 2.892c1.632 0.676 3.371 1.015 5.108 1.015s3.476-0.337 5.108-1.013c1.573-0.651 3.045-1.616 4.32-2.891s2.24-2.747 2.892-4.32c0.676-1.632 1.015-3.371 1.015-5.108s-0.337-3.476-1.013-5.108c-0.651-1.573-1.616-3.045-2.891-4.32-0.52-0.521-1.365-0.521-1.885 0s-0.521 1.365 0 1.885zM14.667 2.667v13.333c0 0.736 0.597 1.333 1.333 1.333s1.333-0.597 1.333-1.333v-13.333c0-0.736-0.597-1.333-1.333-1.333s-1.333 0.597-1.333 1.333z"></path>
</svg>
