<!-- Generated by IcoMoon.io -->
<svg version="1.1" xmlns="http://www.w3.org/2000/svg" width="32" height="32" viewBox="0 0 32 32">
<title>radio</title>
<path d="M20 16c0-0.54-0.108-1.057-0.304-1.531-0.203-0.491-0.5-0.931-0.868-1.299s-0.808-0.665-1.299-0.868c-0.472-0.195-0.989-0.303-1.529-0.303s-1.057 0.108-1.531 0.304c-0.491 0.203-0.931 0.5-1.299 0.868s-0.665 0.808-0.868 1.299c-0.195 0.472-0.303 0.989-0.303 1.529s0.108 1.057 0.304 1.531c0.203 0.491 0.5 0.931 0.868 1.299s0.808 0.665 1.299 0.868c0.472 0.195 0.989 0.303 1.529 0.303s1.057-0.108 1.531-0.304c0.491-0.203 0.931-0.5 1.299-0.868s0.665-0.808 0.868-1.299c0.195-0.472 0.303-0.989 0.303-1.529zM17.333 16c0 0.183-0.036 0.355-0.1 0.509-0.067 0.163-0.167 0.309-0.291 0.433s-0.271 0.223-0.433 0.291c-0.155 0.064-0.327 0.1-0.509 0.1s-0.355-0.036-0.509-0.1c-0.163-0.067-0.309-0.167-0.433-0.291s-0.223-0.271-0.291-0.433c-0.064-0.155-0.1-0.327-0.1-0.509s0.036-0.355 0.1-0.509c0.067-0.163 0.167-0.309 0.291-0.433s0.271-0.223 0.433-0.291c0.155-0.064 0.327-0.1 0.509-0.1s0.355 0.036 0.509 0.1c0.163 0.067 0.309 0.167 0.433 0.291s0.223 0.271 0.291 0.433c0.064 0.155 0.1 0.327 0.1 0.509zM20.711 11.289c0.64 0.64 1.123 1.375 1.447 2.159 0.337 0.815 0.508 1.684 0.508 2.555s-0.168 1.74-0.505 2.555c-0.324 0.784-0.805 1.519-1.445 2.16-0.52 0.521-0.52 1.365 0.001 1.885s1.365 0.52 1.885-0.001c0.892-0.893 1.567-1.924 2.023-3.025 0.473-1.144 0.708-2.36 0.708-3.576s-0.237-2.432-0.712-3.575c-0.457-1.101-1.133-2.132-2.025-3.023-0.521-0.52-1.365-0.52-1.885 0.001s-0.52 1.365 0.001 1.885zM11.289 20.711c-0.64-0.64-1.123-1.375-1.447-2.159-0.339-0.815-0.508-1.684-0.509-2.555s0.168-1.74 0.505-2.555c0.324-0.784 0.805-1.519 1.445-2.16 0.52-0.521 0.52-1.365-0.001-1.885s-1.365-0.52-1.885 0.001c-0.892 0.893-1.567 1.924-2.023 3.025-0.473 1.143-0.708 2.359-0.708 3.575s0.237 2.432 0.712 3.575c0.457 1.101 1.133 2.132 2.025 3.023 0.521 0.52 1.365 0.52 1.885-0.001s0.52-1.365-0.001-1.885zM24.484 7.516c1.151 1.151 2.017 2.475 2.601 3.887 0.608 1.467 0.912 3.032 0.912 4.597s-0.304 3.131-0.912 4.597c-0.584 1.412-1.451 2.735-2.601 3.887-0.52 0.521-0.52 1.365 0 1.885s1.365 0.52 1.885 0c1.403-1.403 2.463-3.021 3.179-4.751 0.744-1.796 1.115-3.707 1.115-5.617s-0.371-3.823-1.115-5.619c-0.716-1.729-1.777-3.349-3.18-4.752-0.52-0.521-1.365-0.521-1.885 0s-0.521 1.365 0 1.885zM7.516 24.484c-1.151-1.151-2.017-2.475-2.601-3.887-0.608-1.467-0.912-3.032-0.912-4.597s0.304-3.131 0.912-4.597c0.585-1.412 1.451-2.736 2.601-3.887 0.52-0.521 0.52-1.365 0-1.885s-1.365-0.52-1.885 0c-1.403 1.403-2.464 3.021-3.18 4.751-0.743 1.796-1.115 3.708-1.115 5.619s0.371 3.823 1.115 5.619c0.716 1.729 1.777 3.349 3.18 4.752 0.52 0.521 1.365 0.521 1.885 0s0.521-1.365 0-1.885z"></path>
</svg>
