<!-- Generated by IcoMoon.io -->
<svg version="1.1" xmlns="http://www.w3.org/2000/svg" width="32" height="32" viewBox="0 0 32 32">
<title>refresh-ccw</title>
<path d="M28.577 11.555c-0.601-1.7-1.515-3.205-2.653-4.471-1.183-1.313-2.605-2.367-4.173-3.115s-3.281-1.192-5.047-1.285c-1.7-0.089-3.444 0.147-5.144 0.749-1.963 0.695-3.669 1.805-4.991 3.152l-3.903 3.667v-4.919c0-0.736-0.597-1.333-1.333-1.333s-1.333 0.597-1.333 1.333v8c0 0.736 0.597 1.333 1.333 1.333h8c0.736 0 1.333-0.597 1.333-1.333s-0.597-1.333-1.333-1.333h-4.635l3.773-3.545c1.036-1.056 2.396-1.947 3.977-2.507 1.364-0.483 2.759-0.671 4.115-0.6 1.409 0.075 2.781 0.429 4.039 1.029s2.396 1.443 3.34 2.492c0.908 1.009 1.639 2.212 2.121 3.576 0.245 0.695 1.008 1.057 1.701 0.812s1.057-1.008 0.812-1.701zM27.3 20l-3.733 3.508c-1.053 1.053-2.229 1.823-3.484 2.343-1.304 0.54-2.695 0.812-4.087 0.812s-2.784-0.269-4.088-0.809c-1.255-0.52-2.432-1.289-3.456-2.312-1.187-1.187-2.031-2.575-2.511-3.975-0.24-0.696-0.997-1.067-1.695-0.828s-1.067 0.997-0.828 1.695c0.613 1.785 1.676 3.523 3.148 4.993 1.276 1.275 2.748 2.239 4.321 2.891 1.633 0.676 3.371 1.013 5.108 1.012s3.475-0.339 5.108-1.015c1.572-0.652 3.044-1.617 4.289-2.864l3.94-3.701v4.917c0 0.736 0.597 1.333 1.333 1.333s1.333-0.597 1.333-1.333v-8c0-0.019 0-0.037-0.001-0.056-0.007-0.153-0.039-0.3-0.092-0.436-0.055-0.139-0.132-0.265-0.228-0.376-0.017-0.020-0.035-0.039-0.052-0.057-0.121-0.125-0.267-0.228-0.429-0.297-0.159-0.068-0.332-0.108-0.515-0.109-0.005 0-0.009 0-0.015 0h-8.001c-0.736 0-1.333 0.597-1.333 1.333s0.597 1.333 1.333 1.333z"></path>
</svg>
