<!-- Generated by IcoMoon.io -->
<svg version="1.1" xmlns="http://www.w3.org/2000/svg" width="32" height="32" viewBox="0 0 32 32">
<title>refresh-cw</title>
<path d="M5.937 12.445c0.483-1.364 1.213-2.567 2.121-3.576 0.944-1.049 2.083-1.893 3.34-2.492s2.628-0.955 4.039-1.029c1.356-0.072 2.751 0.117 4.115 0.6 1.581 0.56 2.941 1.451 3.977 2.507l3.772 3.545h-4.635c-0.736 0-1.333 0.597-1.333 1.333s0.597 1.333 1.333 1.333h8c0.005 0 0.009 0 0.015 0 0.183-0.001 0.357-0.041 0.515-0.109 0.163-0.071 0.308-0.172 0.429-0.297 0.017-0.019 0.036-0.037 0.052-0.057 0.096-0.111 0.173-0.239 0.228-0.376 0.055-0.136 0.087-0.283 0.092-0.436 0.003-0.020 0.003-0.039 0.003-0.057v-8c0-0.736-0.597-1.333-1.333-1.333s-1.333 0.597-1.333 1.333v4.919l-3.901-3.665c-1.323-1.347-3.028-2.457-4.991-3.152-1.7-0.601-3.444-0.839-5.144-0.749-1.765 0.093-3.479 0.537-5.047 1.285s-2.991 1.801-4.173 3.115c-1.139 1.265-2.052 2.769-2.653 4.471-0.245 0.695 0.117 1.456 0.812 1.701s1.456-0.117 1.701-0.812zM2.667 21.749l3.94 3.703c1.245 1.247 2.717 2.212 4.289 2.864 1.632 0.676 3.371 1.015 5.108 1.015s3.476-0.337 5.108-1.012c1.573-0.651 3.045-1.615 4.321-2.891 1.472-1.472 2.535-3.209 3.148-4.993 0.24-0.696-0.131-1.455-0.828-1.695s-1.455 0.131-1.695 0.828c-0.481 1.4-1.324 2.788-2.511 3.975-1.024 1.023-2.2 1.793-3.456 2.312-1.304 0.54-2.696 0.811-4.088 0.809s-2.783-0.272-4.087-0.812c-1.255-0.52-2.431-1.291-3.484-2.343l-3.733-3.509h4.633c0.736 0 1.333-0.597 1.333-1.333s-0.597-1.333-1.333-1.333h-8c-0.005 0-0.009 0-0.015 0-0.183 0.001-0.357 0.041-0.515 0.109-0.163 0.071-0.309 0.173-0.431 0.3-0.017 0.017-0.033 0.036-0.049 0.055-0.096 0.112-0.175 0.24-0.229 0.379-0.053 0.136-0.085 0.281-0.092 0.435-0.003 0.019-0.003 0.037-0.003 0.056v8c0 0.736 0.597 1.333 1.333 1.333s1.333-0.597 1.333-1.333z"></path>
</svg>
