<!-- Generated by IcoMoon.io -->
<svg version="1.1" xmlns="http://www.w3.org/2000/svg" width="32" height="32" viewBox="0 0 32 32">
<title>repeat</title>
<path d="M5.333 14.667v-2.667c0-0.544 0.108-1.060 0.303-1.529 0.203-0.488 0.5-0.929 0.869-1.299s0.811-0.667 1.299-0.869c0.469-0.195 0.985-0.303 1.529-0.303h15.448l-3.057 3.057c-0.521 0.521-0.521 1.365 0 1.885s1.365 0.521 1.885 0l5.333-5.333c0.128-0.128 0.224-0.276 0.289-0.433 0.065-0.16 0.1-0.329 0.101-0.499 0-0.007 0-0.015 0-0.021-0.001-0.169-0.035-0.34-0.101-0.499-0.065-0.157-0.161-0.305-0.289-0.433l-5.333-5.333c-0.521-0.521-1.365-0.521-1.885 0s-0.521 1.365 0 1.885l3.057 3.057h-15.448c-0.9 0-1.763 0.179-2.549 0.505-0.817 0.339-1.551 0.833-2.165 1.447s-1.108 1.348-1.447 2.165c-0.327 0.787-0.505 1.649-0.505 2.549v2.667c0 0.736 0.597 1.333 1.333 1.333s1.333-0.597 1.333-1.333zM26.667 17.333v2.667c0 0.544-0.108 1.060-0.303 1.529-0.203 0.488-0.5 0.929-0.869 1.299s-0.811 0.667-1.299 0.869c-0.469 0.195-0.985 0.303-1.529 0.303h-15.448l3.057-3.057c0.521-0.521 0.521-1.365 0-1.885s-1.365-0.521-1.885 0l-5.333 5.333c-0.128 0.128-0.225 0.276-0.289 0.433-0.067 0.159-0.1 0.327-0.101 0.496 0 0.009 0 0.019 0 0.027 0.001 0.169 0.035 0.337 0.1 0.496 0.065 0.157 0.161 0.305 0.289 0.433l5.333 5.333c0.521 0.521 1.365 0.521 1.885 0s0.521-1.365 0-1.885l-3.056-3.057h15.448c0.9 0 1.763-0.179 2.549-0.505 0.817-0.339 1.551-0.833 2.164-1.447s1.109-1.348 1.447-2.164c0.328-0.788 0.507-1.651 0.507-2.551v-2.667c0-0.736-0.597-1.333-1.333-1.333s-1.333 0.597-1.333 1.333z"></path>
</svg>
