<!-- Generated by IcoMoon.io -->
<svg version="1.1" xmlns="http://www.w3.org/2000/svg" width="32" height="32" viewBox="0 0 32 32">
<title>rewind</title>
<path d="M13.333 22.607l-8.495-6.607 8.495-6.607zM28.515 26.385c0.224 0.176 0.509 0.281 0.819 0.281 0.736 0 1.333-0.597 1.333-1.333v-18.667c0.001-0.284-0.091-0.573-0.281-0.819-0.452-0.581-1.289-0.685-1.871-0.233l-12 9.333c-0.081 0.061-0.163 0.141-0.233 0.233-0.187 0.24-0.279 0.523-0.281 0.805v-9.32c0.001-0.284-0.091-0.573-0.281-0.819-0.452-0.581-1.289-0.685-1.871-0.233l-12 9.333c-0.081 0.061-0.163 0.141-0.233 0.233-0.452 0.581-0.348 1.419 0.233 1.871l12 9.333c0.224 0.176 0.509 0.281 0.819 0.281 0.736 0 1.333-0.597 1.333-1.333v-9.321c0.004 0.393 0.18 0.78 0.515 1.040zM28 22.607l-8.495-6.607 8.495-6.607z"></path>
</svg>
