<!-- Generated by IcoMoon.io -->
<svg version="1.1" xmlns="http://www.w3.org/2000/svg" width="32" height="32" viewBox="0 0 32 32">
<title>rotate-ccw</title>
<path d="M3.423 20.443c0.599 1.701 1.511 3.207 2.647 4.473 1.18 1.315 2.603 2.371 4.169 3.121s3.28 1.197 5.045 1.292c1.7 0.092 3.444-0.143 5.145-0.741s3.207-1.511 4.473-2.647c1.315-1.18 2.371-2.603 3.121-4.169s1.197-3.28 1.292-5.045c0.092-1.7-0.143-3.444-0.741-5.145s-1.511-3.207-2.647-4.473c-1.18-1.315-2.603-2.371-4.169-3.121s-3.28-1.197-5.045-1.292c-1.7-0.092-3.445 0.143-5.145 0.743-1.965 0.692-3.673 1.801-4.999 3.148l-3.903 3.667v-4.919c0-0.736-0.597-1.333-1.333-1.333s-1.333 0.597-1.333 1.333v8c0 0.019 0 0.037 0.001 0.056 0.007 0.153 0.039 0.3 0.092 0.435 0.055 0.14 0.133 0.267 0.229 0.379 0.016 0.019 0.032 0.036 0.049 0.055 0.121 0.127 0.268 0.229 0.431 0.3 0.159 0.068 0.332 0.108 0.515 0.109 0.005 0 0.009 0 0.015 0h8.001c0.736 0 1.333-0.597 1.333-1.333s-0.597-1.333-1.333-1.333h-4.635l3.772-3.545c1.039-1.056 2.4-1.945 3.983-2.503 1.365-0.481 2.759-0.667 4.115-0.593 1.409 0.076 2.781 0.433 4.037 1.035s2.393 1.447 3.336 2.497c0.907 1.011 1.636 2.213 2.117 3.579s0.667 2.759 0.593 4.115c-0.076 1.409-0.433 2.781-1.035 4.037s-1.447 2.393-2.497 3.336c-1.011 0.907-2.213 1.636-3.579 2.117s-2.759 0.667-4.115 0.593c-1.409-0.076-2.781-0.433-4.037-1.035s-2.393-1.447-3.336-2.497c-0.907-1.011-1.636-2.213-2.117-3.579-0.245-0.695-1.007-1.059-1.7-0.815s-1.059 1.007-0.815 1.7z"></path>
</svg>
