<!-- Generated by IcoMoon.io -->
<svg version="1.1" xmlns="http://www.w3.org/2000/svg" width="32" height="32" viewBox="0 0 32 32">
<title>rotate-cw</title>
<path d="M26.063 19.556c-0.483 1.364-1.212 2.567-2.12 3.577-0.944 1.049-2.083 1.893-3.339 2.495-1.256 0.6-2.628 0.956-4.037 1.031-1.356 0.072-2.751-0.116-4.115-0.597s-2.567-1.212-3.577-2.12c-1.049-0.944-1.893-2.083-2.495-3.339s-0.956-2.628-1.031-4.037c-0.072-1.356 0.116-2.751 0.597-4.115s1.212-2.567 2.12-3.577c0.944-1.049 2.083-1.893 3.339-2.495s2.628-0.956 4.037-1.031c1.356-0.072 2.751 0.116 4.115 0.597 1.584 0.56 2.945 1.451 3.983 2.509l3.767 3.545h-4.64c-0.736 0-1.333 0.597-1.333 1.333s0.597 1.333 1.333 1.333h8c0.005 0 0.009 0 0.015 0 0.183-0.001 0.356-0.040 0.513-0.109 0.164-0.071 0.311-0.173 0.432-0.3 0.016-0.016 0.031-0.033 0.047-0.051 0.097-0.112 0.177-0.241 0.233-0.383 0.055-0.136 0.087-0.284 0.092-0.437 0.001-0.017 0.001-0.035 0.001-0.053v-8c0-0.736-0.597-1.333-1.333-1.333s-1.333 0.597-1.333 1.333v4.913l-3.888-3.66c-1.324-1.349-3.032-2.461-4.997-3.155-1.7-0.601-3.445-0.836-5.144-0.747-1.764 0.093-3.479 0.539-5.045 1.288s-2.992 1.803-4.173 3.116c-1.139 1.267-2.051 2.771-2.652 4.472s-0.836 3.445-0.747 5.144c0.093 1.764 0.539 3.479 1.288 5.045s1.803 2.991 3.117 4.172c1.265 1.139 2.771 2.051 4.472 2.651s3.445 0.836 5.144 0.747c1.764-0.093 3.479-0.539 5.045-1.288s2.991-1.803 4.172-3.117c1.139-1.265 2.051-2.771 2.651-4.472 0.245-0.695-0.119-1.456-0.813-1.701s-1.456 0.119-1.701 0.813z"></path>
</svg>
