<!-- Generated by IcoMoon.io -->
<svg version="1.1" xmlns="http://www.w3.org/2000/svg" width="32" height="32" viewBox="0 0 32 32">
<title>rss1</title>
<path d="M5.333 16c1.447 0 2.824 0.288 4.079 0.807 1.304 0.54 2.479 1.332 3.464 2.317s1.777 2.16 2.317 3.464c0.519 1.255 0.807 2.632 0.807 4.079 0 0.736 0.597 1.333 1.333 1.333s1.333-0.597 1.333-1.333c0-1.804-0.359-3.527-1.011-5.099-0.676-1.632-1.667-3.1-2.895-4.329s-2.696-2.219-4.329-2.895c-1.572-0.652-3.295-1.011-5.099-1.011-0.736 0-1.333 0.597-1.333 1.333s0.597 1.333 1.333 1.333zM5.333 6.667c2.712 0 5.293 0.539 7.648 1.515 2.447 1.013 4.649 2.499 6.495 4.344s3.331 4.048 4.344 6.495c0.975 2.353 1.513 4.935 1.513 7.647 0 0.736 0.597 1.333 1.333 1.333s1.333-0.597 1.333-1.333c0-3.068-0.611-5.996-1.717-8.668-1.149-2.775-2.833-5.271-4.921-7.359s-4.584-3.772-7.359-4.921c-2.673-1.108-5.601-1.719-8.669-1.719-0.736 0-1.333 0.597-1.333 1.333s0.597 1.333 1.333 1.333zM9.333 25.333c0-0.359-0.072-0.704-0.203-1.020-0.136-0.328-0.333-0.62-0.579-0.865s-0.539-0.443-0.865-0.579c-0.316-0.131-0.661-0.203-1.020-0.203s-0.704 0.072-1.020 0.203c-0.328 0.136-0.62 0.333-0.865 0.579s-0.443 0.539-0.579 0.865c-0.131 0.316-0.203 0.661-0.203 1.020s0.072 0.704 0.203 1.020c0.136 0.328 0.333 0.62 0.579 0.865s0.539 0.443 0.865 0.579c0.316 0.131 0.661 0.203 1.020 0.203s0.704-0.072 1.020-0.203c0.328-0.136 0.62-0.333 0.865-0.579s0.443-0.539 0.579-0.865c0.131-0.316 0.203-0.661 0.203-1.020z"></path>
</svg>
