<!-- Generated by IcoMoon.io -->
<svg version="1.1" xmlns="http://www.w3.org/2000/svg" width="32" height="32" viewBox="0 0 32 32">
<title>scissors</title>
<path d="M9.837 22.068c0.015 0.016 0.031 0.033 0.047 0.048s0.032 0.031 0.048 0.047c0.225 0.236 0.407 0.513 0.533 0.819 0.129 0.312 0.201 0.655 0.201 1.019s-0.072 0.707-0.201 1.020c-0.135 0.325-0.333 0.619-0.58 0.867s-0.541 0.445-0.867 0.58c-0.312 0.128-0.655 0.2-1.019 0.2s-0.707-0.072-1.020-0.201c-0.325-0.135-0.619-0.333-0.867-0.58s-0.445-0.541-0.58-0.867c-0.128-0.312-0.2-0.655-0.2-1.019s0.072-0.707 0.201-1.020c0.135-0.325 0.333-0.619 0.58-0.867s0.541-0.445 0.867-0.58c0.312-0.128 0.655-0.2 1.019-0.2s0.707 0.072 1.020 0.201c0.304 0.127 0.581 0.308 0.819 0.533zM18.352 20.251l7.373 7.36c0.521 0.52 1.365 0.52 1.885-0.001s0.52-1.365-0.001-1.885l-7.373-7.36c-0.521-0.52-1.365-0.52-1.885 0.001s-0.52 1.365 0.001 1.885zM9.932 9.837c-0.016 0.015-0.032 0.031-0.048 0.047s-0.032 0.032-0.047 0.048c-0.236 0.225-0.513 0.407-0.819 0.533-0.312 0.129-0.655 0.201-1.019 0.201s-0.707-0.072-1.020-0.201c-0.325-0.135-0.619-0.333-0.867-0.58s-0.445-0.541-0.58-0.867c-0.128-0.312-0.2-0.655-0.2-1.019s0.072-0.707 0.201-1.020c0.135-0.325 0.333-0.619 0.58-0.867s0.541-0.445 0.867-0.58c0.312-0.128 0.655-0.2 1.019-0.2s0.707 0.072 1.020 0.201c0.325 0.135 0.619 0.333 0.867 0.58s0.445 0.541 0.58 0.867c0.128 0.312 0.2 0.655 0.2 1.019s-0.072 0.707-0.201 1.020c-0.127 0.304-0.308 0.581-0.533 0.819zM10.709 12.595l3.405 3.405-3.405 3.405c-0.213-0.127-0.437-0.239-0.669-0.335-0.631-0.26-1.32-0.404-2.040-0.404s-1.409 0.144-2.040 0.404c-0.653 0.271-1.24 0.667-1.731 1.157s-0.888 1.079-1.159 1.732c-0.26 0.631-0.404 1.32-0.404 2.040s0.144 1.409 0.404 2.040c0.271 0.653 0.667 1.24 1.157 1.731s1.077 0.887 1.731 1.157c0.632 0.261 1.321 0.405 2.041 0.405s1.409-0.144 2.040-0.404c0.653-0.271 1.24-0.667 1.731-1.157s0.887-1.077 1.157-1.731c0.261-0.632 0.405-1.321 0.405-2.041s-0.144-1.409-0.404-2.040c-0.096-0.232-0.208-0.456-0.335-0.669l15.015-15.015c0.521-0.521 0.521-1.365 0-1.885s-1.365-0.521-1.885 0l-9.724 9.724-3.405-3.405c0.127-0.213 0.239-0.437 0.335-0.669 0.26-0.631 0.404-1.32 0.404-2.040s-0.144-1.409-0.404-2.040c-0.271-0.653-0.667-1.24-1.157-1.731s-1.079-0.888-1.732-1.159c-0.631-0.26-1.32-0.404-2.040-0.404s-1.409 0.144-2.040 0.404c-0.653 0.271-1.24 0.667-1.731 1.157s-0.888 1.079-1.159 1.732c-0.26 0.631-0.404 1.32-0.404 2.040s0.144 1.409 0.404 2.040c0.271 0.653 0.667 1.24 1.157 1.731s1.079 0.888 1.732 1.159c0.631 0.26 1.32 0.404 2.040 0.404s1.409-0.144 2.040-0.404c0.232-0.096 0.456-0.208 0.669-0.335z"></path>
</svg>
