<!-- Generated by IcoMoon.io -->
<svg version="1.1" xmlns="http://www.w3.org/2000/svg" width="32" height="32" viewBox="0 0 32 32">
<title>search</title>
<path d="M21.388 21.141c-0.045 0.035-0.089 0.073-0.132 0.116s-0.080 0.085-0.116 0.132c-0.836 0.805-1.82 1.455-2.907 1.905-1.096 0.453-2.3 0.705-3.567 0.705s-2.471-0.252-3.569-0.707c-1.141-0.472-2.169-1.165-3.031-2.028s-1.555-1.889-2.028-3.031c-0.453-1.097-0.705-2.301-0.705-3.568s0.252-2.471 0.707-3.569c0.472-1.14 1.165-2.169 2.027-3.031s1.891-1.555 3.031-2.027c1.099-0.455 2.303-0.707 3.569-0.707s2.471 0.252 3.569 0.707c1.141 0.472 2.169 1.165 3.031 2.028s1.555 1.889 2.028 3.031c0.453 1.097 0.705 2.301 0.705 3.568s-0.252 2.471-0.707 3.569c-0.451 1.087-1.1 2.071-1.905 2.907zM28.943 27.057l-4.9-4.9c0.7-0.875 1.28-1.849 1.715-2.901 0.587-1.416 0.909-2.967 0.909-4.589s-0.323-3.173-0.909-4.589c-0.608-1.469-1.5-2.791-2.605-3.896s-2.427-1.997-3.896-2.605c-1.416-0.587-2.967-0.909-4.589-0.909s-3.173 0.323-4.589 0.909c-1.469 0.608-2.791 1.5-3.896 2.605s-1.997 2.427-2.605 3.896c-0.587 1.416-0.909 2.967-0.909 4.589s0.323 3.173 0.909 4.589c0.608 1.469 1.5 2.791 2.605 3.896s2.427 1.997 3.896 2.605c1.416 0.587 2.967 0.909 4.589 0.909s3.173-0.323 4.589-0.909c1.051-0.436 2.027-1.016 2.901-1.715l4.9 4.9c0.521 0.521 1.365 0.521 1.885 0s0.521-1.365 0-1.885z"></path>
</svg>
