<!-- Generated by IcoMoon.io -->
<svg version="1.1" xmlns="http://www.w3.org/2000/svg" width="32" height="32" viewBox="0 0 32 32">
<title>settings</title>
<path d="M21.333 16c0-0.72-0.144-1.409-0.404-2.040-0.271-0.653-0.667-1.24-1.157-1.731s-1.079-0.888-1.732-1.159c-0.631-0.26-1.32-0.404-2.040-0.404s-1.409 0.144-2.040 0.404c-0.653 0.271-1.24 0.667-1.731 1.157s-0.888 1.079-1.159 1.732c-0.26 0.631-0.404 1.32-0.404 2.040s0.144 1.409 0.404 2.040c0.271 0.653 0.667 1.24 1.157 1.731s1.077 0.887 1.731 1.157c0.632 0.261 1.321 0.405 2.041 0.405s1.409-0.144 2.040-0.404c0.653-0.271 1.24-0.667 1.731-1.157s0.887-1.077 1.157-1.731c0.261-0.632 0.405-1.321 0.405-2.041zM18.667 16c0 0.364-0.072 0.707-0.201 1.020-0.135 0.325-0.333 0.619-0.58 0.867s-0.541 0.445-0.867 0.58c-0.312 0.128-0.655 0.2-1.019 0.2s-0.707-0.072-1.020-0.201c-0.325-0.135-0.619-0.333-0.867-0.58s-0.445-0.541-0.58-0.867c-0.128-0.312-0.2-0.655-0.2-1.019s0.072-0.707 0.201-1.020c0.135-0.325 0.333-0.619 0.58-0.867s0.541-0.445 0.867-0.58c0.312-0.128 0.655-0.2 1.019-0.2s0.707 0.072 1.020 0.201c0.325 0.135 0.619 0.333 0.867 0.58s0.445 0.541 0.58 0.867c0.128 0.312 0.2 0.655 0.2 1.019zM27.087 20.539c0.061-0.14 0.149-0.255 0.256-0.343 0.076-0.063 0.163-0.112 0.253-0.145 0.088-0.032 0.185-0.051 0.284-0.051h0.12c0.54 0 1.057-0.108 1.531-0.304 0.491-0.203 0.931-0.5 1.299-0.868s0.665-0.808 0.868-1.299c0.195-0.472 0.303-0.989 0.303-1.529s-0.108-1.057-0.304-1.531c-0.203-0.491-0.5-0.931-0.868-1.299s-0.808-0.665-1.299-0.868c-0.472-0.195-0.989-0.303-1.529-0.303h-0.212c-0.147-0.001-0.287-0.037-0.411-0.101-0.088-0.045-0.167-0.105-0.232-0.177-0.063-0.067-0.116-0.147-0.156-0.239-0.004-0.039-0.005-0.079-0.005-0.119-0.061-0.141-0.085-0.292-0.072-0.437 0.008-0.099 0.033-0.195 0.075-0.284 0.039-0.085 0.095-0.168 0.157-0.232l0.083-0.083c0.381-0.381 0.671-0.824 0.867-1.297 0.203-0.491 0.304-1.012 0.304-1.532s-0.101-1.041-0.305-1.532c-0.196-0.473-0.487-0.915-0.871-1.299-0.381-0.381-0.824-0.671-1.297-0.867-0.491-0.203-1.012-0.304-1.532-0.304s-1.043 0.103-1.533 0.305c-0.473 0.196-0.915 0.487-1.296 0.868l-0.061 0.063c-0.111 0.107-0.244 0.181-0.384 0.221-0.096 0.027-0.195 0.037-0.292 0.031-0.095-0.007-0.191-0.029-0.291-0.073-0.135-0.059-0.249-0.147-0.337-0.253-0.063-0.076-0.112-0.163-0.145-0.253-0.033-0.089-0.052-0.187-0.052-0.285v-0.12c0-0.54-0.108-1.057-0.304-1.531-0.203-0.491-0.5-0.931-0.868-1.299s-0.808-0.665-1.299-0.868c-0.472-0.195-0.989-0.303-1.529-0.303s-1.057 0.108-1.531 0.304c-0.491 0.203-0.931 0.5-1.299 0.868s-0.664 0.808-0.867 1.297c-0.196 0.473-0.304 0.991-0.304 1.531v0.212c-0.001 0.147-0.037 0.287-0.101 0.411-0.045 0.088-0.105 0.167-0.177 0.232-0.067 0.063-0.147 0.116-0.239 0.156-0.039 0.004-0.079 0.005-0.119 0.005-0.141 0.061-0.292 0.085-0.437 0.072-0.1-0.008-0.196-0.033-0.285-0.073-0.085-0.040-0.168-0.095-0.232-0.157l-0.083-0.083c-0.381-0.381-0.824-0.671-1.297-0.867-0.491-0.203-1.012-0.304-1.532-0.304s-1.041 0.103-1.532 0.305c-0.472 0.196-0.915 0.487-1.297 0.871-0.381 0.381-0.671 0.824-0.867 1.297-0.203 0.491-0.304 1.012-0.304 1.532s0.103 1.041 0.305 1.532c0.196 0.472 0.487 0.915 0.868 1.295l0.063 0.063c0.107 0.111 0.181 0.244 0.221 0.384 0.027 0.096 0.037 0.195 0.031 0.292-0.007 0.095-0.029 0.191-0.072 0.287-0.008 0.021-0.017 0.045-0.028 0.069-0.055 0.145-0.144 0.271-0.255 0.367-0.076 0.065-0.16 0.116-0.252 0.152-0.088 0.035-0.185 0.055-0.259 0.057h-0.12c-0.54 0-1.057 0.108-1.531 0.304-0.489 0.203-0.929 0.5-1.297 0.868s-0.665 0.808-0.868 1.299c-0.196 0.472-0.304 0.989-0.304 1.529s0.108 1.057 0.304 1.531c0.203 0.491 0.5 0.931 0.868 1.299s0.808 0.665 1.299 0.868c0.472 0.195 0.989 0.303 1.529 0.303h0.212c0.147 0.001 0.287 0.037 0.411 0.101 0.088 0.045 0.167 0.105 0.232 0.177 0.064 0.069 0.119 0.151 0.161 0.251 0.061 0.141 0.085 0.292 0.072 0.437-0.008 0.099-0.033 0.195-0.075 0.284-0.039 0.085-0.095 0.168-0.157 0.232l-0.083 0.083c-0.381 0.381-0.671 0.824-0.867 1.297-0.203 0.491-0.304 1.012-0.304 1.532s0.101 1.041 0.305 1.532c0.196 0.473 0.487 0.915 0.871 1.299 0.381 0.381 0.824 0.671 1.297 0.867 0.491 0.203 1.012 0.304 1.532 0.304s1.041-0.101 1.532-0.305c0.473-0.196 0.915-0.487 1.296-0.868l0.063-0.064c0.111-0.107 0.244-0.181 0.384-0.221 0.096-0.027 0.195-0.037 0.292-0.031 0.095 0.007 0.191 0.029 0.287 0.072 0.021 0.008 0.045 0.017 0.069 0.028 0.145 0.055 0.271 0.144 0.367 0.255 0.065 0.075 0.116 0.16 0.152 0.252 0.033 0.088 0.055 0.185 0.056 0.259v0.121c0 0.54 0.108 1.057 0.304 1.531 0.203 0.491 0.5 0.931 0.868 1.299s0.808 0.665 1.299 0.868c0.473 0.195 0.991 0.303 1.531 0.303s1.057-0.108 1.531-0.304c0.491-0.203 0.931-0.5 1.299-0.868s0.665-0.808 0.868-1.299c0.196-0.473 0.304-0.991 0.304-1.531v-0.212c0.001-0.147 0.037-0.287 0.101-0.411 0.045-0.088 0.105-0.167 0.177-0.232 0.069-0.064 0.151-0.119 0.251-0.161 0.141-0.061 0.292-0.085 0.437-0.072 0.099 0.008 0.195 0.033 0.284 0.075 0.085 0.039 0.168 0.095 0.232 0.157l0.083 0.083c0.381 0.381 0.824 0.671 1.297 0.867 0.491 0.203 1.012 0.304 1.532 0.304s1.041-0.101 1.532-0.305c0.473-0.196 0.915-0.487 1.299-0.871 0.381-0.381 0.671-0.824 0.867-1.297 0.203-0.491 0.304-1.012 0.304-1.532s-0.101-1.041-0.305-1.532c-0.196-0.473-0.487-0.915-0.868-1.296l-0.064-0.063c-0.107-0.111-0.181-0.244-0.221-0.384-0.027-0.096-0.037-0.195-0.031-0.292 0.007-0.095 0.029-0.191 0.072-0.287zM24.647 19.461c-0.168 0.38-0.264 0.776-0.292 1.173-0.029 0.409 0.015 0.816 0.123 1.201 0.159 0.564 0.455 1.085 0.869 1.516l0.096 0.097c0.131 0.129 0.225 0.276 0.291 0.432 0.067 0.163 0.101 0.336 0.101 0.512s-0.033 0.349-0.101 0.512c-0.064 0.155-0.16 0.301-0.289 0.432-0.132 0.132-0.279 0.227-0.433 0.292-0.163 0.067-0.336 0.101-0.512 0.101s-0.349-0.033-0.512-0.101c-0.155-0.064-0.301-0.16-0.432-0.289l-0.081-0.081c-0.307-0.301-0.645-0.531-1.007-0.696-0.373-0.171-0.769-0.273-1.168-0.307-0.583-0.049-1.176 0.045-1.724 0.283-0.375 0.16-0.713 0.384-1.004 0.653-0.299 0.277-0.544 0.601-0.729 0.956-0.257 0.495-0.397 1.047-0.404 1.615v0.241c0 0.183-0.036 0.355-0.1 0.509-0.067 0.163-0.167 0.309-0.291 0.433s-0.271 0.223-0.433 0.291c-0.152 0.060-0.324 0.096-0.507 0.096s-0.355-0.036-0.509-0.1c-0.163-0.067-0.309-0.167-0.433-0.291s-0.223-0.271-0.291-0.433c-0.064-0.155-0.1-0.327-0.1-0.509v-0.12c-0.011-0.447-0.092-0.847-0.235-1.219-0.148-0.383-0.36-0.733-0.623-1.036-0.379-0.437-0.861-0.78-1.411-0.993-0.369-0.159-0.755-0.249-1.139-0.277-0.409-0.029-0.816 0.015-1.201 0.123-0.564 0.159-1.085 0.455-1.516 0.869l-0.097 0.096c-0.132 0.131-0.277 0.227-0.433 0.291-0.163 0.067-0.336 0.101-0.512 0.101s-0.349-0.033-0.512-0.101c-0.155-0.064-0.301-0.16-0.432-0.289-0.132-0.132-0.227-0.279-0.292-0.433-0.067-0.163-0.101-0.336-0.101-0.512s0.033-0.349 0.101-0.512c0.064-0.155 0.16-0.301 0.289-0.432l0.081-0.081c0.301-0.307 0.531-0.645 0.696-1.007 0.171-0.373 0.273-0.769 0.307-1.168 0.049-0.583-0.045-1.176-0.283-1.724-0.16-0.375-0.384-0.713-0.653-1.004-0.277-0.3-0.601-0.544-0.956-0.729-0.495-0.257-1.047-0.397-1.615-0.404l-0.237 0.003c-0.183 0-0.355-0.036-0.509-0.1-0.163-0.067-0.309-0.167-0.433-0.291s-0.223-0.271-0.291-0.433c-0.064-0.155-0.1-0.327-0.1-0.509s0.036-0.355 0.1-0.509c0.067-0.163 0.167-0.309 0.291-0.433s0.271-0.223 0.433-0.291c0.155-0.064 0.327-0.1 0.509-0.1h0.12c0.447-0.011 0.847-0.092 1.219-0.235 0.383-0.148 0.733-0.36 1.036-0.623 0.437-0.379 0.78-0.861 0.993-1.411 0.159-0.369 0.249-0.755 0.277-1.139 0.029-0.409-0.015-0.816-0.123-1.201-0.159-0.567-0.455-1.088-0.869-1.517l-0.097-0.097c-0.129-0.131-0.225-0.276-0.289-0.432-0.068-0.161-0.101-0.336-0.103-0.511s0.033-0.349 0.101-0.512c0.064-0.155 0.16-0.301 0.289-0.432 0.132-0.131 0.277-0.227 0.433-0.291 0.161-0.068 0.336-0.101 0.511-0.103s0.349 0.033 0.512 0.101c0.155 0.064 0.301 0.16 0.432 0.289l0.081 0.081c0.307 0.301 0.645 0.531 1.007 0.696 0.373 0.171 0.769 0.273 1.168 0.307 0.493 0.043 0.993-0.019 1.468-0.183 0.128-0.016 0.249-0.049 0.359-0.097 0.38-0.163 0.719-0.385 1.009-0.655 0.3-0.277 0.544-0.601 0.729-0.956 0.256-0.493 0.396-1.047 0.403-1.613v-0.241c0-0.183 0.036-0.355 0.1-0.509 0.067-0.163 0.167-0.309 0.291-0.433s0.271-0.223 0.433-0.291c0.155-0.064 0.327-0.1 0.509-0.1s0.355 0.036 0.509 0.1c0.163 0.067 0.309 0.167 0.433 0.291s0.223 0.271 0.291 0.433c0.064 0.155 0.1 0.327 0.1 0.509v0.12c0.001 0.419 0.075 0.817 0.209 1.189 0.139 0.384 0.341 0.736 0.596 1.044 0.355 0.431 0.809 0.775 1.328 1.001 0.375 0.165 0.772 0.261 1.168 0.289 0.409 0.029 0.816-0.015 1.201-0.123 0.564-0.159 1.085-0.455 1.516-0.869l0.097-0.096c0.129-0.131 0.276-0.225 0.432-0.291 0.163-0.067 0.336-0.101 0.512-0.101s0.349 0.033 0.512 0.101c0.155 0.064 0.301 0.16 0.432 0.289 0.132 0.132 0.227 0.279 0.292 0.433 0.067 0.163 0.101 0.336 0.101 0.512s-0.033 0.349-0.101 0.512c-0.064 0.155-0.16 0.301-0.289 0.432l-0.081 0.081c-0.301 0.307-0.531 0.645-0.696 1.007-0.171 0.373-0.273 0.769-0.307 1.168-0.043 0.493 0.019 0.993 0.183 1.468 0.016 0.128 0.049 0.249 0.097 0.359 0.163 0.38 0.385 0.719 0.655 1.009 0.277 0.299 0.601 0.544 0.956 0.729 0.495 0.257 1.047 0.397 1.615 0.404l0.239-0.003c0.183 0 0.355 0.036 0.509 0.1 0.163 0.067 0.309 0.167 0.433 0.291s0.223 0.271 0.291 0.433c0.064 0.155 0.1 0.327 0.1 0.509s-0.036 0.355-0.1 0.509c-0.067 0.163-0.167 0.309-0.291 0.433s-0.271 0.223-0.433 0.291c-0.155 0.064-0.327 0.1-0.509 0.1h-0.12c-0.419 0.001-0.817 0.075-1.189 0.209-0.384 0.139-0.736 0.341-1.044 0.596-0.431 0.355-0.775 0.809-1 1.324z"></path>
</svg>
