<!-- Generated by IcoMoon.io -->
<svg version="1.1" xmlns="http://www.w3.org/2000/svg" width="32" height="32" viewBox="0 0 32 32">
<title>share-2</title>
<path d="M21.62 24.129c0.033-0.044 0.064-0.089 0.092-0.139 0.027-0.047 0.051-0.093 0.072-0.141 0.097-0.144 0.208-0.279 0.331-0.401 0.247-0.247 0.541-0.445 0.867-0.58 0.312-0.129 0.655-0.201 1.019-0.201s0.707 0.072 1.020 0.201c0.325 0.135 0.619 0.333 0.867 0.58s0.445 0.541 0.58 0.867c0.128 0.312 0.2 0.655 0.2 1.019s-0.072 0.707-0.201 1.020c-0.135 0.325-0.333 0.619-0.58 0.867s-0.541 0.445-0.867 0.58c-0.312 0.128-0.655 0.2-1.019 0.2s-0.707-0.072-1.020-0.201c-0.325-0.135-0.619-0.333-0.867-0.58s-0.445-0.541-0.58-0.867c-0.128-0.312-0.2-0.655-0.2-1.019s0.072-0.707 0.201-1.020c0.025-0.063 0.055-0.124 0.084-0.184zM21.735 8.075c-0.012-0.023-0.024-0.045-0.036-0.067-0.013-0.023-0.027-0.044-0.041-0.065-0.045-0.083-0.087-0.168-0.123-0.256-0.129-0.313-0.201-0.656-0.201-1.020s0.072-0.707 0.201-1.020c0.135-0.325 0.333-0.619 0.58-0.867s0.541-0.445 0.867-0.58c0.312-0.128 0.655-0.2 1.019-0.2s0.707 0.072 1.020 0.201c0.325 0.135 0.619 0.333 0.867 0.58s0.445 0.541 0.58 0.867c0.128 0.312 0.2 0.655 0.2 1.019s-0.072 0.707-0.201 1.020c-0.135 0.325-0.333 0.619-0.58 0.867s-0.541 0.445-0.867 0.58c-0.312 0.128-0.655 0.2-1.019 0.2s-0.707-0.072-1.020-0.201c-0.325-0.135-0.619-0.333-0.867-0.58-0.144-0.144-0.272-0.304-0.38-0.477zM10.265 14.592c0.012 0.023 0.024 0.045 0.036 0.067 0.013 0.023 0.027 0.044 0.041 0.065 0.045 0.083 0.087 0.168 0.123 0.256 0.129 0.313 0.201 0.656 0.201 1.020s-0.072 0.707-0.201 1.020c-0.036 0.088-0.077 0.173-0.123 0.256-0.015 0.021-0.028 0.044-0.041 0.067-0.013 0.021-0.025 0.044-0.036 0.065-0.108 0.173-0.236 0.333-0.38 0.477-0.247 0.247-0.541 0.445-0.867 0.58-0.312 0.129-0.655 0.201-1.019 0.201s-0.707-0.072-1.020-0.201c-0.325-0.135-0.619-0.333-0.867-0.58s-0.445-0.541-0.58-0.867c-0.128-0.312-0.2-0.655-0.2-1.019s0.072-0.707 0.201-1.020c0.135-0.325 0.333-0.619 0.58-0.867s0.541-0.445 0.867-0.58c0.312-0.128 0.655-0.2 1.019-0.2s0.707 0.072 1.020 0.201c0.325 0.135 0.619 0.333 0.867 0.58 0.144 0.144 0.272 0.304 0.38 0.477zM18.867 8.117l-7.077 4.129c-0.005-0.007-0.012-0.012-0.019-0.019-0.491-0.489-1.077-0.887-1.731-1.157-0.631-0.26-1.32-0.404-2.040-0.404s-1.409 0.144-2.040 0.404c-0.653 0.271-1.24 0.667-1.731 1.157s-0.888 1.079-1.159 1.732c-0.26 0.631-0.404 1.32-0.404 2.040s0.144 1.409 0.404 2.040c0.271 0.653 0.667 1.24 1.157 1.731s1.077 0.887 1.731 1.157c0.632 0.261 1.321 0.405 2.041 0.405s1.409-0.144 2.040-0.404c0.653-0.271 1.24-0.667 1.731-1.157 0.007-0.007 0.012-0.012 0.019-0.019l7.079 4.125c-0.131 0.463-0.201 0.951-0.201 1.455 0 0.72 0.144 1.409 0.404 2.040 0.271 0.653 0.667 1.24 1.157 1.731s1.077 0.887 1.731 1.157c0.632 0.261 1.321 0.405 2.041 0.405s1.409-0.144 2.040-0.404c0.653-0.271 1.24-0.667 1.731-1.157s0.887-1.077 1.157-1.731c0.261-0.632 0.405-1.321 0.405-2.041s-0.144-1.409-0.404-2.040c-0.271-0.653-0.667-1.24-1.157-1.731s-1.077-0.887-1.731-1.157c-0.632-0.261-1.321-0.405-2.041-0.405s-1.409 0.144-2.040 0.404c-0.653 0.271-1.24 0.667-1.731 1.157-0.004 0.004-0.009 0.009-0.013 0.013l-7.083-4.125c0.131-0.461 0.2-0.948 0.2-1.449s-0.069-0.988-0.2-1.451l7.077-4.131c0.005 0.007 0.012 0.012 0.019 0.019 0.491 0.491 1.077 0.887 1.731 1.157 0.631 0.261 1.32 0.405 2.040 0.405s1.409-0.144 2.040-0.404c0.653-0.271 1.24-0.667 1.731-1.157s0.887-1.077 1.157-1.731c0.261-0.632 0.405-1.321 0.405-2.041s-0.144-1.409-0.404-2.040c-0.271-0.653-0.667-1.24-1.157-1.731s-1.077-0.887-1.731-1.157c-0.632-0.261-1.321-0.405-2.041-0.405s-1.409 0.144-2.040 0.404c-0.653 0.271-1.24 0.667-1.731 1.157s-0.888 1.079-1.159 1.732c-0.26 0.631-0.404 1.32-0.404 2.040 0 0.501 0.069 0.988 0.2 1.451z"></path>
</svg>
