<!-- Generated by IcoMoon.io -->
<svg version="1.1" xmlns="http://www.w3.org/2000/svg" width="32" height="32" viewBox="0 0 32 32">
<title>shield-off</title>
<path d="M27.527 19.061c0.321-1.035 0.477-2.089 0.473-3.067v-9.328c0-0.568-0.356-1.053-0.865-1.248l-10.667-4c-0.315-0.117-0.645-0.109-0.935 0l-4.213 1.573c-0.689 0.256-1.040 1.024-0.783 1.715s1.025 1.040 1.716 0.783l3.745-1.399 9.335 3.5v8.415c0.003 0.696-0.109 1.481-0.353 2.267-0.219 0.703 0.175 1.451 0.879 1.668s1.451-0.175 1.668-0.879zM6.667 8.552l14.975 14.975c-1.575 1.6-3.483 3.075-5.643 4.289-0.507-0.288-1.295-0.76-2.205-1.397-0.905-0.635-1.923-1.424-2.9-2.348-1.132-1.071-2.188-2.3-2.96-3.652-0.105-0.183-0.204-0.368-0.297-0.556-0.331-0.661-0.588-1.345-0.755-2.048-0.139-0.589-0.215-1.193-0.215-1.815zM0.391 2.276l3.765 3.767c-0.1 0.189-0.155 0.403-0.156 0.624v9.333c0 0.839 0.103 1.649 0.285 2.427 0.219 0.927 0.552 1.804 0.964 2.628 0.116 0.233 0.239 0.461 0.368 0.687 0.939 1.644 2.183 3.075 3.443 4.267 1.093 1.035 2.217 1.905 3.203 2.596 1.752 1.227 3.103 1.904 3.14 1.923 0.397 0.199 0.848 0.18 1.219-0.013 2.647-1.396 4.987-3.155 6.904-5.1l6.197 6.197c0.521 0.521 1.365 0.521 1.885 0s0.521-1.365 0-1.885l-29.332-29.335c-0.521-0.521-1.365-0.521-1.885 0-0.52 0.52-0.521 1.364 0 1.885z"></path>
</svg>
