<!-- Generated by IcoMoon.io -->
<svg version="1.1" xmlns="http://www.w3.org/2000/svg" width="32" height="32" viewBox="0 0 32 32">
<title>shield</title>
<path d="M16 27.817c-0.507-0.287-1.296-0.76-2.207-1.399-0.905-0.635-1.923-1.424-2.9-2.348-1.132-1.071-2.188-2.3-2.96-3.652-0.105-0.183-0.204-0.368-0.297-0.556-0.331-0.661-0.588-1.345-0.755-2.048-0.139-0.589-0.215-1.193-0.215-1.815v-8.409l9.333-3.5 9.333 3.5v8.409c0 0.621-0.076 1.225-0.215 1.815-0.165 0.703-0.423 1.387-0.755 2.048-0.093 0.187-0.193 0.372-0.297 0.556-0.772 1.352-1.828 2.581-2.96 3.652-0.977 0.924-1.993 1.715-2.9 2.348-0.912 0.637-1.7 1.111-2.207 1.399zM16.596 30.525c0.037-0.019 1.388-0.696 3.14-1.923 0.987-0.691 2.111-1.561 3.203-2.596 1.26-1.192 2.504-2.623 3.443-4.267 0.128-0.224 0.251-0.453 0.368-0.687 0.412-0.824 0.745-1.701 0.964-2.628 0.184-0.776 0.287-1.587 0.287-2.425v-9.333c0-0.568-0.356-1.053-0.865-1.248l-10.667-4c-0.315-0.119-0.647-0.109-0.936 0l-10.667 4c-0.532 0.199-0.861 0.703-0.865 1.248v9.333c0 0.839 0.103 1.649 0.285 2.427 0.219 0.927 0.552 1.804 0.964 2.628 0.116 0.233 0.239 0.461 0.368 0.687 0.939 1.644 2.183 3.075 3.443 4.267 1.093 1.035 2.217 1.905 3.203 2.596 1.752 1.227 3.103 1.904 3.14 1.923 0.389 0.195 0.827 0.181 1.192 0z"></path>
</svg>
