<!-- Generated by IcoMoon.io -->
<svg version="1.1" xmlns="http://www.w3.org/2000/svg" width="32" height="32" viewBox="0 0 32 32">
<title>shopping-cart</title>
<path d="M14.667 28c0-0.359-0.072-0.704-0.203-1.020-0.136-0.328-0.333-0.62-0.579-0.865s-0.539-0.443-0.865-0.579c-0.316-0.131-0.661-0.203-1.020-0.203s-0.704 0.072-1.020 0.203c-0.328 0.136-0.62 0.333-0.865 0.579s-0.443 0.539-0.579 0.865c-0.131 0.316-0.203 0.661-0.203 1.020s0.072 0.704 0.203 1.020c0.136 0.328 0.333 0.62 0.579 0.865s0.539 0.443 0.865 0.579c0.316 0.131 0.661 0.203 1.020 0.203s0.704-0.072 1.020-0.203c0.328-0.136 0.62-0.333 0.865-0.579s0.443-0.539 0.579-0.865c0.131-0.316 0.203-0.661 0.203-1.020zM29.333 28c0-0.359-0.072-0.704-0.203-1.020-0.136-0.328-0.333-0.62-0.579-0.865s-0.539-0.443-0.865-0.579c-0.316-0.131-0.661-0.203-1.020-0.203s-0.704 0.072-1.020 0.203c-0.328 0.136-0.62 0.333-0.865 0.579s-0.443 0.539-0.579 0.865c-0.131 0.316-0.203 0.661-0.203 1.020s0.072 0.704 0.203 1.020c0.136 0.328 0.333 0.62 0.579 0.865s0.539 0.443 0.865 0.579c0.316 0.131 0.661 0.203 1.020 0.203s0.704-0.072 1.020-0.203c0.328-0.136 0.62-0.333 0.865-0.579s0.443-0.539 0.579-0.865c0.131-0.316 0.203-0.661 0.203-1.020zM9.628 9.333h19.427l-1.828 9.588c-0.031 0.151-0.085 0.291-0.159 0.417-0.076 0.129-0.172 0.244-0.284 0.341-0.123 0.105-0.264 0.189-0.416 0.244-0.147 0.053-0.307 0.081-0.501 0.077h-12.979c-0.153 0.003-0.303-0.021-0.441-0.067-0.143-0.047-0.275-0.116-0.393-0.204-0.129-0.097-0.241-0.217-0.327-0.353-0.083-0.132-0.144-0.281-0.179-0.451zM1.333 2.667h4.24l1.109 5.54c0.005 0.037 0.013 0.076 0.023 0.112l2.228 11.129c0.097 0.489 0.281 0.944 0.536 1.348 0.263 0.417 0.597 0.777 0.984 1.067 0.352 0.264 0.747 0.469 1.168 0.607 0.413 0.135 0.855 0.204 1.305 0.197h12.941c0.475 0.009 0.959-0.073 1.408-0.236 0.464-0.168 0.887-0.417 1.252-0.733 0.332-0.287 0.617-0.629 0.843-1.012 0.22-0.376 0.381-0.791 0.471-1.233l2.136-11.203c0.137-0.724-0.336-1.421-1.060-1.56-0.088-0.016-0.175-0.024-0.251-0.023h-21.573l-1.12-5.595c-0.125-0.616-0.663-1.072-1.307-1.072h-5.333c-0.736 0-1.333 0.597-1.333 1.333s0.597 1.333 1.333 1.333z"></path>
</svg>
