<!-- Generated by IcoMoon.io -->
<svg version="1.1" xmlns="http://www.w3.org/2000/svg" width="32" height="32" viewBox="0 0 32 32">
<title>shopping-bag</title>
<path d="M25.333 6.667h-18.667l2-2.667h14.667zM29.059 7.189l-3.992-5.323c-0.261-0.348-0.659-0.532-1.067-0.533h-16c-0.435 0-0.821 0.208-1.067 0.533l-4 5.333c-0.056 0.075-0.103 0.152-0.14 0.233-0.087 0.181-0.128 0.376-0.127 0.567v18.667c0 0.54 0.108 1.057 0.304 1.531 0.203 0.491 0.5 0.931 0.868 1.299s0.808 0.665 1.299 0.868c0.472 0.195 0.989 0.303 1.529 0.303h18.667c0.54 0 1.057-0.108 1.531-0.304 0.491-0.203 0.931-0.5 1.299-0.868s0.665-0.808 0.868-1.299c0.195-0.472 0.303-0.989 0.303-1.529v-18.667c0-0.292-0.095-0.563-0.252-0.78-0.005-0.007-0.009-0.013-0.015-0.020zM5.333 9.333h21.333v17.333c0 0.183-0.036 0.355-0.1 0.509-0.067 0.163-0.167 0.309-0.291 0.433s-0.271 0.223-0.433 0.291c-0.155 0.064-0.327 0.1-0.509 0.1h-18.667c-0.183 0-0.355-0.036-0.509-0.1-0.163-0.067-0.309-0.167-0.433-0.291s-0.223-0.271-0.291-0.433c-0.064-0.155-0.1-0.327-0.1-0.509zM20 13.333c0 0.544-0.108 1.060-0.303 1.529-0.203 0.488-0.5 0.929-0.869 1.299s-0.811 0.667-1.299 0.869c-0.469 0.195-0.985 0.303-1.529 0.303s-1.060-0.108-1.529-0.303c-0.488-0.203-0.929-0.5-1.299-0.869s-0.667-0.811-0.869-1.299c-0.195-0.469-0.303-0.985-0.303-1.529 0-0.736-0.597-1.333-1.333-1.333s-1.333 0.597-1.333 1.333c0 0.9 0.179 1.763 0.505 2.549 0.339 0.817 0.833 1.551 1.447 2.164s1.348 1.109 2.164 1.447c0.788 0.328 1.651 0.507 2.551 0.507s1.763-0.179 2.549-0.505c0.817-0.339 1.551-0.833 2.164-1.447s1.109-1.348 1.447-2.164c0.328-0.788 0.507-1.651 0.507-2.551 0-0.736-0.597-1.333-1.333-1.333s-1.333 0.597-1.333 1.333z"></path>
</svg>
