<!-- Generated by IcoMoon.io -->
<svg version="1.1" xmlns="http://www.w3.org/2000/svg" width="32" height="32" viewBox="0 0 32 32">
<title>shuffle</title>
<path d="M6.276 27.609l20.391-20.391v3.448c0 0.736 0.597 1.333 1.333 1.333s1.333-0.597 1.333-1.333v-6.667c0-0.004 0-0.007 0-0.011-0.001-0.176-0.037-0.344-0.1-0.499-0.135-0.327-0.396-0.588-0.724-0.724-0.153-0.063-0.321-0.099-0.497-0.1-0.004 0-0.008 0-0.012 0h-6.667c-0.736 0-1.333 0.597-1.333 1.333s0.597 1.333 1.333 1.333h3.448l-20.391 20.391c-0.521 0.521-0.521 1.365 0 1.885s1.365 0.521 1.885 0zM19.057 20.943l5.724 5.724h-3.448c-0.736 0-1.333 0.597-1.333 1.333s0.597 1.333 1.333 1.333h6.667c0.004 0 0.007 0 0.011 0 0.176-0.001 0.344-0.037 0.499-0.1 0.327-0.135 0.588-0.397 0.724-0.724 0.064-0.153 0.099-0.321 0.1-0.499 0-0.004 0-0.007 0-0.011v-6.667c0-0.736-0.597-1.333-1.333-1.333s-1.333 0.597-1.333 1.333v3.448l-5.724-5.724c-0.521-0.521-1.365-0.521-1.885 0s-0.521 1.365 0 1.885zM4.391 6.276l6.667 6.667c0.521 0.521 1.365 0.521 1.885 0s0.521-1.365 0-1.885l-6.667-6.667c-0.521-0.521-1.365-0.521-1.885 0s-0.521 1.365 0 1.885z"></path>
</svg>
