<!-- Generated by IcoMoon.io -->
<svg version="1.1" xmlns="http://www.w3.org/2000/svg" width="32" height="32" viewBox="0 0 32 32">
<title>skip-forward</title>
<path d="M7.5 4.292c-0.227-0.181-0.517-0.292-0.833-0.292-0.736 0-1.333 0.597-1.333 1.333v21.333c-0.001 0.291 0.095 0.585 0.292 0.833 0.46 0.575 1.299 0.668 1.875 0.208l13.333-10.667c0.071-0.056 0.144-0.127 0.208-0.208 0.46-0.575 0.367-1.415-0.208-1.875zM8 8.108l9.865 7.892-9.865 7.892zM24 6.667v18.667c0 0.736 0.597 1.333 1.333 1.333s1.333-0.597 1.333-1.333v-18.667c0-0.736-0.597-1.333-1.333-1.333s-1.333 0.597-1.333 1.333z"></path>
</svg>
