<!-- Generated by IcoMoon.io -->
<svg version="1.1" xmlns="http://www.w3.org/2000/svg" width="32" height="32" viewBox="0 0 32 32">
<title>slack1</title>
<path d="M19.333 14.667c0.449 0 0.881-0.089 1.277-0.253 0.408-0.169 0.775-0.416 1.080-0.723s0.553-0.672 0.723-1.080c0.164-0.396 0.253-0.828 0.253-1.277v-6.667c0-0.449-0.089-0.881-0.253-1.277-0.169-0.408-0.416-0.775-0.723-1.080s-0.672-0.553-1.080-0.723c-0.396-0.164-0.828-0.253-1.277-0.253s-0.881 0.089-1.277 0.253c-0.408 0.169-0.775 0.416-1.080 0.723s-0.553 0.672-0.723 1.080c-0.164 0.396-0.253 0.828-0.253 1.277v6.667c0 0.449 0.089 0.881 0.253 1.277 0.169 0.408 0.416 0.775 0.723 1.080s0.672 0.553 1.080 0.723c0.396 0.164 0.828 0.253 1.277 0.253zM19.333 12c-0.095 0-0.18-0.019-0.257-0.051-0.080-0.033-0.153-0.083-0.216-0.144s-0.111-0.135-0.144-0.216c-0.031-0.076-0.049-0.161-0.049-0.256v-6.667c0-0.095 0.019-0.18 0.051-0.257 0.033-0.080 0.083-0.153 0.144-0.216s0.135-0.111 0.216-0.144c0.076-0.031 0.161-0.049 0.256-0.049s0.18 0.019 0.257 0.051c0.080 0.033 0.153 0.083 0.216 0.144s0.111 0.135 0.144 0.216c0.031 0.076 0.049 0.161 0.049 0.256v6.667c0 0.095-0.019 0.18-0.051 0.257-0.033 0.080-0.083 0.153-0.144 0.216s-0.135 0.111-0.216 0.144c-0.076 0.031-0.161 0.049-0.256 0.049zM27.333 14.667c0.449 0 0.881-0.089 1.277-0.253 0.408-0.169 0.775-0.416 1.080-0.723 0.307-0.307 0.553-0.672 0.723-1.080 0.164-0.396 0.253-0.828 0.253-1.277s-0.089-0.881-0.253-1.277c-0.169-0.408-0.416-0.775-0.723-1.080s-0.672-0.553-1.080-0.723c-0.396-0.164-0.828-0.253-1.277-0.253s-0.881 0.089-1.277 0.253c-0.408 0.169-0.775 0.416-1.080 0.723s-0.553 0.672-0.723 1.080c-0.164 0.396-0.253 0.828-0.253 1.277v2c0 0.736 0.597 1.333 1.333 1.333zM27.333 12h-0.667v-0.667c0-0.095 0.019-0.18 0.051-0.257 0.033-0.080 0.083-0.153 0.144-0.216s0.135-0.111 0.216-0.144c0.076-0.031 0.161-0.049 0.256-0.049s0.18 0.019 0.257 0.051c0.080 0.033 0.153 0.083 0.216 0.144s0.111 0.135 0.144 0.216c0.031 0.076 0.049 0.161 0.049 0.256s-0.019 0.18-0.051 0.257c-0.033 0.080-0.083 0.153-0.144 0.216s-0.135 0.111-0.216 0.144c-0.076 0.031-0.161 0.049-0.256 0.049zM12.667 17.333c-0.449 0-0.881 0.089-1.277 0.253-0.408 0.169-0.775 0.416-1.080 0.723s-0.553 0.672-0.723 1.080c-0.164 0.396-0.253 0.828-0.253 1.277v6.667c0 0.449 0.089 0.881 0.253 1.277 0.169 0.408 0.416 0.775 0.723 1.080s0.672 0.553 1.080 0.723c0.396 0.164 0.828 0.253 1.277 0.253s0.881-0.089 1.277-0.253c0.408-0.169 0.775-0.416 1.080-0.723 0.307-0.307 0.553-0.672 0.723-1.080 0.164-0.396 0.253-0.828 0.253-1.277v-6.667c0-0.449-0.089-0.881-0.253-1.277-0.169-0.408-0.416-0.775-0.723-1.080s-0.672-0.553-1.080-0.723c-0.396-0.164-0.828-0.253-1.277-0.253zM12.667 20c0.095 0 0.18 0.019 0.257 0.051 0.080 0.033 0.153 0.083 0.216 0.144s0.111 0.135 0.144 0.216c0.031 0.076 0.049 0.161 0.049 0.256v6.667c0 0.095-0.019 0.18-0.051 0.257-0.033 0.080-0.083 0.153-0.144 0.216s-0.135 0.111-0.216 0.144c-0.076 0.031-0.161 0.049-0.256 0.049s-0.18-0.019-0.257-0.051c-0.080-0.033-0.153-0.083-0.216-0.144s-0.111-0.135-0.144-0.216c-0.031-0.076-0.049-0.161-0.049-0.256v-6.667c0-0.095 0.019-0.18 0.051-0.257 0.033-0.080 0.083-0.153 0.144-0.216s0.135-0.111 0.216-0.144c0.076-0.031 0.161-0.049 0.256-0.049zM4.667 17.333c-0.449 0-0.881 0.089-1.277 0.253-0.408 0.169-0.775 0.416-1.080 0.723s-0.553 0.672-0.723 1.080c-0.164 0.396-0.253 0.828-0.253 1.277s0.089 0.881 0.253 1.277c0.169 0.408 0.416 0.775 0.723 1.080s0.672 0.553 1.080 0.723c0.396 0.164 0.828 0.253 1.277 0.253s0.881-0.089 1.277-0.253c0.408-0.169 0.775-0.416 1.080-0.723s0.553-0.672 0.723-1.080c0.164-0.396 0.253-0.828 0.253-1.277v-2c0-0.736-0.597-1.333-1.333-1.333zM4.667 20h0.667v0.667c0 0.095-0.019 0.18-0.051 0.257-0.033 0.080-0.083 0.153-0.144 0.216s-0.135 0.111-0.216 0.144c-0.076 0.031-0.161 0.049-0.256 0.049s-0.18-0.019-0.257-0.051c-0.080-0.033-0.153-0.083-0.216-0.144s-0.111-0.135-0.144-0.216c-0.031-0.076-0.049-0.161-0.049-0.256s0.019-0.18 0.051-0.257c0.033-0.080 0.083-0.153 0.144-0.216s0.135-0.111 0.216-0.144c0.076-0.031 0.161-0.049 0.256-0.049zM17.333 19.333c0 0.449 0.089 0.881 0.253 1.277 0.169 0.408 0.416 0.775 0.723 1.080s0.672 0.553 1.080 0.723c0.396 0.164 0.828 0.253 1.277 0.253h6.667c0.449 0 0.881-0.089 1.277-0.253 0.408-0.169 0.775-0.416 1.080-0.723 0.307-0.307 0.553-0.672 0.723-1.080 0.164-0.396 0.253-0.828 0.253-1.277s-0.089-0.881-0.253-1.277c-0.169-0.408-0.416-0.775-0.723-1.080-0.307-0.307-0.672-0.553-1.080-0.723-0.396-0.164-0.828-0.253-1.277-0.253h-6.667c-0.449 0-0.881 0.089-1.277 0.253-0.408 0.169-0.775 0.416-1.080 0.723s-0.553 0.672-0.723 1.080c-0.164 0.396-0.253 0.828-0.253 1.277zM20 19.333c0-0.095 0.019-0.18 0.051-0.257 0.033-0.080 0.083-0.153 0.144-0.216s0.135-0.111 0.216-0.144c0.076-0.031 0.161-0.049 0.256-0.049h6.667c0.095 0 0.18 0.019 0.257 0.051 0.080 0.033 0.153 0.083 0.216 0.144s0.111 0.135 0.144 0.216c0.031 0.076 0.049 0.161 0.049 0.256s-0.019 0.18-0.051 0.257c-0.033 0.080-0.083 0.153-0.144 0.216s-0.135 0.111-0.216 0.144c-0.076 0.031-0.161 0.049-0.256 0.049h-6.667c-0.095 0-0.18-0.019-0.257-0.051-0.080-0.033-0.153-0.083-0.216-0.144s-0.111-0.135-0.144-0.216c-0.031-0.076-0.049-0.161-0.049-0.256zM20.667 26.667c0.095 0 0.18 0.019 0.257 0.051 0.080 0.033 0.153 0.083 0.216 0.144s0.111 0.135 0.144 0.216c0.031 0.076 0.049 0.161 0.049 0.256s-0.019 0.18-0.051 0.257c-0.033 0.080-0.083 0.153-0.144 0.216s-0.135 0.111-0.216 0.144c-0.076 0.031-0.161 0.049-0.256 0.049s-0.18-0.019-0.257-0.051c-0.080-0.033-0.153-0.083-0.216-0.144s-0.111-0.135-0.144-0.216c-0.031-0.076-0.049-0.161-0.049-0.256v-0.667zM20.667 24h-2c-0.736 0-1.333 0.597-1.333 1.333v2c0 0.449 0.089 0.881 0.253 1.277 0.169 0.408 0.416 0.775 0.723 1.080 0.307 0.307 0.672 0.553 1.080 0.723 0.396 0.164 0.828 0.253 1.277 0.253s0.881-0.089 1.277-0.253c0.408-0.169 0.775-0.416 1.080-0.723s0.553-0.672 0.723-1.080c0.164-0.396 0.253-0.828 0.253-1.277s-0.089-0.881-0.253-1.277c-0.169-0.408-0.416-0.775-0.723-1.080s-0.672-0.553-1.080-0.723c-0.396-0.164-0.828-0.253-1.277-0.253zM12 12.667c0 0.095-0.019 0.18-0.051 0.257-0.033 0.080-0.083 0.153-0.144 0.216s-0.135 0.109-0.215 0.143c-0.077 0.032-0.163 0.051-0.257 0.051h-6.667c-0.095 0-0.18-0.019-0.257-0.051-0.080-0.033-0.153-0.083-0.216-0.144s-0.109-0.135-0.143-0.215c-0.032-0.077-0.051-0.163-0.051-0.257s0.019-0.18 0.051-0.257c0.033-0.080 0.083-0.153 0.144-0.216s0.135-0.111 0.216-0.144c0.076-0.031 0.161-0.049 0.256-0.049h6.667c0.095 0 0.18 0.019 0.257 0.051 0.080 0.033 0.153 0.083 0.216 0.144s0.111 0.135 0.144 0.216c0.031 0.076 0.049 0.161 0.049 0.256zM14.667 12.667c0-0.449-0.089-0.881-0.253-1.277-0.169-0.408-0.416-0.775-0.723-1.080s-0.672-0.553-1.080-0.723c-0.396-0.164-0.828-0.253-1.277-0.253h-6.667c-0.449 0-0.881 0.089-1.277 0.253-0.408 0.169-0.775 0.416-1.080 0.723s-0.553 0.672-0.723 1.080c-0.164 0.396-0.253 0.828-0.253 1.277s0.089 0.881 0.253 1.277c0.169 0.408 0.416 0.775 0.723 1.080s0.672 0.553 1.080 0.723c0.396 0.164 0.828 0.253 1.277 0.253h6.667c0.449 0 0.881-0.089 1.277-0.253 0.408-0.169 0.775-0.416 1.080-0.723s0.553-0.672 0.723-1.080c0.164-0.396 0.253-0.828 0.253-1.277zM11.333 5.333c-0.095 0-0.18-0.019-0.257-0.051-0.080-0.033-0.153-0.081-0.215-0.144s-0.111-0.135-0.144-0.215c-0.032-0.077-0.051-0.163-0.051-0.257s0.019-0.18 0.051-0.257c0.033-0.080 0.083-0.153 0.144-0.216s0.135-0.111 0.216-0.144c0.076-0.031 0.161-0.049 0.256-0.049s0.18 0.019 0.257 0.051c0.080 0.033 0.153 0.083 0.216 0.144s0.111 0.135 0.144 0.216c0.031 0.076 0.049 0.161 0.049 0.256v0.667zM11.333 8h2c0.736 0 1.333-0.597 1.333-1.333v-2c0-0.449-0.089-0.881-0.253-1.277-0.169-0.408-0.416-0.775-0.723-1.080s-0.672-0.553-1.080-0.723c-0.396-0.164-0.828-0.253-1.277-0.253s-0.881 0.089-1.277 0.253c-0.408 0.169-0.775 0.416-1.080 0.723s-0.553 0.672-0.723 1.080c-0.164 0.396-0.253 0.828-0.253 1.277s0.089 0.881 0.253 1.277c0.169 0.408 0.416 0.775 0.723 1.080s0.672 0.553 1.080 0.723c0.396 0.164 0.828 0.253 1.277 0.253z"></path>
</svg>
