<!-- Generated by IcoMoon.io -->
<svg version="1.1" xmlns="http://www.w3.org/2000/svg" width="32" height="32" viewBox="0 0 32 32">
<title>sliders</title>
<path d="M6.667 13.333v-9.333c0-0.736-0.597-1.333-1.333-1.333s-1.333 0.597-1.333 1.333v9.333c0 0.736 0.597 1.333 1.333 1.333s1.333-0.597 1.333-1.333zM17.333 28v-12c0-0.736-0.597-1.333-1.333-1.333s-1.333 0.597-1.333 1.333v12c0 0.736 0.597 1.333 1.333 1.333s1.333-0.597 1.333-1.333zM28 16v-12c0-0.736-0.597-1.333-1.333-1.333s-1.333 0.597-1.333 1.333v12c0 0.736 0.597 1.333 1.333 1.333s1.333-0.597 1.333-1.333zM1.333 20h2.667v8c0 0.736 0.597 1.333 1.333 1.333s1.333-0.597 1.333-1.333v-8h2.667c0.736 0 1.333-0.597 1.333-1.333s-0.597-1.333-1.333-1.333h-8c-0.736 0-1.333 0.597-1.333 1.333s0.597 1.333 1.333 1.333zM12 12h8c0.736 0 1.333-0.597 1.333-1.333s-0.597-1.333-1.333-1.333h-2.667v-5.333c0-0.736-0.597-1.333-1.333-1.333s-1.333 0.597-1.333 1.333v5.333h-2.667c-0.736 0-1.333 0.597-1.333 1.333s0.597 1.333 1.333 1.333zM22.667 22.667h2.667v5.333c0 0.736 0.597 1.333 1.333 1.333s1.333-0.597 1.333-1.333v-5.333h2.667c0.736 0 1.333-0.597 1.333-1.333s-0.597-1.333-1.333-1.333h-8c-0.736 0-1.333 0.597-1.333 1.333s0.597 1.333 1.333 1.333z"></path>
</svg>
