<!-- Generated by IcoMoon.io -->
<svg version="1.1" xmlns="http://www.w3.org/2000/svg" width="32" height="32" viewBox="0 0 32 32">
<title>smile</title>
<path d="M30.667 16c0-1.984-0.395-3.88-1.111-5.609-0.744-1.796-1.833-3.411-3.184-4.761s-2.965-2.441-4.761-3.184c-1.731-0.717-3.627-1.112-5.611-1.112s-3.88 0.395-5.609 1.111c-1.796 0.744-3.411 1.833-4.761 3.185s-2.441 2.965-3.185 4.761c-0.716 1.729-1.111 3.625-1.111 5.609s0.395 3.88 1.111 5.609c0.744 1.796 1.833 3.411 3.184 4.761s2.965 2.441 4.761 3.184c1.731 0.717 3.627 1.112 5.611 1.112s3.88-0.395 5.609-1.111c1.796-0.744 3.411-1.833 4.761-3.184s2.441-2.965 3.184-4.761c0.717-1.731 1.112-3.627 1.112-5.611zM28 16c0 1.628-0.324 3.177-0.908 4.589-0.608 1.468-1.499 2.789-2.607 3.896s-2.429 1.999-3.896 2.607c-1.412 0.584-2.961 0.908-4.589 0.908s-3.177-0.324-4.589-0.908c-1.468-0.608-2.789-1.499-3.896-2.607-1.108-1.108-1.999-2.429-2.607-3.896-0.584-1.412-0.908-2.961-0.908-4.589s0.324-3.177 0.908-4.589c0.608-1.468 1.499-2.789 2.607-3.896s2.429-1.999 3.896-2.607c1.412-0.584 2.961-0.908 4.589-0.908s3.177 0.324 4.589 0.908c1.468 0.608 2.789 1.499 3.896 2.607 1.108 1.108 1.999 2.429 2.607 3.896 0.584 1.412 0.908 2.961 0.908 4.589zM9.6 19.467c0.040 0.055 0.459 0.603 1.211 1.231 0.449 0.375 1.029 0.787 1.729 1.137 0.511 0.255 1.088 0.479 1.728 0.631 0.537 0.127 1.116 0.201 1.732 0.201s1.195-0.075 1.732-0.201c0.64-0.151 1.219-0.375 1.728-0.631 0.7-0.351 1.28-0.763 1.729-1.137 0.752-0.627 1.169-1.176 1.211-1.231 0.441-0.589 0.323-1.425-0.267-1.867-0.588-0.44-1.42-0.323-1.863 0.261-0.007 0.008-0.091 0.116-0.245 0.28-0.133 0.14-0.316 0.319-0.544 0.509-0.324 0.271-0.732 0.559-1.213 0.8-0.349 0.175-0.733 0.321-1.149 0.42-0.348 0.081-0.721 0.129-1.119 0.129s-0.771-0.048-1.119-0.131c-0.416-0.099-0.8-0.245-1.149-0.42-0.476-0.237-0.881-0.523-1.204-0.792-0.76-0.747-0.797-0.795-0.799-0.796-0.443-0.584-1.275-0.701-1.863-0.261-0.589 0.441-0.708 1.277-0.267 1.867zM12.528 18.657c-0.333-0.277-0.563-0.521-0.688-0.664z"></path>
</svg>
