<!-- Generated by IcoMoon.io -->
<svg version="1.1" xmlns="http://www.w3.org/2000/svg" width="32" height="32" viewBox="0 0 32 32">
<title>sun</title>
<path d="M24 16c0-1.081-0.215-2.116-0.607-3.060-0.405-0.98-1-1.86-1.737-2.597-0.736-0.736-1.617-1.331-2.597-1.737-0.943-0.391-1.977-0.605-3.059-0.605s-2.116 0.215-3.060 0.607c-0.98 0.405-1.86 1-2.597 1.736s-1.331 1.617-1.736 2.597c-0.392 0.944-0.607 1.979-0.607 3.060s0.215 2.116 0.607 3.060c0.405 0.98 1 1.86 1.737 2.597 0.736 0.736 1.617 1.331 2.597 1.737 0.943 0.391 1.977 0.605 3.059 0.605s2.116-0.215 3.060-0.607c0.98-0.405 1.86-1 2.597-1.737s1.331-1.617 1.737-2.597c0.391-0.943 0.605-1.977 0.605-3.059zM21.333 16c0 0.725-0.144 1.413-0.404 2.039-0.269 0.652-0.667 1.239-1.159 1.732s-1.080 0.889-1.732 1.159c-0.625 0.26-1.313 0.404-2.039 0.404s-1.413-0.144-2.039-0.404c-0.652-0.269-1.239-0.667-1.732-1.159s-0.889-1.080-1.159-1.732c-0.26-0.625-0.404-1.313-0.404-2.039s0.144-1.413 0.404-2.039c0.269-0.652 0.667-1.239 1.159-1.732s1.080-0.889 1.732-1.159c0.625-0.26 1.313-0.404 2.039-0.404s1.413 0.144 2.039 0.404c0.652 0.269 1.239 0.667 1.732 1.159s0.889 1.080 1.159 1.732c0.26 0.625 0.404 1.313 0.404 2.039zM14.667 1.333v2.667c0 0.736 0.597 1.333 1.333 1.333s1.333-0.597 1.333-1.333v-2.667c0-0.736-0.597-1.333-1.333-1.333s-1.333 0.597-1.333 1.333zM14.667 28v2.667c0 0.736 0.597 1.333 1.333 1.333s1.333-0.597 1.333-1.333v-2.667c0-0.736-0.597-1.333-1.333-1.333s-1.333 0.597-1.333 1.333zM4.684 6.569l1.893 1.893c0.521 0.521 1.365 0.521 1.885 0s0.521-1.365 0-1.885l-1.893-1.893c-0.521-0.521-1.365-0.521-1.885 0s-0.521 1.365 0 1.885zM23.537 25.423l1.893 1.893c0.521 0.521 1.365 0.521 1.885 0s0.521-1.365 0-1.885l-1.893-1.893c-0.521-0.521-1.365-0.521-1.885 0s-0.521 1.365 0 1.885zM1.333 17.333h2.667c0.736 0 1.333-0.597 1.333-1.333s-0.597-1.333-1.333-1.333h-2.667c-0.736 0-1.333 0.597-1.333 1.333s0.597 1.333 1.333 1.333zM28 17.333h2.667c0.736 0 1.333-0.597 1.333-1.333s-0.597-1.333-1.333-1.333h-2.667c-0.736 0-1.333 0.597-1.333 1.333s0.597 1.333 1.333 1.333zM6.569 27.316l1.893-1.893c0.521-0.521 0.521-1.365 0-1.885s-1.365-0.521-1.885 0l-1.893 1.893c-0.521 0.521-0.521 1.365 0 1.885s1.365 0.521 1.885 0zM25.423 8.463l1.893-1.893c0.521-0.521 0.521-1.365 0-1.885s-1.365-0.521-1.885 0l-1.893 1.893c-0.521 0.521-0.521 1.365 0 1.885s1.365 0.521 1.885 0z"></path>
</svg>
