<!-- Generated by IcoMoon.io -->
<svg version="1.1" xmlns="http://www.w3.org/2000/svg" width="32" height="32" viewBox="0 0 32 32">
<title>sunset</title>
<path d="M24 24c0-1.081-0.215-2.116-0.607-3.060-0.405-0.98-1-1.86-1.737-2.597-0.736-0.736-1.617-1.331-2.597-1.737-0.943-0.391-1.977-0.605-3.059-0.605s-2.116 0.215-3.060 0.607c-0.98 0.405-1.86 1-2.597 1.737s-1.331 1.617-1.737 2.597c-0.391 0.943-0.605 1.977-0.605 3.059 0 0.736 0.597 1.333 1.333 1.333s1.333-0.597 1.333-1.333c0-0.725 0.144-1.413 0.404-2.039 0.269-0.652 0.667-1.239 1.159-1.732s1.080-0.889 1.732-1.159c0.625-0.26 1.313-0.404 2.039-0.404s1.413 0.144 2.039 0.404c0.652 0.269 1.239 0.667 1.732 1.159s0.889 1.080 1.159 1.732c0.26 0.625 0.404 1.313 0.404 2.039 0 0.736 0.597 1.333 1.333 1.333s1.333-0.597 1.333-1.333zM4.684 14.569l1.893 1.893c0.521 0.521 1.365 0.521 1.885 0s0.521-1.365 0-1.885l-1.893-1.893c-0.521-0.521-1.365-0.521-1.885 0s-0.521 1.365 0 1.885zM1.333 25.333h2.667c0.736 0 1.333-0.597 1.333-1.333s-0.597-1.333-1.333-1.333h-2.667c-0.736 0-1.333 0.597-1.333 1.333s0.597 1.333 1.333 1.333zM28 25.333h2.667c0.736 0 1.333-0.597 1.333-1.333s-0.597-1.333-1.333-1.333h-2.667c-0.736 0-1.333 0.597-1.333 1.333s0.597 1.333 1.333 1.333zM25.423 16.463l1.893-1.893c0.521-0.521 0.521-1.365 0-1.885s-1.365-0.521-1.885 0l-1.893 1.893c-0.521 0.521-0.521 1.365 0 1.885s1.365 0.521 1.885 0zM30.667 28h-29.333c-0.736 0-1.333 0.597-1.333 1.333s0.597 1.333 1.333 1.333h29.333c0.736 0 1.333-0.597 1.333-1.333s-0.597-1.333-1.333-1.333zM20.391 5.724l-3.057 3.057v-6.115c0-0.736-0.597-1.333-1.333-1.333s-1.333 0.597-1.333 1.333v6.115l-3.057-3.057c-0.521-0.521-1.365-0.521-1.885 0s-0.521 1.365 0 1.885l5.333 5.333c0.003 0.003 0.005 0.005 0.008 0.008 0.127 0.124 0.271 0.217 0.424 0.281 0.16 0.067 0.332 0.1 0.503 0.101 0.005 0 0.011 0 0.015 0 0.171-0.001 0.343-0.035 0.503-0.101 0.155-0.064 0.299-0.157 0.424-0.281 0.003-0.003 0.005-0.005 0.008-0.008l5.333-5.333c0.521-0.521 0.521-1.365 0-1.885s-1.365-0.521-1.885 0z"></path>
</svg>
