<!-- Generated by IcoMoon.io -->
<svg version="1.1" xmlns="http://www.w3.org/2000/svg" width="32" height="32" viewBox="0 0 32 32">
<title>tag</title>
<path d="M28.396 18.823c0.381-0.384 0.669-0.824 0.863-1.295 0.201-0.488 0.303-1.007 0.303-1.524 0-0.519-0.1-1.039-0.301-1.528-0.195-0.472-0.483-0.913-0.864-1.297l-11.453-11.453c-0.241-0.243-0.575-0.392-0.943-0.392h-13.333c-0.736 0-1.333 0.597-1.333 1.333v13.333c0 0.341 0.131 0.683 0.391 0.944l11.456 11.443c0.381 0.381 0.824 0.671 1.297 0.867 0.491 0.203 1.012 0.304 1.532 0.304s1.041-0.101 1.532-0.305c0.473-0.196 0.915-0.487 1.296-0.868zM26.511 16.937l-9.56 9.56c-0.129 0.131-0.276 0.225-0.432 0.291-0.163 0.067-0.336 0.101-0.512 0.101s-0.349-0.033-0.512-0.101c-0.155-0.064-0.301-0.16-0.432-0.289l-11.063-11.052v-11.447h11.448l11.063 11.063c0.125 0.127 0.221 0.273 0.284 0.428 0.067 0.161 0.1 0.336 0.1 0.511s-0.035 0.348-0.101 0.509c-0.064 0.155-0.159 0.301-0.284 0.427zM10.667 9.333c0-0.736-0.597-1.333-1.333-1.333s-1.333 0.597-1.333 1.333 0.597 1.333 1.333 1.333 1.333-0.597 1.333-1.333z"></path>
</svg>
