<!-- Generated by IcoMoon.io -->
<svg version="1.1" xmlns="http://www.w3.org/2000/svg" width="32" height="32" viewBox="0 0 32 32">
<title>target</title>
<path d="M30.667 16c0-1.984-0.395-3.88-1.111-5.609-0.744-1.796-1.833-3.411-3.184-4.761s-2.965-2.441-4.761-3.184c-1.731-0.717-3.627-1.112-5.611-1.112s-3.88 0.395-5.609 1.111c-1.796 0.744-3.411 1.833-4.761 3.185s-2.441 2.965-3.185 4.761c-0.716 1.729-1.111 3.625-1.111 5.609s0.395 3.88 1.111 5.609c0.744 1.796 1.833 3.411 3.184 4.761s2.965 2.441 4.761 3.184c1.731 0.717 3.627 1.112 5.611 1.112s3.88-0.395 5.609-1.111c1.796-0.744 3.411-1.833 4.761-3.184s2.441-2.965 3.184-4.761c0.717-1.731 1.112-3.627 1.112-5.611zM28 16c0 1.628-0.324 3.177-0.908 4.589-0.608 1.468-1.499 2.789-2.607 3.896s-2.429 1.999-3.896 2.607c-1.412 0.584-2.961 0.908-4.589 0.908s-3.177-0.324-4.589-0.908c-1.468-0.608-2.789-1.499-3.896-2.607-1.108-1.108-1.999-2.429-2.607-3.896-0.584-1.412-0.908-2.961-0.908-4.589s0.324-3.177 0.908-4.589c0.608-1.468 1.499-2.789 2.607-3.896s2.429-1.999 3.896-2.607c1.412-0.584 2.961-0.908 4.589-0.908s3.177 0.324 4.589 0.908c1.468 0.608 2.789 1.499 3.896 2.607 1.108 1.108 1.999 2.429 2.607 3.896 0.584 1.412 0.908 2.961 0.908 4.589zM25.333 16c0-1.261-0.251-2.468-0.707-3.569-0.473-1.143-1.167-2.171-2.027-3.031s-1.887-1.553-3.031-2.027c-1.101-0.456-2.308-0.707-3.569-0.707s-2.468 0.251-3.569 0.707c-1.144 0.475-2.171 1.168-3.031 2.027s-1.552 1.887-2.027 3.031c-0.456 1.101-0.707 2.308-0.707 3.569s0.251 2.468 0.707 3.569c0.473 1.143 1.167 2.171 2.027 3.031s1.887 1.553 3.031 2.027c1.101 0.456 2.308 0.707 3.569 0.707s2.468-0.251 3.569-0.707c1.143-0.473 2.171-1.167 3.031-2.027s1.553-1.887 2.027-3.031c0.456-1.101 0.707-2.308 0.707-3.569zM22.667 16c0 0.905-0.18 1.765-0.504 2.549-0.337 0.815-0.832 1.549-1.448 2.165s-1.351 1.111-2.165 1.448c-0.784 0.324-1.644 0.504-2.549 0.504s-1.765-0.18-2.549-0.504c-0.815-0.337-1.549-0.832-2.165-1.448s-1.111-1.351-1.448-2.165c-0.324-0.784-0.504-1.644-0.504-2.549s0.18-1.765 0.504-2.549c0.337-0.815 0.832-1.549 1.448-2.165s1.351-1.111 2.165-1.448c0.784-0.324 1.644-0.504 2.549-0.504s1.765 0.18 2.549 0.504c0.815 0.337 1.549 0.832 2.165 1.448s1.111 1.351 1.448 2.165c0.324 0.784 0.504 1.644 0.504 2.549zM20 16c0-0.54-0.108-1.057-0.304-1.531-0.203-0.491-0.5-0.931-0.868-1.299s-0.808-0.665-1.299-0.868c-0.472-0.195-0.989-0.303-1.529-0.303s-1.057 0.108-1.531 0.304c-0.491 0.203-0.931 0.5-1.299 0.868s-0.665 0.808-0.868 1.299c-0.195 0.472-0.303 0.989-0.303 1.529s0.108 1.057 0.304 1.531c0.203 0.491 0.5 0.931 0.868 1.299s0.808 0.665 1.299 0.868c0.472 0.195 0.989 0.303 1.529 0.303s1.057-0.108 1.531-0.304c0.491-0.203 0.931-0.5 1.299-0.868s0.665-0.808 0.868-1.299c0.195-0.472 0.303-0.989 0.303-1.529zM17.333 16c0 0.183-0.036 0.355-0.1 0.509-0.067 0.163-0.167 0.309-0.291 0.433s-0.271 0.223-0.433 0.291c-0.155 0.064-0.327 0.1-0.509 0.1s-0.355-0.036-0.509-0.1c-0.163-0.067-0.309-0.167-0.433-0.291s-0.223-0.271-0.291-0.433c-0.064-0.155-0.1-0.327-0.1-0.509s0.036-0.355 0.1-0.509c0.067-0.163 0.167-0.309 0.291-0.433s0.271-0.223 0.433-0.291c0.155-0.064 0.327-0.1 0.509-0.1s0.355 0.036 0.509 0.1c0.163 0.067 0.309 0.167 0.433 0.291s0.223 0.271 0.291 0.433c0.064 0.155 0.1 0.327 0.1 0.509z"></path>
</svg>
