<!-- Generated by IcoMoon.io -->
<svg version="1.1" xmlns="http://www.w3.org/2000/svg" width="32" height="32" viewBox="0 0 32 32">
<title>thermometer</title>
<path d="M17.333 19.68c0.003 0.439 0.215 0.861 0.604 1.116 0.465 0.304 0.915 0.739 1.277 1.28 0.352 0.528 0.583 1.097 0.697 1.68 0.12 0.605 0.117 1.225-0.001 1.824s-0.355 1.172-0.697 1.685c-0.329 0.493-0.76 0.932-1.288 1.285s-1.097 0.583-1.68 0.697c-0.605 0.12-1.225 0.117-1.824-0.001s-1.172-0.355-1.685-0.697c-0.493-0.329-0.932-0.76-1.285-1.288-0.352-0.528-0.583-1.097-0.697-1.68-0.12-0.605-0.117-1.225 0.001-1.824s0.355-1.172 0.697-1.685c0.329-0.493 0.76-0.932 1.288-1.285 0.36-0.24 0.593-0.647 0.593-1.107v-15.013c0-0.273 0.055-0.531 0.151-0.764 0.101-0.244 0.249-0.464 0.435-0.649s0.407-0.333 0.649-0.435c0.235-0.097 0.492-0.152 0.765-0.152s0.531 0.055 0.764 0.151c0.244 0.101 0.464 0.249 0.649 0.435s0.333 0.407 0.435 0.649c0.097 0.235 0.152 0.492 0.152 0.765zM20 19.008v-14.341c0-0.629-0.125-1.233-0.353-1.785-0.237-0.572-0.584-1.085-1.013-1.515s-0.943-0.776-1.515-1.013c-0.552-0.228-1.156-0.353-1.785-0.353s-1.233 0.125-1.785 0.353c-0.572 0.237-1.085 0.584-1.515 1.013s-0.776 0.943-1.013 1.515c-0.228 0.552-0.353 1.156-0.353 1.785v14.345c-0.561 0.463-1.041 0.996-1.431 1.58-0.54 0.808-0.909 1.709-1.095 2.647s-0.191 1.911-0.001 2.864c0.183 0.919 0.545 1.817 1.096 2.641s1.241 1.503 2.020 2.023c0.808 0.54 1.709 0.909 2.647 1.095s1.911 0.191 2.864 0.001c0.919-0.183 1.817-0.545 2.641-1.096s1.503-1.241 2.023-2.020c0.54-0.808 0.909-1.709 1.095-2.647 0.187-0.936 0.191-1.911 0.001-2.864-0.183-0.919-0.545-1.817-1.096-2.641-0.409-0.612-0.897-1.147-1.431-1.587z"></path>
</svg>
