<!-- Generated by IcoMoon.io -->
<svg version="1.1" xmlns="http://www.w3.org/2000/svg" width="32" height="32" viewBox="0 0 32 32">
<title>thumbs-up</title>
<path d="M8 16v12h-2.667c-0.183 0-0.355-0.036-0.509-0.1-0.163-0.067-0.309-0.167-0.433-0.291s-0.223-0.271-0.291-0.433c-0.064-0.155-0.1-0.327-0.1-0.509v-9.333c0-0.183 0.036-0.355 0.1-0.509 0.067-0.163 0.167-0.309 0.291-0.433s0.271-0.223 0.433-0.291c0.155-0.064 0.327-0.1 0.509-0.1zM20 10.667v-4c0-0.72-0.144-1.409-0.404-2.040-0.271-0.653-0.667-1.24-1.157-1.731s-1.079-0.888-1.732-1.159c-0.631-0.26-1.32-0.404-2.040-0.404-0.54 0-1.005 0.321-1.219 0.792l-4.981 11.208h-3.133c-0.54 0-1.057 0.108-1.531 0.304-0.491 0.203-0.931 0.5-1.299 0.868s-0.665 0.808-0.868 1.299c-0.195 0.472-0.303 0.989-0.303 1.529v9.333c0 0.54 0.108 1.057 0.304 1.531 0.203 0.491 0.5 0.931 0.868 1.299s0.808 0.665 1.299 0.868c0.472 0.195 0.989 0.303 1.529 0.303h19.040c0.492 0.005 0.983-0.084 1.436-0.255 0.468-0.176 0.893-0.437 1.259-0.764 0.341-0.305 0.629-0.669 0.851-1.076 0.216-0.397 0.367-0.836 0.44-1.301l1.84-12.003c0.081-0.535 0.052-1.063-0.071-1.56-0.127-0.516-0.355-0.995-0.664-1.413-0.308-0.419-0.699-0.779-1.153-1.053-0.439-0.265-0.933-0.448-1.467-0.529-0.22-0.033-0.444-0.049-0.656-0.045zM17.333 12c0 0.736 0.597 1.333 1.333 1.333h7.572c0.051-0.001 0.124 0.003 0.204 0.015 0.181 0.028 0.345 0.089 0.489 0.176 0.151 0.091 0.281 0.211 0.385 0.352s0.18 0.301 0.221 0.472c0.040 0.163 0.051 0.337 0.023 0.517l-1.84 11.997c-0.024 0.159-0.076 0.305-0.148 0.439-0.075 0.137-0.172 0.259-0.285 0.361-0.123 0.109-0.264 0.196-0.419 0.253-0.148 0.056-0.309 0.085-0.497 0.084h-13.705v-13.051l4.811-10.824c0.071 0.023 0.14 0.048 0.208 0.076 0.325 0.135 0.619 0.333 0.867 0.58s0.445 0.541 0.58 0.867c0.129 0.312 0.201 0.655 0.201 1.019z"></path>
</svg>
