<!-- Generated by IcoMoon.io -->
<svg version="1.1" xmlns="http://www.w3.org/2000/svg" width="32" height="32" viewBox="0 0 32 32">
<title>thumbs-down</title>
<path d="M24 16v-12h2.227c0.251-0.004 0.465 0.035 0.661 0.108 0.204 0.076 0.392 0.191 0.553 0.335 0.153 0.137 0.283 0.301 0.38 0.485 0.083 0.156 0.144 0.328 0.177 0.509v9.127c-0.035 0.196-0.101 0.376-0.192 0.537-0.107 0.191-0.247 0.359-0.415 0.496-0.159 0.131-0.341 0.233-0.537 0.303-0.191 0.067-0.396 0.101-0.611 0.099zM12 21.333v4c0 0.72 0.144 1.409 0.404 2.040 0.271 0.653 0.667 1.24 1.157 1.731s1.077 0.887 1.731 1.157c0.632 0.261 1.321 0.405 2.041 0.405 0.54 0 1.005-0.321 1.219-0.792l4.981-11.208h2.675c0.532 0.008 1.048-0.080 1.531-0.248 0.495-0.173 0.951-0.432 1.349-0.76 0.421-0.347 0.78-0.772 1.051-1.257 0.261-0.471 0.441-0.995 0.517-1.555 0.007-0.055 0.011-0.117 0.011-0.18v-9.333c0-0.056-0.004-0.119-0.012-0.183-0.073-0.527-0.237-1.024-0.477-1.475-0.247-0.463-0.571-0.875-0.956-1.219-0.407-0.364-0.881-0.653-1.403-0.848-0.504-0.188-1.051-0.285-1.592-0.276h-18.6c-0.492-0.005-0.983 0.084-1.436 0.255-0.468 0.176-0.893 0.437-1.259 0.764-0.34 0.304-0.629 0.668-0.851 1.075-0.216 0.397-0.367 0.837-0.439 1.301l-1.84 12.003c-0.081 0.535-0.052 1.063 0.071 1.56 0.127 0.516 0.355 0.995 0.664 1.413s0.699 0.779 1.153 1.053c0.439 0.265 0.933 0.449 1.467 0.529 0.219 0.035 0.443 0.051 0.655 0.047zM14.667 20c0-0.736-0.597-1.333-1.333-1.333h-7.572c-0.051 0.001-0.124-0.003-0.204-0.015-0.181-0.028-0.345-0.089-0.489-0.176-0.151-0.091-0.281-0.211-0.385-0.352s-0.18-0.301-0.221-0.472c-0.040-0.163-0.051-0.337-0.023-0.517l1.84-11.997c0.024-0.159 0.076-0.305 0.148-0.439 0.075-0.137 0.172-0.259 0.285-0.361 0.123-0.109 0.264-0.196 0.419-0.253 0.147-0.056 0.308-0.087 0.496-0.084h13.707v13.051l-4.811 10.824c-0.071-0.023-0.14-0.048-0.208-0.076-0.325-0.135-0.619-0.333-0.867-0.58-0.247-0.247-0.445-0.541-0.58-0.867-0.129-0.312-0.201-0.655-0.201-1.019z"></path>
</svg>
