<!-- Generated by IcoMoon.io -->
<svg version="1.1" xmlns="http://www.w3.org/2000/svg" width="32" height="32" viewBox="0 0 32 32">
<title>toggle-left</title>
<path d="M10.667 5.333c-1.443 0-2.821 0.287-4.080 0.808-1.307 0.541-2.48 1.333-3.463 2.316s-1.775 2.157-2.316 3.463c-0.521 1.259-0.808 2.637-0.808 4.080s0.287 2.821 0.808 4.080c0.541 1.307 1.333 2.48 2.316 3.463s2.157 1.775 3.463 2.316c1.259 0.521 2.637 0.808 4.080 0.808h10.667c1.443 0 2.821-0.287 4.080-0.808 1.307-0.541 2.48-1.333 3.463-2.316s1.775-2.157 2.316-3.463c0.521-1.259 0.808-2.637 0.808-4.080s-0.287-2.821-0.808-4.080c-0.541-1.307-1.333-2.48-2.316-3.463s-2.157-1.775-3.463-2.316c-1.259-0.521-2.637-0.808-4.080-0.808zM10.667 8h10.667c1.087 0 2.119 0.216 3.059 0.605 0.977 0.405 1.859 0.999 2.597 1.737s1.333 1.62 1.737 2.597c0.391 0.941 0.607 1.973 0.607 3.060s-0.216 2.119-0.605 3.059c-0.405 0.977-0.999 1.859-1.737 2.597s-1.62 1.333-2.597 1.737c-0.941 0.391-1.973 0.607-3.060 0.607h-10.667c-1.087 0-2.119-0.216-3.059-0.605-0.977-0.405-1.859-0.999-2.597-1.737s-1.333-1.62-1.737-2.597c-0.391-0.941-0.607-1.973-0.607-3.060s0.216-2.119 0.605-3.059c0.405-0.977 0.999-1.859 1.737-2.597s1.62-1.333 2.597-1.737c0.941-0.391 1.973-0.607 3.060-0.607zM16 16c0-0.72-0.144-1.409-0.404-2.040-0.271-0.653-0.667-1.24-1.157-1.731s-1.079-0.888-1.732-1.159c-0.631-0.26-1.32-0.404-2.040-0.404s-1.409 0.144-2.040 0.404c-0.653 0.271-1.24 0.667-1.731 1.157s-0.888 1.079-1.159 1.732c-0.26 0.631-0.404 1.32-0.404 2.040s0.144 1.409 0.404 2.040c0.271 0.653 0.667 1.24 1.157 1.731s1.077 0.887 1.731 1.157c0.632 0.261 1.321 0.405 2.041 0.405s1.409-0.144 2.040-0.404c0.653-0.271 1.24-0.667 1.731-1.157s0.887-1.077 1.157-1.731c0.261-0.632 0.405-1.321 0.405-2.041zM13.333 16c0 0.364-0.072 0.707-0.201 1.020-0.135 0.325-0.333 0.619-0.58 0.867s-0.541 0.445-0.867 0.58c-0.312 0.128-0.655 0.2-1.019 0.2s-0.707-0.072-1.020-0.201c-0.325-0.135-0.619-0.333-0.867-0.58s-0.445-0.541-0.58-0.867c-0.128-0.312-0.2-0.655-0.2-1.019s0.072-0.707 0.201-1.020c0.135-0.325 0.333-0.619 0.58-0.867s0.541-0.445 0.867-0.58c0.312-0.128 0.655-0.2 1.019-0.2s0.707 0.072 1.020 0.201c0.325 0.135 0.619 0.333 0.867 0.58s0.445 0.541 0.58 0.867c0.128 0.312 0.2 0.655 0.2 1.019z"></path>
</svg>
