<!-- Generated by IcoMoon.io -->
<svg version="1.1" xmlns="http://www.w3.org/2000/svg" width="32" height="32" viewBox="0 0 32 32">
<title>trending-down</title>
<path d="M22.667 25.333h8c0.004 0 0.007 0 0.011 0 0.176-0.001 0.344-0.037 0.499-0.1 0.327-0.135 0.588-0.397 0.724-0.724 0.064-0.153 0.099-0.321 0.1-0.499 0-0.004 0-0.007 0-0.011v-8c0-0.736-0.597-1.333-1.333-1.333s-1.333 0.597-1.333 1.333v4.781l-10.391-10.391c-0.521-0.521-1.365-0.521-1.885 0l-5.724 5.724-9.057-9.057c-0.521-0.521-1.365-0.521-1.885 0s-0.521 1.365 0 1.885l10 10c0.521 0.521 1.365 0.521 1.885 0l5.724-5.724 9.448 9.448h-4.781c-0.736 0-1.333 0.597-1.333 1.333s0.597 1.333 1.333 1.333z"></path>
</svg>
