<!-- Generated by IcoMoon.io -->
<svg version="1.1" xmlns="http://www.w3.org/2000/svg" width="32" height="32" viewBox="0 0 32 32">
<title>trending-up</title>
<path d="M22.667 9.333h4.781l-9.448 9.448-5.724-5.724c-0.521-0.521-1.365-0.521-1.885 0l-10 10c-0.521 0.521-0.521 1.365 0 1.885s1.365 0.521 1.885 0l9.057-9.057 5.724 5.724c0.521 0.521 1.365 0.521 1.885 0l10.391-10.391v4.781c0 0.736 0.597 1.333 1.333 1.333s1.333-0.597 1.333-1.333v-8c0-0.18-0.036-0.352-0.1-0.509-0.135-0.327-0.396-0.588-0.724-0.724-0.153-0.063-0.321-0.099-0.497-0.1-0.004 0-0.008 0-0.012 0h-8c-0.736 0-1.333 0.597-1.333 1.333s0.597 1.333 1.333 1.333z"></path>
</svg>
