<!-- Generated by IcoMoon.io -->
<svg version="1.1" xmlns="http://www.w3.org/2000/svg" width="32" height="32" viewBox="0 0 32 32">
<title>truck</title>
<path d="M20 20h-17.333v-14.667h17.333v5.333zM22.667 12h3.448l3.219 3.219v4.781h-6.667zM9.333 24.667c0 0.273-0.055 0.531-0.151 0.764-0.101 0.244-0.249 0.464-0.435 0.649s-0.407 0.333-0.649 0.435c-0.235 0.097-0.492 0.152-0.765 0.152s-0.531-0.055-0.764-0.151c-0.244-0.101-0.464-0.249-0.649-0.435s-0.333-0.407-0.435-0.649c-0.097-0.235-0.152-0.492-0.152-0.765s0.055-0.531 0.151-0.764c0.101-0.244 0.249-0.464 0.435-0.649s0.407-0.333 0.649-0.435c0.235-0.097 0.492-0.152 0.765-0.152s0.531 0.055 0.764 0.151c0.244 0.101 0.464 0.249 0.649 0.435s0.333 0.407 0.435 0.649c0.097 0.235 0.152 0.492 0.152 0.765zM29.333 24.667c0-0.629-0.125-1.233-0.353-1.785-0.031-0.072-0.061-0.144-0.096-0.215h1.783c0.736 0 1.333-0.597 1.333-1.333v-6.667c0-0.341-0.131-0.683-0.391-0.943l-4-4c-0.241-0.241-0.575-0.391-0.943-0.391h-4v-5.333c0-0.736-0.597-1.333-1.333-1.333h-20c-0.736 0-1.333 0.597-1.333 1.333v17.333c0 0.736 0.597 1.333 1.333 1.333h1.783c-0.033 0.071-0.065 0.143-0.096 0.215-0.228 0.552-0.353 1.156-0.353 1.785s0.125 1.233 0.353 1.785c0.237 0.572 0.584 1.085 1.013 1.515s0.943 0.776 1.515 1.013c0.552 0.228 1.156 0.353 1.785 0.353s1.233-0.125 1.785-0.353c0.572-0.237 1.085-0.584 1.515-1.013s0.776-0.943 1.013-1.515c0.228-0.552 0.353-1.156 0.353-1.785s-0.125-1.233-0.353-1.785c-0.031-0.072-0.063-0.144-0.096-0.215h8.899c-0.033 0.071-0.065 0.143-0.096 0.215-0.228 0.552-0.353 1.156-0.353 1.785s0.125 1.233 0.353 1.785c0.237 0.572 0.584 1.085 1.013 1.515s0.943 0.776 1.515 1.013c0.552 0.228 1.156 0.353 1.785 0.353s1.233-0.125 1.785-0.353c0.572-0.237 1.085-0.584 1.515-1.013s0.776-0.943 1.013-1.515c0.228-0.552 0.353-1.156 0.353-1.785zM26.667 24.667c0 0.273-0.055 0.531-0.151 0.764-0.101 0.244-0.249 0.464-0.435 0.649s-0.407 0.333-0.649 0.435c-0.235 0.097-0.492 0.152-0.765 0.152s-0.531-0.055-0.764-0.151c-0.244-0.101-0.464-0.249-0.649-0.435s-0.333-0.407-0.435-0.649c-0.097-0.235-0.152-0.492-0.152-0.765s0.055-0.531 0.151-0.764c0.101-0.244 0.249-0.464 0.435-0.649s0.407-0.333 0.649-0.435c0.235-0.097 0.492-0.152 0.765-0.152s0.531 0.055 0.764 0.151c0.244 0.101 0.464 0.249 0.649 0.435s0.333 0.407 0.435 0.649c0.097 0.235 0.152 0.492 0.152 0.765z"></path>
</svg>
