<!-- Generated by IcoMoon.io -->
<svg version="1.1" xmlns="http://www.w3.org/2000/svg" width="32" height="32" viewBox="0 0 32 32">
<title>twitter</title>
<path d="M27.777 7.016c-0.248 0.323-0.521 0.633-0.821 0.928-0.311 0.309-0.463 0.756-0.371 1.211 0.049 0.243 0.080 0.539 0.081 0.845 0 1.873-0.232 3.596-0.653 5.161-0.389 1.447-0.943 2.763-1.629 3.944-1.359 2.339-3.249 4.164-5.464 5.425-1.137 0.648-2.363 1.149-3.647 1.493-1.339 0.359-2.741 0.547-4.177 0.555-1.468 0.008-2.969-0.173-4.471-0.555 1.661-0.481 3.28-1.229 4.791-2.253 0.196-0.132 0.364-0.324 0.469-0.561 0.299-0.673-0.004-1.461-0.677-1.76-1.917-0.852-3.316-1.867-4.335-2.94-0.96-1.011-1.604-2.093-2.024-3.185-0.247-0.641-0.417-1.289-0.528-1.932-0.14-0.808-0.184-1.608-0.164-2.371 0.028-1.081 0.184-2.080 0.371-2.909 0.524 0.457 1.069 0.941 1.645 1.384 1.389 1.068 2.96 1.905 4.655 2.457 1.639 0.533 3.392 0.8 5.207 0.753 0.721-0.020 1.299-0.609 1.299-1.333v-1.348c-0.003-0.239 0.012-0.476 0.045-0.712 0.077-0.548 0.251-1.080 0.516-1.571 0.256-0.472 0.6-0.908 1.032-1.284 0.476-0.415 1.009-0.712 1.569-0.9 0.581-0.195 1.193-0.271 1.799-0.228s1.2 0.201 1.749 0.476c0.528 0.263 1.015 0.632 1.429 1.108 0.336 0.381 0.865 0.555 1.377 0.405 0.308-0.089 0.617-0.191 0.927-0.304zM29.899 2.911c-0.987 0.696-2.031 1.235-3.049 1.607-0.495-0.444-1.039-0.811-1.615-1.097-0.867-0.432-1.804-0.683-2.753-0.749s-1.912 0.052-2.831 0.36c-0.885 0.296-1.727 0.768-2.472 1.416-0.676 0.588-1.22 1.276-1.627 2.024-0.421 0.776-0.693 1.615-0.813 2.472-0.049 0.353-0.073 0.711-0.072 1.067-1.044-0.077-2.052-0.279-3.013-0.592-1.4-0.456-2.701-1.148-3.855-2.035-1.033-0.795-1.948-1.745-2.711-2.821-0.427-0.6-1.259-0.741-1.86-0.316-0.204 0.145-0.356 0.339-0.447 0.547-0.023 0.052-0.489 1.109-0.856 2.733-0.216 0.963-0.401 2.137-0.435 3.428-0.023 0.912 0.029 1.888 0.203 2.892 0.137 0.8 0.353 1.619 0.668 2.436 0.539 1.401 1.365 2.787 2.579 4.064 0.812 0.855 1.787 1.651 2.949 2.367-0.681 0.316-1.379 0.572-2.083 0.772-1.459 0.413-2.952 0.581-4.415 0.517-0.736-0.032-1.359 0.537-1.391 1.273-0.023 0.519 0.253 0.981 0.684 1.224 3.372 1.873 6.961 2.764 10.425 2.745 1.66-0.009 3.291-0.227 4.853-0.645 1.5-0.401 2.937-0.988 4.277-1.752 2.613-1.489 4.848-3.648 6.449-6.403 0.807-1.388 1.449-2.921 1.899-4.589 0.484-1.804 0.744-3.76 0.744-5.855-0.001-0.223-0.011-0.44-0.031-0.652 1.341-1.487 2.235-3.239 2.661-5.041 0.169-0.716-0.275-1.435-0.991-1.604-0.387-0.092-0.773-0.004-1.076 0.208z"></path>
</svg>
