<!-- Generated by IcoMoon.io -->
<svg version="1.1" xmlns="http://www.w3.org/2000/svg" width="32" height="32" viewBox="0 0 32 32">
<title>umbrella</title>
<path d="M31.993 15.873c-0.207-2.164-0.835-4.189-1.796-6.001-0.999-1.881-2.355-3.528-3.968-4.861s-3.488-2.353-5.524-2.977c-1.96-0.601-4.068-0.835-6.232-0.628-1.999 0.192-3.879 0.741-5.583 1.584-1.761 0.871-3.331 2.052-4.644 3.469-1.184 1.276-2.161 2.744-2.884 4.348-0.711 1.573-1.177 3.277-1.356 5.060-0.073 0.733 0.461 1.387 1.193 1.46 0.047 0.005 0.093 0.007 0.133 0.007h13.333v8c0 0.72 0.144 1.409 0.404 2.040 0.271 0.653 0.667 1.24 1.157 1.731s1.077 0.887 1.731 1.157c0.632 0.261 1.321 0.405 2.041 0.405s1.409-0.144 2.040-0.404c0.653-0.271 1.24-0.667 1.731-1.157s0.887-1.077 1.157-1.731c0.261-0.632 0.405-1.321 0.405-2.041 0-0.736-0.597-1.333-1.333-1.333s-1.333 0.597-1.333 1.333c0 0.364-0.072 0.707-0.201 1.020-0.135 0.325-0.333 0.619-0.58 0.867s-0.541 0.445-0.867 0.58c-0.312 0.128-0.655 0.2-1.019 0.2s-0.707-0.072-1.020-0.201c-0.325-0.135-0.619-0.333-0.867-0.58-0.247-0.247-0.445-0.541-0.58-0.867-0.128-0.312-0.2-0.655-0.2-1.019v-8h13.333c0.736 0 1.333-0.597 1.333-1.333 0-0.044-0.003-0.089-0.007-0.127zM29.12 14.667h-26.232c0.204-0.961 0.509-1.887 0.904-2.763 0.605-1.34 1.421-2.567 2.409-3.632 1.097-1.183 2.405-2.168 3.871-2.892 1.416-0.7 2.983-1.159 4.653-1.319 1.809-0.173 3.565 0.023 5.197 0.523 1.696 0.52 3.26 1.371 4.608 2.484s2.48 2.488 3.311 4.055c0.58 1.095 1.016 2.283 1.277 3.544z"></path>
</svg>
