<!-- Generated by IcoMoon.io -->
<svg version="1.1" xmlns="http://www.w3.org/2000/svg" width="32" height="32" viewBox="0 0 32 32">
<title>underline</title>
<path d="M6.667 4v9.333c0 1.261 0.251 2.468 0.707 3.569 0.473 1.143 1.167 2.171 2.027 3.031s1.887 1.553 3.031 2.027c1.101 0.456 2.308 0.707 3.569 0.707s2.468-0.251 3.569-0.707c1.143-0.473 2.171-1.167 3.031-2.027s1.553-1.887 2.027-3.031c0.456-1.101 0.707-2.308 0.707-3.569v-9.333c0-0.736-0.597-1.333-1.333-1.333s-1.333 0.597-1.333 1.333v9.333c0 0.905-0.18 1.765-0.504 2.549-0.337 0.815-0.832 1.549-1.448 2.165s-1.351 1.111-2.165 1.448c-0.784 0.324-1.644 0.504-2.549 0.504s-1.765-0.18-2.549-0.504c-0.815-0.337-1.549-0.832-2.165-1.448s-1.111-1.351-1.448-2.165c-0.324-0.784-0.504-1.644-0.504-2.549v-9.333c0-0.736-0.597-1.333-1.333-1.333s-1.333 0.597-1.333 1.333zM5.333 29.333h21.333c0.736 0 1.333-0.597 1.333-1.333s-0.597-1.333-1.333-1.333h-21.333c-0.736 0-1.333 0.597-1.333 1.333s0.597 1.333 1.333 1.333z"></path>
</svg>
