<!-- Generated by IcoMoon.io -->
<svg version="1.1" xmlns="http://www.w3.org/2000/svg" width="32" height="32" viewBox="0 0 32 32">
<title>unlock</title>
<path d="M6.667 16h18.667c0.183 0 0.355 0.036 0.509 0.1 0.163 0.067 0.309 0.167 0.433 0.291s0.223 0.271 0.291 0.433c0.064 0.155 0.1 0.327 0.1 0.509v9.333c0 0.183-0.036 0.355-0.1 0.509-0.067 0.163-0.167 0.309-0.291 0.433s-0.271 0.223-0.433 0.291c-0.155 0.064-0.327 0.1-0.509 0.1h-18.667c-0.183 0-0.355-0.036-0.509-0.1-0.163-0.067-0.309-0.167-0.433-0.291s-0.223-0.271-0.291-0.433c-0.064-0.155-0.1-0.327-0.1-0.509v-9.333c0-0.183 0.036-0.355 0.1-0.509 0.067-0.163 0.167-0.309 0.291-0.433s0.271-0.223 0.433-0.291c0.155-0.064 0.327-0.1 0.509-0.1zM10.667 13.333v-4c-0.001-0.727 0.143-1.415 0.401-2.041 0.269-0.652 0.665-1.24 1.157-1.733s1.080-0.889 1.731-1.16c0.627-0.26 1.313-0.405 2.039-0.405 0.667-0.001 1.303 0.12 1.888 0.343 0.605 0.229 1.16 0.567 1.64 0.992 0.429 0.38 0.797 0.829 1.088 1.331 0.285 0.492 0.497 1.035 0.617 1.615 0.151 0.721 0.856 1.184 1.577 1.033s1.184-0.856 1.033-1.577c-0.18-0.863-0.495-1.673-0.921-2.409-0.435-0.749-0.985-1.42-1.628-1.988-0.717-0.636-1.551-1.143-2.463-1.489-0.884-0.335-1.84-0.516-2.835-0.515-1.081 0.001-2.115 0.217-3.059 0.609-0.98 0.407-1.86 1.003-2.596 1.74s-1.329 1.616-1.735 2.597c-0.389 0.944-0.604 1.979-0.603 3.059v4h-1.333c-0.54 0-1.057 0.108-1.531 0.304-0.491 0.203-0.931 0.5-1.299 0.868s-0.665 0.808-0.868 1.299c-0.195 0.472-0.303 0.989-0.303 1.529v9.333c0 0.54 0.108 1.057 0.304 1.531 0.203 0.491 0.5 0.931 0.868 1.299s0.808 0.665 1.299 0.868c0.472 0.195 0.989 0.303 1.529 0.303h18.667c0.54 0 1.057-0.108 1.531-0.304 0.491-0.203 0.931-0.5 1.299-0.868s0.665-0.808 0.868-1.299c0.195-0.472 0.303-0.989 0.303-1.529v-9.333c0-0.54-0.108-1.057-0.304-1.531-0.203-0.491-0.5-0.931-0.868-1.299s-0.808-0.665-1.299-0.868c-0.472-0.195-0.989-0.303-1.529-0.303z"></path>
</svg>
