<!-- Generated by IcoMoon.io -->
<svg version="1.1" xmlns="http://www.w3.org/2000/svg" width="32" height="32" viewBox="0 0 32 32">
<title>upload</title>
<path d="M26.667 20v5.333c0 0.183-0.036 0.355-0.1 0.509-0.067 0.163-0.167 0.309-0.291 0.433s-0.271 0.223-0.433 0.291c-0.155 0.064-0.327 0.1-0.509 0.1h-18.667c-0.183 0-0.355-0.036-0.509-0.1-0.163-0.067-0.309-0.167-0.433-0.291s-0.223-0.271-0.291-0.433c-0.064-0.155-0.1-0.327-0.1-0.509v-5.333c0-0.736-0.597-1.333-1.333-1.333s-1.333 0.597-1.333 1.333v5.333c0 0.54 0.108 1.057 0.304 1.531 0.203 0.491 0.5 0.931 0.868 1.299s0.808 0.665 1.299 0.868c0.472 0.195 0.989 0.303 1.529 0.303h18.667c0.54 0 1.057-0.108 1.531-0.304 0.491-0.203 0.931-0.5 1.299-0.868s0.665-0.808 0.868-1.299c0.195-0.472 0.303-0.989 0.303-1.529v-5.333c0-0.736-0.597-1.333-1.333-1.333s-1.333 0.597-1.333 1.333zM14.667 7.219v12.781c0 0.736 0.597 1.333 1.333 1.333s1.333-0.597 1.333-1.333v-12.781l4.391 4.391c0.521 0.521 1.365 0.521 1.885 0s0.521-1.365 0-1.885l-6.667-6.667c-0.001-0.001-0.004-0.003-0.005-0.005-0.127-0.125-0.272-0.22-0.427-0.284-0.327-0.135-0.695-0.135-1.021 0-0.155 0.064-0.3 0.159-0.427 0.284-0.001 0.001-0.004 0.003-0.005 0.005l-6.667 6.667c-0.521 0.521-0.521 1.365 0 1.885s1.365 0.521 1.885 0z"></path>
</svg>
