<!-- Generated by IcoMoon.io -->
<svg version="1.1" xmlns="http://www.w3.org/2000/svg" width="32" height="32" viewBox="0 0 32 32">
<title>upload-cloud</title>
<path d="M14.667 19.219v8.781c0 0.736 0.597 1.333 1.333 1.333s1.333-0.597 1.333-1.333v-8.781l3.057 3.057c0.521 0.521 1.365 0.521 1.885 0s0.521-1.365 0-1.885l-5.333-5.333c-0.003-0.003-0.005-0.005-0.008-0.008-0.127-0.124-0.271-0.217-0.424-0.281-0.16-0.067-0.332-0.1-0.503-0.101-0.005 0-0.011 0-0.015 0-0.171 0.001-0.343 0.035-0.503 0.101-0.155 0.064-0.299 0.157-0.424 0.281-0.003 0.003-0.005 0.005-0.008 0.008l-5.333 5.333c-0.521 0.521-0.521 1.365 0 1.885s1.365 0.521 1.885 0zM27.825 25.691c0.949-0.517 1.755-1.201 2.396-1.997 0.667-0.825 1.155-1.769 1.449-2.768s0.395-2.057 0.281-3.112c-0.108-1.016-0.415-2.028-0.932-2.976-0.444-0.815-1.012-1.524-1.668-2.115-0.679-0.611-1.451-1.092-2.277-1.436-0.965-0.4-2.005-0.612-3.064-0.62h-0.704c-0.416-1.179-1.003-2.257-1.724-3.216-0.957-1.271-2.151-2.327-3.497-3.12s-2.849-1.325-4.424-1.548c-1.519-0.212-3.101-0.137-4.672 0.269s-2.992 1.107-4.216 2.029c-1.271 0.957-2.327 2.151-3.12 3.497s-1.325 2.849-1.547 4.424c-0.213 1.517-0.137 3.1 0.268 4.671 0.496 1.916 1.431 3.613 2.633 4.951 0.492 0.548 1.336 0.592 1.883 0.1s0.592-1.336 0.1-1.883c-0.917-1.020-1.647-2.333-2.035-3.836-0.317-1.227-0.375-2.456-0.209-3.632 0.172-1.223 0.587-2.391 1.205-3.441s1.44-1.979 2.427-2.721c0.949-0.715 2.052-1.26 3.279-1.577s2.456-0.375 3.632-0.209c1.223 0.172 2.392 0.585 3.441 1.204s1.979 1.44 2.721 2.427c0.715 0.949 1.26 2.052 1.577 3.279 0.153 0.58 0.673 1 1.291 1h1.671c0.715 0.005 1.415 0.148 2.060 0.416 0.553 0.229 1.067 0.551 1.516 0.956 0.435 0.391 0.812 0.863 1.111 1.409 0.347 0.636 0.549 1.309 0.621 1.984 0.075 0.701 0.008 1.407-0.188 2.076s-0.523 1.297-0.967 1.847c-0.425 0.528-0.961 0.983-1.597 1.331-0.647 0.352-0.885 1.163-0.532 1.809s1.163 0.885 1.809 0.532z"></path>
</svg>
