<!-- Generated by IcoMoon.io -->
<svg version="1.1" xmlns="http://www.w3.org/2000/svg" width="32" height="32" viewBox="0 0 32 32">
<title>user-x</title>
<path d="M22.667 28v-2.667c0-0.9-0.179-1.763-0.505-2.549-0.339-0.817-0.833-1.551-1.447-2.164s-1.348-1.109-2.164-1.447c-0.788-0.328-1.651-0.507-2.551-0.507h-9.333c-0.9 0-1.763 0.179-2.549 0.505-0.817 0.339-1.551 0.833-2.164 1.447s-1.109 1.348-1.447 2.164c-0.328 0.788-0.507 1.651-0.507 2.551v2.667c0 0.736 0.597 1.333 1.333 1.333s1.333-0.597 1.333-1.333v-2.667c0-0.544 0.108-1.060 0.303-1.529 0.203-0.488 0.5-0.929 0.869-1.299s0.811-0.667 1.299-0.869c0.469-0.195 0.985-0.303 1.529-0.303h9.333c0.544 0 1.060 0.108 1.529 0.303 0.488 0.203 0.929 0.5 1.299 0.869s0.667 0.811 0.869 1.299c0.195 0.469 0.303 0.985 0.303 1.529v2.667c0 0.736 0.597 1.333 1.333 1.333s1.333-0.597 1.333-1.333zM18 9.333c0-0.9-0.179-1.763-0.505-2.549-0.339-0.817-0.833-1.551-1.447-2.164s-1.348-1.109-2.164-1.447c-0.788-0.328-1.651-0.507-2.551-0.507s-1.763 0.179-2.549 0.505c-0.817 0.339-1.551 0.833-2.165 1.447s-1.108 1.348-1.447 2.165c-0.327 0.787-0.505 1.649-0.505 2.549s0.179 1.763 0.505 2.549c0.339 0.817 0.833 1.551 1.447 2.164s1.348 1.109 2.164 1.447c0.788 0.328 1.651 0.507 2.551 0.507s1.763-0.179 2.549-0.505c0.817-0.339 1.551-0.833 2.164-1.447s1.109-1.348 1.447-2.164c0.328-0.788 0.507-1.651 0.507-2.551zM15.333 9.333c0 0.544-0.108 1.060-0.303 1.529-0.203 0.488-0.5 0.929-0.869 1.299s-0.811 0.667-1.299 0.869c-0.469 0.195-0.985 0.303-1.529 0.303s-1.060-0.108-1.529-0.303c-0.488-0.203-0.929-0.499-1.299-0.869s-0.667-0.811-0.869-1.299c-0.195-0.469-0.303-0.985-0.303-1.529s0.108-1.060 0.303-1.529c0.203-0.488 0.5-0.929 0.869-1.299s0.811-0.667 1.299-0.869c0.469-0.195 0.985-0.303 1.529-0.303s1.060 0.108 1.529 0.303c0.488 0.203 0.929 0.5 1.299 0.869s0.667 0.811 0.869 1.299c0.195 0.469 0.303 0.985 0.303 1.529zM29.724 9.724l-2.391 2.391-2.391-2.391c-0.521-0.521-1.365-0.521-1.885 0s-0.521 1.365 0 1.885l2.391 2.391-2.391 2.391c-0.521 0.521-0.521 1.365 0 1.885s1.365 0.521 1.885 0l2.391-2.391 2.391 2.391c0.521 0.521 1.365 0.521 1.885 0s0.521-1.365 0-1.885l-2.391-2.391 2.391-2.391c0.521-0.521 0.521-1.365 0-1.885s-1.365-0.521-1.885 0z"></path>
</svg>
