<!-- Generated by IcoMoon.io -->
<svg version="1.1" xmlns="http://www.w3.org/2000/svg" width="32" height="32" viewBox="0 0 32 32">
<title>users</title>
<path d="M24 28v-2.667c0-0.9-0.179-1.763-0.505-2.549-0.339-0.817-0.833-1.551-1.447-2.164s-1.348-1.109-2.164-1.447c-0.788-0.328-1.651-0.507-2.551-0.507h-10.667c-0.9 0-1.763 0.179-2.549 0.505-0.817 0.339-1.551 0.833-2.164 1.447s-1.109 1.348-1.447 2.164c-0.328 0.788-0.507 1.651-0.507 2.551v2.667c0 0.736 0.597 1.333 1.333 1.333s1.333-0.597 1.333-1.333v-2.667c0-0.544 0.108-1.060 0.303-1.529 0.203-0.488 0.5-0.929 0.869-1.299s0.811-0.667 1.299-0.869c0.469-0.195 0.985-0.303 1.529-0.303h10.667c0.544 0 1.060 0.108 1.529 0.303 0.488 0.203 0.929 0.5 1.299 0.869s0.667 0.811 0.869 1.299c0.195 0.469 0.303 0.985 0.303 1.529v2.667c0 0.736 0.597 1.333 1.333 1.333s1.333-0.597 1.333-1.333zM18.667 9.333c0-0.9-0.179-1.763-0.505-2.549-0.339-0.817-0.833-1.551-1.447-2.164s-1.348-1.109-2.164-1.447c-0.788-0.328-1.651-0.507-2.551-0.507s-1.763 0.179-2.549 0.505c-0.817 0.339-1.551 0.833-2.165 1.447s-1.108 1.348-1.447 2.165c-0.327 0.787-0.505 1.649-0.505 2.549s0.179 1.763 0.505 2.549c0.339 0.817 0.833 1.551 1.447 2.164s1.348 1.109 2.164 1.447c0.788 0.328 1.651 0.507 2.551 0.507s1.763-0.179 2.549-0.505c0.817-0.339 1.551-0.833 2.164-1.447s1.109-1.348 1.447-2.164c0.328-0.788 0.507-1.651 0.507-2.551zM16 9.333c0 0.544-0.108 1.060-0.303 1.529-0.203 0.488-0.5 0.929-0.869 1.299s-0.811 0.667-1.299 0.869c-0.469 0.195-0.985 0.303-1.529 0.303s-1.060-0.108-1.529-0.303c-0.488-0.203-0.929-0.499-1.299-0.869s-0.667-0.811-0.869-1.299c-0.195-0.469-0.303-0.985-0.303-1.529s0.108-1.060 0.303-1.529c0.203-0.488 0.5-0.929 0.869-1.299s0.811-0.667 1.299-0.869c0.469-0.195 0.985-0.303 1.529-0.303s1.060 0.108 1.529 0.303c0.488 0.203 0.929 0.5 1.299 0.869s0.667 0.811 0.869 1.299c0.195 0.469 0.303 0.985 0.303 1.529zM32 28v-2.667c0-0.815-0.148-1.597-0.419-2.323-0.28-0.749-0.689-1.433-1.203-2.025-0.869-1.004-2.037-1.748-3.372-2.101-0.712-0.188-1.441 0.236-1.629 0.948s0.236 1.441 0.948 1.629c0.809 0.215 1.515 0.664 2.037 1.269 0.309 0.356 0.553 0.767 0.72 1.212 0.161 0.432 0.251 0.9 0.251 1.391v2.667c0 0.736 0.597 1.333 1.333 1.333s1.333-0.597 1.333-1.333zM21.003 5.465c0.527 0.135 1 0.368 1.407 0.672 0.423 0.317 0.776 0.715 1.043 1.164s0.445 0.951 0.52 1.475c0.072 0.503 0.048 1.029-0.087 1.556-0.116 0.453-0.304 0.865-0.547 1.229-0.252 0.376-0.565 0.705-0.927 0.975-0.419 0.313-0.9 0.547-1.417 0.681-0.712 0.187-1.139 0.916-0.951 1.628s0.916 1.139 1.628 0.951c0.849-0.223 1.643-0.607 2.337-1.125 0.597-0.447 1.123-0.995 1.545-1.627 0.409-0.612 0.723-1.301 0.915-2.051 0.224-0.872 0.264-1.752 0.143-2.596-0.125-0.875-0.423-1.709-0.865-2.456s-1.031-1.408-1.737-1.939c-0.681-0.511-1.472-0.899-2.345-1.123-0.713-0.183-1.44 0.248-1.623 0.961s0.248 1.44 0.961 1.623z"></path>
</svg>
