<!-- Generated by IcoMoon.io -->
<svg version="1.1" xmlns="http://www.w3.org/2000/svg" width="32" height="32" viewBox="0 0 32 32">
<title>voicemail</title>
<path d="M12 15.333c0 0.635-0.125 1.236-0.353 1.784-0.236 0.571-0.583 1.084-1.013 1.516s-0.945 0.777-1.516 1.013c-0.548 0.228-1.149 0.353-1.784 0.353s-1.236-0.125-1.784-0.353c-0.571-0.236-1.084-0.583-1.516-1.013s-0.777-0.945-1.013-1.516c-0.228-0.548-0.353-1.149-0.353-1.784s0.125-1.236 0.353-1.784c0.236-0.571 0.583-1.084 1.013-1.516s0.945-0.777 1.516-1.013c0.548-0.228 1.149-0.353 1.784-0.353s1.236 0.125 1.784 0.353c0.571 0.236 1.084 0.583 1.516 1.013s0.777 0.945 1.013 1.516c0.228 0.548 0.353 1.149 0.353 1.784zM29.333 15.333c0 0.635-0.125 1.236-0.353 1.784-0.236 0.571-0.583 1.084-1.013 1.516s-0.945 0.777-1.516 1.013c-0.548 0.228-1.149 0.353-1.784 0.353s-1.236-0.125-1.784-0.353c-0.571-0.236-1.084-0.583-1.516-1.013s-0.777-0.945-1.013-1.516c-0.228-0.548-0.353-1.149-0.353-1.784s0.125-1.236 0.353-1.784c0.236-0.571 0.583-1.084 1.013-1.516s0.945-0.777 1.516-1.013c0.548-0.228 1.149-0.353 1.784-0.353s1.236 0.125 1.784 0.353c0.571 0.236 1.084 0.583 1.516 1.013s0.777 0.945 1.013 1.516c0.228 0.548 0.353 1.149 0.353 1.784zM7.333 22.667h17.333c0.991 0 1.939-0.197 2.805-0.556 0.899-0.372 1.705-0.917 2.381-1.592s1.22-1.483 1.592-2.381c0.357-0.865 0.555-1.813 0.555-2.804s-0.197-1.939-0.556-2.805c-0.372-0.899-0.917-1.705-1.592-2.381s-1.483-1.22-2.381-1.592c-0.865-0.357-1.813-0.555-2.804-0.555s-1.939 0.197-2.805 0.556c-0.899 0.372-1.705 0.917-2.381 1.592s-1.22 1.483-1.592 2.381c-0.357 0.865-0.555 1.813-0.555 2.804s0.197 1.939 0.556 2.805c0.281 0.679 0.66 1.305 1.12 1.861h-6.019c0.46-0.557 0.84-1.184 1.12-1.861 0.359-0.867 0.556-1.815 0.556-2.805s-0.197-1.939-0.556-2.805c-0.372-0.899-0.917-1.705-1.592-2.381s-1.483-1.219-2.38-1.591c-0.867-0.359-1.815-0.556-2.805-0.556s-1.939 0.197-2.805 0.556c-0.897 0.372-1.705 0.917-2.38 1.592s-1.22 1.483-1.592 2.38c-0.359 0.867-0.556 1.815-0.556 2.805s0.197 1.939 0.556 2.805c0.372 0.899 0.917 1.705 1.592 2.381s1.483 1.22 2.381 1.592c0.865 0.357 1.813 0.555 2.804 0.555z"></path>
</svg>
