<!-- Generated by IcoMoon.io -->
<svg version="1.1" xmlns="http://www.w3.org/2000/svg" width="32" height="32" viewBox="0 0 32 32">
<title>volume-x</title>
<path d="M13.333 9.441v13.119l-4.5-3.6c-0.227-0.183-0.517-0.293-0.833-0.293h-4v-5.333h4c0.291 0.001 0.585-0.095 0.833-0.292zM13.833 5.625l-6.301 5.041h-4.865c-0.736 0-1.333 0.597-1.333 1.333v8c0 0.736 0.597 1.333 1.333 1.333h4.865l6.301 5.041c0.575 0.46 1.415 0.367 1.875-0.208 0.197-0.247 0.293-0.543 0.292-0.833v-18.667c0-0.736-0.597-1.333-1.333-1.333-0.316 0-0.607 0.111-0.833 0.292zM21.724 12.943l3.057 3.057-3.057 3.057c-0.521 0.521-0.521 1.365 0 1.885s1.365 0.521 1.885 0l3.057-3.057 3.057 3.057c0.521 0.521 1.365 0.521 1.885 0s0.521-1.365 0-1.885l-3.057-3.057 3.057-3.057c0.521-0.521 0.521-1.365 0-1.885s-1.365-0.521-1.885 0l-3.057 3.057-3.057-3.057c-0.521-0.521-1.365-0.521-1.885 0s-0.521 1.365 0 1.885z"></path>
</svg>
