<!-- Generated by IcoMoon.io -->
<svg version="1.1" xmlns="http://www.w3.org/2000/svg" width="32" height="32" viewBox="0 0 32 32">
<title>watch</title>
<path d="M14.667 12v4c0 0.368 0.149 0.701 0.391 0.943l2 2c0.521 0.521 1.365 0.521 1.885 0s0.521-1.365 0-1.885l-1.609-1.609v-3.448c0-0.736-0.597-1.333-1.333-1.333s-1.333 0.597-1.333 1.333zM20.44 25.701l-0.221 2.417c-0.016 0.177-0.064 0.339-0.137 0.483-0.076 0.151-0.18 0.284-0.307 0.396-0.121 0.108-0.263 0.193-0.416 0.251-0.147 0.055-0.308 0.085-0.476 0.085h-5.776c-0.181 0.001-0.347-0.032-0.497-0.091-0.156-0.061-0.3-0.153-0.423-0.268-0.119-0.111-0.216-0.243-0.288-0.391-0.069-0.143-0.115-0.299-0.131-0.468l-0.221-2.421c0.124 0.057 0.248 0.111 0.375 0.164 1.257 0.521 2.636 0.808 4.079 0.808s2.821-0.287 4.080-0.808c0.121-0.051 0.241-0.103 0.36-0.157zM10.916 9.823c0.607-0.5 1.289-0.913 2.025-1.217 0.94-0.389 1.972-0.605 3.059-0.605s2.119 0.216 3.059 0.605c0.977 0.405 1.859 0.999 2.597 1.737s1.333 1.62 1.737 2.597c0.391 0.941 0.607 1.973 0.607 3.060s-0.216 2.119-0.605 3.059c-0.405 0.977-0.999 1.859-1.737 2.597-0.139 0.139-0.283 0.272-0.431 0.4-0.047 0.040-0.095 0.080-0.143 0.12-0.607 0.5-1.289 0.913-2.025 1.217-0.94 0.391-1.972 0.607-3.059 0.607s-2.119-0.216-3.059-0.605c-0.977-0.405-1.859-0.999-2.597-1.737s-1.333-1.62-1.737-2.597c-0.391-0.941-0.607-1.973-0.607-3.060s0.216-2.119 0.605-3.059c0.405-0.977 0.999-1.859 1.737-2.597 0.139-0.139 0.283-0.272 0.431-0.4 0.047-0.040 0.095-0.080 0.143-0.12zM23.321 8.243l-0.42-4.607c-0.047-0.495-0.181-0.965-0.391-1.393-0.215-0.44-0.508-0.833-0.86-1.163-0.365-0.343-0.795-0.617-1.271-0.804-0.46-0.18-0.96-0.279-1.473-0.276h-5.805c-0.495 0.001-0.973 0.095-1.416 0.263-0.455 0.173-0.872 0.428-1.231 0.745-0.373 0.331-0.687 0.733-0.917 1.188-0.223 0.44-0.365 0.927-0.412 1.441l-0.419 4.579c-0.084 0.079-0.168 0.16-0.249 0.241-0.983 0.983-1.775 2.157-2.316 3.463-0.521 1.259-0.808 2.637-0.808 4.080s0.287 2.821 0.808 4.080c0.541 1.307 1.333 2.48 2.316 3.463 0.077 0.077 0.156 0.153 0.235 0.228l0.42 4.593c0.047 0.495 0.181 0.965 0.391 1.393 0.215 0.44 0.508 0.833 0.86 1.163 0.365 0.343 0.795 0.617 1.271 0.804 0.46 0.18 0.96 0.279 1.473 0.276h5.771c0.497 0.001 0.979-0.091 1.424-0.259 0.459-0.173 0.877-0.427 1.239-0.747 0.375-0.332 0.689-0.733 0.92-1.189 0.223-0.44 0.367-0.929 0.413-1.444l0.419-4.577c0.084-0.079 0.168-0.16 0.249-0.241 0.983-0.983 1.775-2.157 2.316-3.463 0.523-1.259 0.809-2.637 0.809-4.080s-0.287-2.821-0.808-4.080c-0.541-1.307-1.333-2.48-2.316-3.463-0.072-0.072-0.147-0.144-0.22-0.215zM11.56 6.299l0.221-2.417c0.016-0.176 0.064-0.337 0.136-0.481 0.076-0.149 0.18-0.284 0.305-0.395 0.121-0.108 0.261-0.192 0.413-0.251 0.147-0.056 0.307-0.088 0.476-0.088h5.795c0.181-0.001 0.347 0.032 0.497 0.091 0.156 0.061 0.3 0.153 0.423 0.268 0.119 0.111 0.216 0.243 0.288 0.391 0.069 0.143 0.115 0.299 0.131 0.468l0.221 2.428c-0.128-0.059-0.257-0.116-0.388-0.169-1.257-0.523-2.636-0.809-4.079-0.809s-2.821 0.287-4.080 0.808c-0.121 0.051-0.241 0.103-0.36 0.157z"></path>
</svg>
