<!-- Generated by IcoMoon.io -->
<svg version="1.1" xmlns="http://www.w3.org/2000/svg" width="32" height="32" viewBox="0 0 32 32">
<title>wifi</title>
<path d="M7.52 17.757c1.287-1.072 2.713-1.859 4.207-2.369 1.544-0.528 3.163-0.76 4.772-0.703 1.46 0.052 2.911 0.343 4.292 0.867 1.353 0.513 2.64 1.252 3.803 2.211 0.568 0.468 1.408 0.388 1.877-0.18s0.388-1.408-0.18-1.877c-1.389-1.147-2.931-2.031-4.553-2.647-1.655-0.628-3.393-0.976-5.143-1.039-1.929-0.069-3.872 0.209-5.729 0.845-1.796 0.615-3.509 1.56-5.051 2.844-0.565 0.471-0.643 1.312-0.171 1.877s1.312 0.643 1.877 0.171zM2.775 13c1.925-1.697 4.083-2.956 6.353-3.784 2.352-0.857 4.828-1.256 7.295-1.199 2.324 0.053 4.64 0.509 6.835 1.363 2.139 0.832 4.163 2.041 5.971 3.623 0.555 0.485 1.396 0.429 1.881-0.125s0.429-1.396-0.125-1.881c-2.044-1.789-4.337-3.159-6.76-4.101-2.485-0.967-5.108-1.484-7.74-1.544-2.793-0.064-5.601 0.387-8.271 1.36-2.577 0.941-5.024 2.369-7.201 4.289-0.553 0.487-0.605 1.329-0.119 1.881s1.329 0.605 1.881 0.119zM12.145 22.567c0.651-0.463 1.355-0.791 2.077-0.991 0.748-0.207 1.521-0.277 2.287-0.217 1.188 0.093 2.353 0.504 3.364 1.212 0.603 0.423 1.435 0.276 1.857-0.327s0.276-1.435-0.327-1.857c-1.404-0.984-3.025-1.556-4.685-1.687-1.069-0.084-2.155 0.015-3.207 0.305-1.020 0.281-2.005 0.743-2.912 1.387-0.6 0.427-0.741 1.259-0.315 1.859s1.259 0.741 1.859 0.315zM17.333 26.667c0-0.736-0.597-1.333-1.333-1.333s-1.333 0.597-1.333 1.333 0.597 1.333 1.333 1.333 1.333-0.597 1.333-1.333z"></path>
</svg>
