<!-- Generated by IcoMoon.io -->
<svg version="1.1" xmlns="http://www.w3.org/2000/svg" width="32" height="32" viewBox="0 0 32 32">
<title>wind</title>
<path d="M13.732 7.060c0.129-0.129 0.276-0.225 0.431-0.291 0.161-0.068 0.336-0.103 0.511-0.103s0.349 0.033 0.512 0.1c0.156 0.064 0.303 0.159 0.432 0.288s0.225 0.276 0.291 0.431c0.068 0.161 0.103 0.336 0.103 0.511s-0.033 0.349-0.1 0.512c-0.064 0.156-0.159 0.303-0.288 0.432-0.128 0.128-0.272 0.224-0.425 0.288-0.159 0.068-0.331 0.103-0.504 0.105h-12.027c-0.736 0-1.333 0.597-1.333 1.333s0.597 1.333 1.333 1.333h12.057c0.515-0.005 1.029-0.111 1.513-0.315 0.467-0.197 0.903-0.487 1.279-0.864 0.38-0.383 0.669-0.825 0.864-1.299 0.201-0.491 0.301-1.013 0.3-1.533s-0.107-1.043-0.311-1.532c-0.197-0.472-0.489-0.913-0.871-1.293s-0.825-0.669-1.299-0.864c-0.492-0.201-1.013-0.301-1.533-0.3s-1.041 0.104-1.531 0.309c-0.473 0.197-0.915 0.488-1.295 0.871-0.52 0.523-0.517 1.367 0.005 1.885s1.367 0.516 1.885-0.005zM15.841 26.82c0.38 0.383 0.821 0.673 1.293 0.871 0.489 0.204 1.011 0.307 1.531 0.309s1.041-0.097 1.533-0.3c0.473-0.195 0.916-0.483 1.299-0.864s0.673-0.821 0.871-1.293c0.204-0.489 0.307-1.011 0.309-1.531s-0.097-1.041-0.3-1.533c-0.195-0.473-0.483-0.916-0.864-1.299-0.376-0.379-0.812-0.667-1.279-0.864-0.484-0.204-0.999-0.309-1.513-0.315l-16.055-0.001c-0.736 0-1.333 0.597-1.333 1.333s0.597 1.333 1.333 1.333h16.027c0.173 0.003 0.345 0.037 0.505 0.105 0.153 0.065 0.297 0.16 0.425 0.288 0.129 0.129 0.224 0.277 0.288 0.432 0.067 0.163 0.1 0.336 0.1 0.512s-0.035 0.349-0.103 0.511c-0.065 0.155-0.161 0.301-0.291 0.431s-0.277 0.224-0.432 0.288c-0.163 0.067-0.337 0.1-0.513 0.1s-0.349-0.035-0.511-0.103c-0.155-0.065-0.301-0.161-0.431-0.291-0.519-0.523-1.364-0.525-1.885-0.005s-0.525 1.364-0.005 1.885zM24.581 11.251c0.193-0.193 0.413-0.336 0.648-0.433 0.244-0.1 0.505-0.151 0.767-0.151s0.523 0.052 0.767 0.153c0.233 0.097 0.453 0.241 0.647 0.435s0.336 0.413 0.433 0.648c0.1 0.244 0.151 0.505 0.151 0.767s-0.052 0.523-0.153 0.767c-0.097 0.233-0.241 0.453-0.435 0.647-0.193 0.192-0.412 0.336-0.645 0.432-0.241 0.1-0.501 0.152-0.763 0.152h-23.331c-0.736 0-1.333 0.597-1.333 1.333s0.597 1.333 1.333 1.333h23.336c0.604-0.001 1.211-0.119 1.78-0.355 0.549-0.228 1.063-0.564 1.508-1.008s0.784-0.96 1.013-1.511c0.237-0.572 0.356-1.18 0.357-1.787s-0.116-1.216-0.352-1.788c-0.228-0.552-0.565-1.068-1.009-1.513s-0.96-0.784-1.511-1.013c-0.575-0.239-1.183-0.357-1.789-0.359s-1.216 0.116-1.788 0.352c-0.552 0.228-1.068 0.565-1.513 1.009-0.521 0.52-0.523 1.364-0.003 1.885s1.364 0.523 1.885 0.003z"></path>
</svg>
