<!-- Generated by IcoMoon.io -->
<svg version="1.1" xmlns="http://www.w3.org/2000/svg" width="32" height="32" viewBox="0 0 32 32">
<title>youtube1</title>
<path d="M28.751 8.849c0.383 2.039 0.597 4.393 0.583 6.833 0.025 2.037-0.164 4.356-0.583 6.695-0.076 0.277-0.2 0.537-0.363 0.767-0.155 0.219-0.345 0.409-0.564 0.564-0.212 0.149-0.452 0.267-0.701 0.337-0.135 0.036-0.336 0.076-0.609 0.117-0.301 0.045-0.661 0.088-1.069 0.127-1.001 0.095-2.236 0.163-3.491 0.211-0.989 0.037-1.98 0.063-2.863 0.080-0.707 0.013-1.343 0.021-1.852 0.027-0.765 0.007-1.239 0.007-1.239 0.007s-0.473 0-1.237-0.007c-0.509-0.005-1.145-0.013-1.852-0.027-0.883-0.017-1.875-0.043-2.863-0.080-1.255-0.048-2.489-0.116-3.491-0.211-0.409-0.039-0.769-0.081-1.069-0.127-0.273-0.041-0.473-0.081-0.595-0.113-0.273-0.076-0.528-0.197-0.755-0.357-0.219-0.155-0.411-0.344-0.565-0.563-0.14-0.197-0.252-0.421-0.328-0.668-0.381-2.035-0.593-4.381-0.579-6.813-0.028-2.053 0.161-4.389 0.583-6.747 0.076-0.277 0.2-0.537 0.363-0.767 0.155-0.219 0.345-0.409 0.564-0.564 0.212-0.149 0.452-0.267 0.701-0.337 0.135-0.036 0.336-0.076 0.609-0.117 0.301-0.045 0.661-0.088 1.069-0.127 1.001-0.095 2.236-0.163 3.491-0.211 0.989-0.037 1.98-0.063 2.863-0.080 1.769-0.032 3.091-0.032 3.091-0.032s1.323 0 3.091 0.031c0.884 0.016 1.875 0.039 2.864 0.073 1.259 0.044 2.499 0.107 3.505 0.193 0.409 0.035 0.771 0.073 1.073 0.116 0.273 0.037 0.477 0.075 0.563 0.095 0.292 0.084 0.561 0.22 0.797 0.399 0.213 0.161 0.399 0.357 0.545 0.58 0.137 0.207 0.244 0.44 0.312 0.696zM31.347 8.236c-0.141-0.567-0.375-1.088-0.683-1.553-0.317-0.48-0.712-0.896-1.161-1.236-0.497-0.376-1.061-0.659-1.665-0.833-0.317-0.079-0.62-0.131-0.939-0.175-0.363-0.051-0.772-0.093-1.209-0.131-1.072-0.092-2.365-0.156-3.641-0.201-1.009-0.035-2.017-0.059-2.911-0.075-1.789-0.032-3.137-0.032-3.137-0.032s-0.489 0-1.264 0.008c-0.516 0.005-1.161 0.013-1.877 0.027-0.895 0.017-1.904 0.043-2.915 0.081-1.273 0.049-2.564 0.119-3.637 0.22-0.44 0.041-0.852 0.089-1.219 0.144-0.321 0.049-0.631 0.107-0.899 0.179-0.58 0.164-1.096 0.413-1.551 0.735-0.471 0.332-0.875 0.739-1.201 1.199-0.36 0.508-0.625 1.081-0.783 1.691-0.008 0.032-0.015 0.065-0.020 0.095-0.457 2.531-0.665 5.057-0.635 7.308-0.016 2.565 0.215 5.108 0.636 7.336 0.008 0.041 0.017 0.083 0.028 0.117 0.16 0.561 0.411 1.076 0.733 1.532 0.333 0.471 0.741 0.873 1.203 1.199 0.476 0.336 1.009 0.589 1.575 0.748 0.283 0.076 0.592 0.133 0.915 0.183 0.365 0.055 0.779 0.103 1.217 0.144 1.073 0.101 2.365 0.171 3.639 0.22 1.011 0.039 2.019 0.064 2.915 0.081 1.791 0.035 3.14 0.035 3.14 0.035s1.349 0 3.141-0.035c0.895-0.017 1.904-0.043 2.915-0.081 1.273-0.049 2.565-0.119 3.639-0.22 0.44-0.041 0.852-0.089 1.217-0.144 0.321-0.048 0.631-0.107 0.9-0.179 0.58-0.164 1.095-0.413 1.551-0.735 0.471-0.332 0.875-0.739 1.2-1.199 0.36-0.508 0.627-1.081 0.783-1.691 0.008-0.033 0.016-0.067 0.020-0.095 0.453-2.512 0.661-5.020 0.635-7.253 0.016-2.567-0.215-5.111-0.636-7.339-0.005-0.027-0.011-0.053-0.016-0.076zM14.333 17.735v-4.136l3.636 2.068zM13.659 21.185l7.667-4.36c0.64-0.364 0.864-1.179 0.5-1.819-0.124-0.219-0.301-0.389-0.5-0.5l-7.667-4.36c-0.64-0.364-1.455-0.14-1.819 0.5-0.12 0.211-0.176 0.44-0.175 0.659v8.72c0 0.736 0.597 1.333 1.333 1.333 0.243 0 0.469-0.065 0.659-0.175z"></path>
</svg>
