<!-- Generated by IcoMoon.io -->
<svg version="1.1" xmlns="http://www.w3.org/2000/svg" width="32" height="32" viewBox="0 0 32 32">
<title>zap-off</title>
<path d="M17.869 9.164l0.787-6.333c0.091-0.731-0.428-1.397-1.159-1.488-0.465-0.057-0.904 0.132-1.189 0.471l-3.24 3.893c-0.471 0.567-0.393 1.407 0.172 1.879s1.407 0.395 1.877-0.172l0.332-0.399-0.227 1.821c-0.091 0.731 0.428 1.397 1.159 1.488s1.397-0.428 1.488-1.159zM25.784 18.068l3.24-3.88c0.472-0.565 0.396-1.407-0.169-1.879-0.251-0.208-0.555-0.311-0.855-0.309h-7.12c-0.736 0-1.333 0.597-1.333 1.333s0.597 1.333 1.333 1.333h4.269l-1.413 1.692c-0.472 0.565-0.396 1.407 0.169 1.879s1.407 0.396 1.879-0.169zM17.281 19.167l2.248 2.248-2.976 3.571zM10.756 12.641l4.692 4.692h-8.601zM0.391 2.276l8.472 8.472-5.887 7.065c-0.472 0.565-0.395 1.407 0.171 1.877 0.249 0.209 0.553 0.311 0.853 0.309h10.489l-1.145 9.168c-0.092 0.731 0.427 1.397 1.157 1.488 0.465 0.059 0.904-0.131 1.189-0.469l5.732-6.879 8.301 8.301c0.521 0.521 1.365 0.521 1.885 0s0.521-1.365 0-1.885l-29.333-29.333c-0.521-0.521-1.365-0.521-1.885 0-0.52 0.52-0.521 1.364 0 1.885z"></path>
</svg>
